<svg viewBox="0 0 16 16" xmlns="http://www.w3.org/2000/svg">
<path d="M13 1C13 0.447715 13.4477 0 14 0C14.5523 0 15 0.447715 15 1V4C15 4.55228 14.5523 5 14 5C13.4477 5 13 4.55228 13 4V1ZM13 7C13 6.44772 13.4477 6 14 6C14.5523 6 15 6.44772 15 7C15 7.55228 14.5523 8 14 8C13.4477 8 13 7.55228 13 7ZM1 1H11V4C11 4.35064 11.0602 4.68722 11.1707 5H2V13H14V10C14.7684 10 15.4692 9.71115 16 9.23611V14C16 14.55 15.55 15 15 15H1C0.45 15 0 14.55 0 14V2C0 1.45 0.45 1 1 1ZM4 6C4.28 6 4.53 6.11 4.71 6.29L6.71 8.29C6.89 8.47 7 8.72 7 9C7 9.28 6.89 9.53 6.71 9.71L4.71 11.71C4.53 11.89 4.28 12 4 12C3.45 12 3 11.55 3 11C3 10.72 3.11 10.47 3.29 10.29L4.59 9L3.29 7.71C3.11 7.53 3 7.28 3 7C3 6.45 3.45 6 4 6ZM9 10H12C12.55 10 13 10.45 13 11C13 11.55 12.55 12 12 12H9C8.45 12 8 11.55 8 11C8 10.45 8.45 10 9 10Z" fill="black"/>
</svg>
