<svg viewBox="0 0 16 16" xmlns="http://www.w3.org/2000/svg">
<path d="M15.7071 0.292898C16.0976 0.683425 16.0976 1.31659 15.7071 1.70711L13.9142 3.5L15.7071 5.29289C16.0976 5.68341 16.0976 6.31658 15.7071 6.7071C15.3166 7.09763 14.6834 7.09763 14.2929 6.70711L12.5 4.9142L10.7071 6.70708C10.3165 7.0976 9.68338 7.0976 9.29286 6.70707C8.90233 6.31654 8.90234 5.68338 9.29287 5.29286L11.0857 3.5L9.29287 1.70714C8.90234 1.31662 8.90234 0.683451 9.29286 0.292925C9.68338 -0.0976019 10.3165 -0.0976056 10.7071 0.292917L12.5 2.08579L14.2929 0.292889C14.6834 -0.0976332 15.3166 -0.097629 15.7071 0.292898ZM0 4C0 3.44772 0.447715 3 1 3H4.5C5.05228 3 5.5 3.44772 5.5 4C5.5 4.55228 5.05228 5 4.5 5H2V7C2 7.55228 1.55228 8 1 8C0.447715 8 0 7.55228 0 7V4ZM1 16C0.447715 16 0 15.5523 0 15V12C0 11.4477 0.447715 11 1 11C1.55228 11 2 11.4477 2 12V14H4.5C5.05228 14 5.5 14.4477 5.5 15C5.5 15.5523 5.05228 16 4.5 16H1ZM12 16C12.2652 16 12.5196 15.8946 12.7071 15.7071C12.8946 15.5196 13 15.2652 13 15V12C13 11.4477 12.5523 11 12 11C11.4477 11 11 11.4477 11 12V14L9 14C8.44772 14 8 14.4477 8 15C8 15.5523 8.44771 16 9 16L12 16ZM9 9.5C9 10.8807 7.88071 12 6.5 12C5.11929 12 4 10.8807 4 9.5C4 8.11929 5.11929 7 6.5 7C7.88071 7 9 8.11929 9 9.5Z" />
</svg>