<svg viewBox="0 0 16 16" xmlns="http://www.w3.org/2000/svg">
<path d="M3 0H10L14 4V7.53257C13.4095 7.1933 12.7251 7 12 7V5H9V2H4V14H7.0001L7 15.405C7 15.6085 7.02436 15.808 7.06934 16H3C2.45 16 2 15.55 2 15V1C2 0.45 2.45 0 3 0ZM14.0002 12H14.4802C14.7552 12 15.0002 12.175 15.0002 12.45L15 15.405C15 15.675 14.755 16 14.48 16H9.48C9.205 16 9 15.675 9 15.405L9.00022 12.45C9.00022 12.175 9.20522 12 9.48022 12H10.0002V10.975C10.0002 9.885 10.8952 9 12.0002 9C13.1052 9 14.0002 9.885 14.0002 10.975V12ZM11 10.985V12H13V10.985C13 10.44 12.55 10 12 10C11.45 10 11 10.44 11 10.985Z"/>
</svg>