<svg viewBox="0 0 16 16" xmlns="http://www.w3.org/2000/svg">
<path d="M10.1272 0.101574C10.6428 -0.358508 11.8229 0.819602 12.7532 2.03126C12.8322 2.01115 12.915 2.00004 13.0002 2.00001C13.5524 2.00001 14.0001 2.44788 14.0002 3.00001C14.0002 3.0751 13.9915 3.1484 13.9758 3.21876C15.2125 4.1837 16.3973 5.43072 15.8733 5.89845C15.3576 6.35857 14.1786 5.17973 13.2483 3.96778C13.169 3.98804 13.0859 4.00001 13.0002 4.00001C12.9053 3.99998 12.8138 3.9857 12.7268 3.96095C12.7565 4.17004 12.7085 4.38967 12.5745 4.56935C10.1425 7.82987 10.1424 8.17101 12.5745 11.4317C12.7081 11.6109 12.756 11.8295 12.7268 12.0381C12.8137 12.0134 12.9055 12 13.0002 12C13.0749 12 13.148 12.0089 13.218 12.0244C14.1828 10.788 15.4307 9.60382 15.8987 10.127C16.3588 10.6426 15.1799 11.8216 13.968 12.752C13.9883 12.8314 14.0002 12.9143 14.0002 13C14.0002 13.5523 13.5525 14 13.0002 14C12.9251 14 12.8519 13.9914 12.7815 13.9756C11.8166 15.2122 10.5695 16.397 10.1018 15.8731C9.64252 15.3573 10.8209 14.1782 12.0325 13.2481C12.0122 13.1688 12.0002 13.0856 12.0002 13C12.0003 12.9052 12.0137 12.8135 12.0383 12.7266C11.8297 12.7558 11.6111 12.7079 11.4319 12.5742C8.17124 10.1421 7.83012 10.1422 4.56958 12.5742C4.3899 12.7083 4.17028 12.7563 3.96118 12.7266C3.98593 12.8136 4.00021 12.9051 4.00024 13C4.00024 13.0751 3.99152 13.1484 3.97583 13.2188C5.21253 14.1837 6.39731 15.4307 5.87329 15.8984C5.3576 16.3586 4.17863 15.1797 3.24829 13.9678C3.16896 13.988 3.08588 14 3.00024 14C2.44812 13.9998 2.00024 13.5522 2.00024 13C2.00027 12.9249 2.00892 12.8517 2.02466 12.7813C0.788254 11.8164 -0.396642 10.5692 0.127198 10.1016C0.64275 9.64149 1.82292 10.8196 2.75317 12.0313C2.8322 12.0111 2.91496 12 3.00024 12C3.09493 12 3.18688 12.0135 3.27368 12.0381C3.2445 11.8296 3.29246 11.6108 3.42603 11.4317C5.85831 8.17075 5.85829 7.83022 3.42603 4.56935C3.29203 4.3897 3.24401 4.17001 3.27368 3.96095C3.18675 3.98562 3.09508 4.00001 3.00024 4.00001C2.92505 3.99999 2.85194 3.99135 2.78149 3.9756C1.81659 5.21217 0.569494 6.39703 0.101807 5.87306C-0.357486 5.35726 0.820927 4.17815 2.03247 3.24806C2.01224 3.16877 2.00024 3.0856 2.00024 3.00001C2.00042 2.44799 2.44823 2.0002 3.00024 2.00001C3.07494 2.00001 3.14799 2.00889 3.21802 2.02443C4.18275 0.787981 5.4307 -0.396184 5.89868 0.126964C6.35884 0.642597 5.17988 1.82165 3.96802 2.75196C3.98835 2.83139 4.00022 2.91426 4.00024 3.00001C4.00024 3.09486 3.98585 3.18651 3.96118 3.27345C4.17025 3.24377 4.38993 3.29179 4.56958 3.42579C7.83046 5.85806 8.17098 5.85808 11.4319 3.42579C11.611 3.29222 11.8298 3.24427 12.0383 3.27345C12.0137 3.18664 12.0002 3.0947 12.0002 3.00001C12.0003 2.92487 12.0089 2.85166 12.0247 2.78126C10.7883 1.81642 9.60336 0.569229 10.1272 0.101574Z"/>
</svg>
