<svg viewBox="0 0 16 16" xmlns="http://www.w3.org/2000/svg">
<path d="M3 1C4.65685 1 6 2.34314 6 4C5.99997 5.30571 5.16451 6.41301 4 6.8252V10C4.00003 10.5095 4.1586 10.7047 4.26562 10.7939C4.40477 10.9098 4.64872 11 5 11H6.58594L5.79297 10.207C5.40247 9.81656 5.40254 9.18351 5.79297 8.79297C6.18349 8.40245 6.81651 8.40245 7.20703 8.79297L9.70703 11.293L9.77148 11.3643C9.81299 11.4145 9.84874 11.4678 9.87891 11.5234C9.92309 11.6048 9.95565 11.6909 9.97559 11.7793L9.99023 11.8623C9.9943 11.8918 9.9976 11.9215 9.99902 11.9512V12.0479C9.9982 12.0652 9.99488 12.0823 9.99316 12.0996C9.98206 12.2101 9.95408 12.3193 9.90625 12.4219C9.88031 12.4776 9.84831 12.5309 9.81152 12.582C9.79981 12.5983 9.7882 12.6152 9.77539 12.6309L9.70703 12.707L7.20703 15.207C6.81654 15.5973 6.18344 15.5973 5.79297 15.207C5.40249 14.8166 5.40258 14.1835 5.79297 13.793L6.58594 13H5C4.35146 13 3.59525 12.8401 2.98438 12.3311C2.3415 11.7953 2.00004 10.9904 2 10V6.8252C0.835492 6.41301 3.05397e-05 5.30571 0 4C0 2.34314 1.34315 1 3 1ZM8.79297 0.792969C9.18349 0.402445 9.81654 0.402445 10.207 0.792969C10.5975 1.1835 10.5976 1.81653 10.207 2.20703L9.41406 3H11C11.6486 3 12.4047 3.15989 13.0156 3.66895C13.6585 4.20475 14 5.00958 14 6V9.17383C15.1647 9.58594 16 10.6941 16 12C16 13.6568 14.6569 15 13 15C11.3431 15 10 13.6568 10 12C10 10.6941 10.8353 9.58594 12 9.17383V6C12 5.49053 11.8414 5.29526 11.7344 5.20605C11.5953 5.09016 11.3514 5 11 5H9.41406L10.207 5.79297C10.5975 6.18351 10.5976 6.81656 10.207 7.20703C9.81658 7.59736 9.18345 7.59736 8.79297 7.20703L6.29297 4.70703C6.15578 4.56984 6.06712 4.40254 6.02637 4.22656C6.01663 4.18467 6.01014 4.14223 6.00586 4.09961C6.00414 4.08236 6.0018 4.06516 6.00098 4.04785V3.95117C6.0024 3.92145 6.0057 3.89183 6.00977 3.8623L6.02441 3.7793C6.03285 3.74191 6.04485 3.70535 6.05762 3.66895C6.09568 3.56019 6.15171 3.45616 6.22852 3.36328L6.29297 3.29297L8.79297 0.792969ZM13 11C12.4477 11 12 11.4477 12 12C12 12.5523 12.4477 13 13 13C13.5523 13 14 12.5523 14 12C14 11.4477 13.5523 11 13 11ZM3 3C2.44772 3 2 3.44771 2 4C2.00004 4.55225 2.44774 5 3 5C3.55226 5 3.99996 4.55225 4 4C4 3.44771 3.55228 3 3 3Z" fill="black"/>
</svg>
