<svg viewBox="0 0 16 16" xmlns="http://www.w3.org/2000/svg">
<path d="M14 2C15.1046 2 16 2.89543 16 4V12C16 13.1046 15.1046 14 14 14H2C0.895431 14 0 13.1046 0 12V4C1.28853e-07 2.89543 0.89543 2 2 2H14ZM8 5.84766C8 5.15509 7.12469 4.90482 6.74316 5.4209L6.67383 5.53418L5.5 7.88184L4.32617 5.53418L4.25684 5.4209C3.87531 4.90483 3 5.15509 3 5.84766V10.5C3 10.7761 3.22386 11 3.5 11C3.77614 11 4 10.7761 4 10.5V7.11816L4.60547 8.3291C4.97399 9.06615 6.02601 9.06615 6.39453 8.3291L7 7.11816V10.5C7 10.7761 7.22386 11 7.5 11C7.77614 11 8 10.7761 8 10.5V5.84766ZM11.5 5C11.2239 5 11 5.22386 11 5.5V9.29297L10.3535 8.64648L10.2754 8.58203C10.0813 8.45387 9.81735 8.47562 9.64648 8.64648C9.47562 8.81735 9.45387 9.08131 9.58203 9.27539L9.64648 9.35352L11.0762 10.7832C11.3104 11.017 11.6896 11.017 11.9238 10.7832L13.3535 9.35352C13.5488 9.15825 13.5488 8.84175 13.3535 8.64648C13.1583 8.45122 12.8417 8.45122 12.6465 8.64648L12 9.29297V5.5C12 5.22386 11.7761 5 11.5 5Z"/>
</svg>
