<svg xmlns="http://www.w3.org/2000/svg" viewBox="0 0 16 16">
  <path d="M3 0H11C11.55 0 12 0.45 12 1V1.59777C11.2503 1.21547 10.4008 1 9.5 1C7.7885 1 6.262 1.77784 5.25402 3H4V12H10V11.977C10.6046 11.921 11.1765 11.7649 11.7053 11.5295L12 11.8242V15C12 15.55 11.55 16 11 16H3C2.45 16 2 15.55 2 15V1C2 0.45 2.45 0 3 0ZM6 14C6 14.55 6.45 15 7 15C7.55 15 8 14.55 8 14C8 13.45 7.55 13 7 13C6.45 13 6 13.45 6 14ZM11.89 10.3C11.3247 10.6553 10.6877 10.8933 10 10.9717C9.83612 10.9904 9.66935 11 9.5 11C7.01 11 5 8.99 5 6.5C5 5.08454 5.64952 3.82419 6.66751 3C7.44031 2.37432 8.42546 2 9.5 2C10.4259 2 11.2855 2.27794 12 2.75516C13.2069 3.56125 14 4.93593 14 6.5C14 7.38 13.74 8.19 13.3 8.89L15.71 11.29C15.89 11.47 16 11.72 16 12C16 12.55 15.55 13 15 13C14.72 13 14.47 12.89 14.3 12.71L11.89 10.3ZM12 6.5C12 5.29052 11.1411 4.28164 10 4.05001C9.83845 4.01722 9.67123 4 9.5 4C8.11929 4 7 5.11929 7 6.5C7 7.88071 8.11929 9 9.5 9C9.67123 9 9.83845 8.98279 10 8.94999C11.1411 8.71836 12 7.70948 12 6.5Z"/>
</svg>
