<svg xmlns="http://www.w3.org/2000/svg" viewBox="0 0 16 16">
  <path fill-rule="evenodd" d="M2.47696 7.61772C2.75163 8.16706 2.21409 9.12252 1.5982 10.2172C0.96442 11.3437 0.247689 12.6176 0.247689 13.7482C0.247689 13.9283 0.438545 14.0885 0.596881 14.1904C0.728896 14.2753 0.886155 14.3055 1.04314 14.3055H3.91807C4.35336 14.3055 4.70624 13.9527 4.70624 13.5174C4.70624 13.3083 4.78928 13.1079 4.93709 12.9601L5.06652 12.8306C5.19268 12.7045 5.26356 12.5334 5.26356 12.3549C5.26356 12.1765 5.33444 12.0054 5.4606 11.8792L5.54222 11.7976C5.72064 11.6192 5.82088 11.3772 5.82088 11.1249V10.9616C5.82088 10.6538 6.0704 10.4043 6.3782 10.4043H9.16479C9.78039 10.4043 10.2794 9.90527 10.2794 9.28968V8.17504C10.2794 7.55944 10.7785 7.0604 11.3941 7.0604H13.6233H14.738C15.3536 7.0604 15.8526 6.56136 15.8526 5.94576V5.0516C15.8526 4.9858 15.8792 4.92278 15.9263 4.87684C15.9734 4.83091 16 4.76785 16 4.70205V4.30763C16 4.22926 15.9741 4.15305 15.9263 4.09094C15.8785 4.02883 15.8526 3.95266 15.8526 3.87429V3.71649C15.8526 3.40869 15.6031 3.15917 15.2953 3.15917H15.0166C14.8627 3.15917 14.738 3.03441 14.738 2.88051C14.738 2.72661 14.6132 2.60185 14.4593 2.60185H14.3439C14.2394 2.60185 14.1391 2.64337 14.0652 2.71728L13.902 2.88051C13.7236 3.05893 13.4816 3.15917 13.2293 3.15917H2.70781C2.56 3.15917 2.41825 3.10045 2.31373 2.99594C2.09609 2.77829 1.74322 2.77829 1.52558 2.99594C1.42106 3.10045 1.2793 3.15917 1.13149 3.15917H0.805017C0.497218 3.15917 0.247698 3.40869 0.247698 3.71649V5.68264C0.247698 5.85568 0.205656 6.02543 0.142381 6.18649C0.0136382 6.51418 -0.142441 7.0604 0.247689 7.0604C0.337483 7.0604 0.446105 7.05466 0.566784 7.04827C1.19513 7.01503 2.15035 6.9645 2.47696 7.61772ZM6.13388 9.847H8.70313C8.99875 9.847 9.28226 9.72957 9.49129 9.52053L9.64053 9.3713C9.69278 9.31904 9.72214 9.24816 9.72214 9.17426V8.63674C9.72214 8.34112 9.60471 8.05761 9.39567 7.84858L9.24644 7.69934C9.19418 7.64709 9.1233 7.61773 9.0494 7.61773H7.77153C7.61763 7.61773 7.49287 7.74249 7.49287 7.89639V8.09067C7.49287 8.14569 7.50915 8.19947 7.53967 8.24525L7.83464 8.68771C8.0036 8.94115 7.70165 9.2431 7.44821 9.07414L7.00575 8.77916C6.95998 8.74865 6.90619 8.73236 6.85118 8.73236H6.50041C6.43293 8.73236 6.37823 8.67766 6.37823 8.61019C6.37823 8.46611 6.17247 8.44078 6.13752 8.58055L5.89682 9.54338C5.85826 9.69761 5.97491 9.847 6.13388 9.847ZM1.81101 5C1.72742 5 1.64937 5.04178 1.603 5.11133L1.43633 5.36133C1.32557 5.52746 1.44467 5.75 1.64435 5.75H14.5434C14.627 5.75 14.7051 5.70822 14.7514 5.63867L14.9181 5.38867C15.0289 5.22254 14.9098 5 14.7101 5H1.81101Z"/>
</svg>
