<svg viewBox="0 0 16 16" xmlns="http://www.w3.org/2000/svg">
<path d="M5 10C5.55229 10 6 10.4477 6 11C6 11.5523 5.55229 12 5 12H4.41406C5.29814 12.6658 6.583 13 8 13C8.64559 13 9.26161 12.8751 9.82812 12.6523L11.333 14.1572C10.342 14.6948 9.20664 15 8 15C6.28087 15 4.38091 14.5841 3 13.4326V14C3 14.5523 2.55228 15 2 15C1.44772 15 1 14.5523 1 14V11C1 10.4477 1.44771 10 2 10H5Z"/>
<path d="M14 7C14.5523 7 15 7.44772 15 8C15 9.20399 14.6955 10.3367 14.1602 11.3262L12.6553 9.82227C12.8765 9.25742 13 8.64328 13 8C13 7.44772 13.4477 7 14 7Z"/>
<path d="M3.34668 6.1709C3.12377 6.73755 3 7.35421 3 8C3 8.55228 2.55228 9 2 9C1.44772 9 1 8.55228 1 8C1 6.79322 1.30411 5.65709 1.8418 4.66602L3.34668 6.1709Z"/>
<path d="M14 1C14.5523 1 15 1.44772 15 2V5C15 5.55228 14.5523 6 14 6H11C10.4477 6 10 5.55228 10 5C10 4.44772 10.4477 4 11 4H11.5859C10.7019 3.33416 9.417 3 8 3C7.35543 3 6.7396 3.12261 6.17383 3.34473L4.66895 1.84082C5.65938 1.30403 6.79431 1 8 1C9.71913 1 11.6191 1.41593 13 2.56738V2C13 1.44772 13.4477 1 14 1Z"/>
<path d="M2 1C1.45 1 1 1.45 1 2C1 2.28 1.11004 2.52996 1.29004 2.70996L13.29 14.7002C13.47 14.8901 13.7201 15 14 15C14.55 15 15 14.55 15 14C15 13.72 14.89 13.47 14.71 13.29L2.70996 1.2998C2.52997 1.10988 2.27994 1 2 1Z"/>
</svg>