<svg viewBox="0 0 16 16" xmlns="http://www.w3.org/2000/svg">
<path d="M5.28711 6.28125C5.66615 5.90616 6.28121 5.906 6.66016 6.28125L8.71875 8.32031L8.78516 8.39355C9.09595 8.77099 9.0739 9.32782 8.71875 9.67969L6.66016 11.7188C6.28118 12.0941 5.66615 12.094 5.28711 11.7188C4.90809 11.3435 4.90809 10.7347 5.28711 10.3594L5.45801 10.1895C4.79742 10.2926 4.19553 10.4348 3.68457 10.6113C2.90516 10.8807 2.36731 11.2183 2.13379 11.585C2.01658 11.7693 1.97878 11.9567 2.01758 12.1406C2.05656 12.3249 2.17242 12.5081 2.36523 12.6846C2.75033 13.0367 3.425 13.3457 4.31055 13.5762C5.19649 13.8066 6.25915 13.9502 7.37695 13.9893C8.49475 14.0282 9.62371 13.9621 10.6338 13.7979C11.6439 13.6336 12.4962 13.3774 13.0918 13.0596C13.3591 12.9169 13.6045 12.7426 13.7734 12.5479C13.8923 12.4109 13.9619 12.2787 13.9893 12.1406L14.0029 12C14.003 11.4478 14.4507 11 15.0029 11C15.555 11.0002 16.0028 11.4478 16.0029 12C16.0029 13.569 14.7428 14.4456 14.0332 14.8242C13.171 15.2843 12.0822 15.5881 10.9551 15.7715C9.80448 15.9586 8.54431 16.0315 7.30762 15.9883C6.07418 15.9452 4.86169 15.7863 3.80664 15.5117C2.81015 15.2523 1.75938 14.8413 1.01562 14.1611C0.624087 13.8031 0.212288 13.2719 0.0605469 12.5537C-0.101264 11.7872 0.0899106 11.072 0.446289 10.5117C1.0599 9.54741 2.15536 9.02439 3.03125 8.72168C3.84622 8.44006 4.78957 8.24407 5.77832 8.12793L5.28711 7.64062C4.90827 7.26526 4.90815 6.65654 5.28711 6.28125ZM8.3457 0.28125C8.72469 -0.0939398 9.33975 -0.0939147 9.71875 0.28125C10.0975 0.656511 10.0975 1.2653 9.71875 1.64062L9.31055 2.04297C10.4288 2.11732 11.5125 2.28815 12.4561 2.55762C13.4495 2.84136 14.5808 3.31486 15.2988 4.15918C15.7008 4.63194 16.0409 5.30964 15.999 6.13574C15.9577 6.94584 15.5657 7.57305 15.1592 7.99609C14.4118 8.77371 13.2896 9.22115 12.2656 9.49414C11.7321 9.63636 11.1834 9.31959 11.041 8.78613C10.8988 8.25253 11.2165 7.70375 11.75 7.56152C12.6716 7.31586 13.3563 6.98535 13.7168 6.61035C13.8979 6.4219 13.992 6.2274 14.002 6.03418C14.0117 5.84118 13.9374 5.64571 13.7754 5.45508C13.4532 5.07615 12.8023 4.73734 11.9062 4.48145C11.185 4.2755 10.3298 4.1307 9.41309 4.05664L9.71875 4.35938C10.0976 4.73471 10.0977 5.34346 9.71875 5.71875C9.33977 6.09406 8.72473 6.09397 8.3457 5.71875L6.28711 3.67969C5.90817 3.30434 5.90812 2.69562 6.28711 2.32031L8.3457 0.28125ZM2.94629 2.75098C3.46626 2.56562 4.03891 2.83661 4.22461 3.35645C4.4101 3.87649 4.13813 4.44909 3.61816 4.63477C3.0227 4.84727 2.57266 5.10041 2.30078 5.37695C2.02304 5.65956 1.94429 5.95375 2.04492 6.23633C2.22989 6.75634 1.95839 7.32826 1.43848 7.51367C0.918321 7.69899 0.34659 7.42731 0.161133 6.90723C-0.273585 5.68707 0.242214 4.61948 0.875 3.97559C1.45134 3.38928 2.22447 3.00854 2.94629 2.75098Z"/>
</svg>
