<svg viewBox="0 0 16 16" xmlns="http://www.w3.org/2000/svg">
<path d="M10 0C9.44771 0 9 0.447715 9 1V9H6C5.44772 9 5 9.44771 5 10V11H15V10C15 9.44771 14.5523 9 14 9H11V1C11 0.447715 10.5523 0 10 0ZM3.5 3C3.22386 3 3 2.77614 3 2.5C3 2.22386 3.22386 2 3.5 2L6.5 2C6.77614 2 7 2.22386 7 2.5C7 2.77614 6.77614 3 6.5 3L3.5 3ZM1.5 5C1.22386 5 1 4.77614 1 4.5C1 4.22386 1.22386 4 1.5 4H6.5C6.77614 4 7 4.22386 7 4.5C7 4.77614 6.77614 5 6.5 5L1.5 5ZM3.5 7C3.22386 7 3 6.77614 3 6.5C3 6.22386 3.22386 6 3.5 6H6.5C6.77614 6 7 6.22386 7 6.5C7 6.77614 6.77614 7 6.5 7H3.5ZM3 15C3.43969 15 4.6527 14.2267 4.93892 12H14.9763C14.8962 13.5157 14.5443 16 13 16H12V15L10 16H8V15L6 16H3V15Z"/>
</svg>
