<svg viewBox="0 0 16 16" xmlns="http://www.w3.org/2000/svg">
<path d="M2.75 5H6.25L7 2H9L9.75 5H13.25L14 2H16L15.2422 5.03027C15.6774 5.13861 16 5.53129 16 6C16 6.55228 15.5523 7 15 7H14.75L14.5 8H15C15.5523 8 16 8.44772 16 9C16 9.55228 15.5523 10 15 10H14L13 14H10L9 10H7L6 14H3L2 10H1C0.447715 10 0 9.55228 0 9C0 8.44772 0.447715 8 1 8H1.5L1.25 7H1C0.447715 7 0 6.55228 0 6C0 5.53162 0.322125 5.13893 0.756836 5.03027L0 2H2L2.75 5ZM4.5 12L5 10H4L4.5 12ZM11 10L11.5 12L12 10H11ZM10.25 7L10.5 8H12.5L12.75 7H10.25ZM3.5 8H5.5L5.75 7H3.25L3.5 8ZM7.5 8H8.5L8.25 7H7.75L7.5 8Z"/>
</svg>
