<svg viewBox="0 0 16 16" xmlns="http://www.w3.org/2000/svg">
<path d="M12.5 7C14.433 7 16 8.567 16 10.5C16 12.433 14.433 14 12.5 14H10.4102L10.7002 14.29C10.8901 14.47 11 14.7201 11 15C11 15.55 10.55 16 10 16C9.72 16 9.47004 15.89 9.29004 15.71L7.29004 13.71C7.11004 13.53 7 13.28 7 13C7 12.72 7.11004 12.47 7.29004 12.29L9.29004 10.29C9.47004 10.11 9.72 10 10 10C10.55 10 11 10.45 11 11C11 11.28 10.89 11.53 10.71 11.71L10.4102 12H12.5C13.3284 12 14 11.3284 14 10.5C14 9.67157 13.3284 9 12.5 9H1C0.447715 9 0 8.55228 0 8C0 7.44772 0.447715 7 1 7H12.5ZM4 12C4.55 12 5 12.45 5 13C5 13.55 4.55 14 4 14H1C0.45 14 0 13.55 0 13C0 12.45 0.45 12 1 12H4ZM15 2C15.55 2 16 2.45 16 3C16 3.55 15.55 4 15 4H1C0.45 4 0 3.55 0 3C0 2.45 0.45 2 1 2H15Z" fill="#5F6B7C"/>
</svg>
