<?xml version="1.0" encoding="UTF-8" standalone="no"?>
<!-- Created with Inkscape (http://www.inkscape.org/) -->

<svg
   width="1000px"
   height="1000px"
   viewBox="0 0 1000 1000"
   version="1.1"
   id="svg1"
   xml:space="preserve"
   inkscape:version="1.4 (e7c3feb, 2024-10-09)"
   sodipodi:docname="logo-red-on-white-lettered.svg"
   inkscape:export-filename="logo-red-on-white-lettered.png"
   inkscape:export-xdpi="96"
   inkscape:export-ydpi="96"
   xmlns:inkscape="http://www.inkscape.org/namespaces/inkscape"
   xmlns:sodipodi="http://sodipodi.sourceforge.net/DTD/sodipodi-0.dtd"
   xmlns="http://www.w3.org/2000/svg"
   xmlns:svg="http://www.w3.org/2000/svg"><sodipodi:namedview
     id="namedview1"
     pagecolor="#ffffff"
     bordercolor="#000000"
     borderopacity="0.25"
     inkscape:showpageshadow="2"
     inkscape:pageopacity="0.0"
     inkscape:pagecheckerboard="0"
     inkscape:deskcolor="#d1d1d1"
     inkscape:document-units="mm"
     inkscape:zoom="0.5545"
     inkscape:cx="255.18485"
     inkscape:cy="665.46438"
     inkscape:window-width="1920"
     inkscape:window-height="1011"
     inkscape:window-x="0"
     inkscape:window-y="0"
     inkscape:window-maximized="1"
     inkscape:current-layer="layer1"
     inkscape:export-bgcolor="#ffffff00" /><defs
     id="defs1"><inkscape:path-effect
       effect="fillet_chamfer"
       id="path-effect2"
       is_visible="true"
       lpeversion="1"
       nodesatellites_param="F,0,0,1,0,4,0,1 @ F,0,0,1,0,4,0,1 @ F,0,0,1,0,4,0,1 @ F,0,0,1,0,4,0,1 @ F,0,0,1,0,4.0000051,0,1 @ F,0,0,1,0,4,0,1 @ F,0,0,1,0,4,0,1 @ F,0,0,1,0,4.0000051,0,1 @ F,0,0,1,0,4,0,1 @ F,0,0,1,0,4,0,1 @ F,0,0,1,0,4,0,1 @ F,0,0,1,0,4,0,1 @ F,0,0,1,0,4,0,1 @ F,0,0,1,0,4,0,1 @ F,0,0,1,0,4,0,1 @ F,0,0,1,0,4,0,1 @ F,0,0,1,0,4.0000006,0,1 @ F,0,0,1,0,4,0,1 @ F,0,0,1,0,4,0,1 @ F,0,0,1,0,4.0000006,0,1 @ F,0,0,1,0,4,0,1 @ F,0,0,1,0,4,0,1 @ F,0,0,1,0,4,0,1 @ F,0,0,1,0,4,0,1 @ F,0,0,1,0,4,0,1 @ F,0,0,1,0,4,0,1 @ F,0,0,1,0,4,0,1 @ F,0,0,1,0,4,0,1 @ F,0,0,1,0,4,0,1 @ F,0,0,1,0,4.0000051,0,1 @ F,0,0,1,0,4,0,1 @ F,0,0,1,0,4,0,1 @ F,0,0,1,0,4.0000051,0,1 @ F,0,0,1,0,4,0,1 @ F,0,0,1,0,4,0,1 @ F,0,0,1,0,4,0,1 @ F,0,0,1,0,4,0,1 @ F,0,0,1,0,4,0,1 @ F,0,0,1,0,4,0,1 @ F,0,0,1,0,4,0,1 @ F,0,0,1,0,4,0,1 @ F,0,0,1,0,4.0000006,0,1 @ F,0,0,1,0,4,0,1 @ F,0,0,1,0,4,0,1 @ F,0,0,1,0,4.0000006,0,1 @ F,0,0,1,0,4,0,1 @ F,0,0,1,0,4,0,1 @ F,0,0,1,0,4,0,1 @ F,0,0,1,0,4,0,1"
       radius="5"
       unit="px"
       method="auto"
       mode="F"
       chamfer_steps="1"
       flexible="false"
       use_knot_distance="true"
       apply_no_radius="true"
       apply_with_radius="true"
       only_selected="false"
       hide_knots="false" /><inkscape:path-effect
       effect="fillet_chamfer"
       id="path-effect1"
       is_visible="true"
       lpeversion="1"
       nodesatellites_param="F,0,1,1,0,0,0,1 @ F,0,0,1,0,28.532998,0,1 @ F,0,1,1,0,0,0,1"
       radius="0"
       unit="px"
       method="auto"
       mode="F"
       chamfer_steps="1"
       flexible="false"
       use_knot_distance="true"
       apply_no_radius="true"
       apply_with_radius="true"
       only_selected="false"
       hide_knots="false" /><inkscape:path-effect
       effect="fillet_chamfer"
       id="path-effect1-7"
       is_visible="true"
       lpeversion="1"
       nodesatellites_param="F,0,1,1,0,0,0,1 @ F,0,0,1,0,28.532998,0,1 @ F,0,1,1,0,0,0,1"
       radius="0"
       unit="px"
       method="auto"
       mode="F"
       chamfer_steps="1"
       flexible="false"
       use_knot_distance="true"
       apply_no_radius="true"
       apply_with_radius="true"
       only_selected="false"
       hide_knots="false" /><inkscape:path-effect
       effect="fillet_chamfer"
       id="path-effect1-7-7"
       is_visible="true"
       lpeversion="1"
       nodesatellites_param="F,0,1,1,0,0,0,1 @ F,0,0,1,0,28.532998,0,1 @ F,0,1,1,0,0,0,1"
       radius="0"
       unit="px"
       method="auto"
       mode="F"
       chamfer_steps="1"
       flexible="false"
       use_knot_distance="true"
       apply_no_radius="true"
       apply_with_radius="true"
       only_selected="false"
       hide_knots="false" /></defs><g
     inkscape:label="Layer 1"
     inkscape:groupmode="layer"
     id="layer1"
     transform="translate(0,-37.8561)"
     style="fill:#9c0510;fill-opacity:1;stroke:none;stroke-width:1;stroke-dasharray:none;vector-effect:non-scaling-stroke;-inkscape-stroke:hairline"><path
       style="font-size:189.743px;line-height:0;font-family:Rubik;-inkscape-font-specification:'Rubik, @wght=700';font-variation-settings:'wght' 700;fill:#9c0510;stroke:none;stroke-width:1;fill-opacity:1;stroke-dasharray:none;vector-effect:non-scaling-stroke;-inkscape-stroke:hairline"
       d="m 93.393086,911.34955 q -2.087173,0 -3.415374,-1.3282 -1.328201,-1.3282 -1.328201,-3.41538 V 808.3191 H 54.875257 q -2.087173,0 -3.415374,-1.3282 -1.328201,-1.51794 -1.328201,-3.41537 v -20.3025 q 0,-2.08718 1.328201,-3.41538 1.328201,-1.3282 3.415374,-1.3282 H 156.95699 q 2.08717,0 3.41537,1.3282 1.3282,1.3282 1.3282,3.41538 v 20.3025 q 0,1.89743 -1.3282,3.41537 -1.3282,1.3282 -3.41537,1.3282 h -33.77425 v 98.28687 q 0,2.08718 -1.32821,3.41538 -1.3282,1.3282 -3.41537,1.3282 z m 90.317504,0 q -2.08717,0 -3.41537,-1.3282 -1.32821,-1.3282 -1.32821,-3.41538 V 783.27303 q 0,-2.08718 1.32821,-3.41538 1.3282,-1.3282 3.41537,-1.3282 h 51.61009 q 24.47685,0 38.51783,11.38458 14.23073,11.19484 14.23073,31.87682 0,13.47176 -6.64101,22.76916 -6.45126,9.29741 -17.07687,14.04099 l 26.18454,46.67677 q 0.56923,1.13846 0.56923,2.08718 0,1.51794 -1.32821,2.84614 -1.13845,1.13846 -2.84614,1.13846 H 261.8847 q -3.60511,0 -5.3128,-1.70769 -1.70769,-1.89743 -2.46666,-3.41537 l -21.6307,-41.74346 h -19.54353 v 42.12294 q 0,2.08718 -1.3282,3.41538 -1.3282,1.3282 -3.41537,1.3282 z m 29.22042,-73.62028 h 22.01019 q 8.91792,0 13.28201,-4.36409 4.55383,-4.36409 4.55383,-11.95381 0,-7.39998 -4.36409,-11.95381 -4.17434,-4.55383 -13.47175,-4.55383 h -22.01019 z m 89.55869,73.62028 q -1.51795,0 -2.84615,-1.13846 -1.13845,-1.3282 -1.13845,-2.84614 0,-0.94872 0.18974,-1.70769 l 44.5896,-121.81501 q 0.56923,-2.08717 2.27692,-3.60511 1.89743,-1.70769 5.12306,-1.70769 h 28.08196 q 3.22563,0 4.93332,1.70769 1.89743,1.51794 2.46666,3.60511 l 44.39986,121.81501 q 0.37949,0.75897 0.37949,1.70769 0,1.51794 -1.3282,2.84614 -1.13846,1.13846 -2.84615,1.13846 h -23.33839 q -2.84614,0 -4.36409,-1.3282 -1.3282,-1.51795 -1.70768,-2.6564 l -7.39998,-19.35379 h -50.66138 l -7.21023,19.35379 q -0.37949,1.13845 -1.70769,2.6564 -1.3282,1.3282 -4.55383,1.3282 z m 44.5896,-50.66138 h 35.2922 l -17.83584,-50.09215 z m 180.61149,62.99467 q -3.03589,0 -4.74358,-1.70768 -1.51794,-1.51795 -2.46666,-2.65641 l -6.45126,-8.53843 q -7.39998,2.46666 -16.88712,2.46666 -17.45636,0 -30.35888,-5.69229 -12.71278,-5.69229 -20.11276,-17.07687 -7.21024,-11.57432 -7.77946,-28.84094 -0.18975,-8.15895 -0.18975,-16.31789 0,-8.15895 0.18975,-16.50765 0.56922,-17.07686 7.9692,-28.65119 7.39998,-11.76406 20.3025,-17.6461 12.90253,-5.88203 29.9794,-5.88203 17.26661,0 30.16913,5.88203 12.90253,5.88204 20.3025,17.6461 7.39998,11.57433 7.96921,28.65119 0.37948,8.3487 0.37948,16.50765 0,8.15894 -0.37948,16.31789 -1.13846,23.52813 -13.6615,36.43066 l 13.85124,19.73327 q 0.18974,0.18974 0.37949,0.75897 0.18974,0.56923 0.18974,1.13846 0.18974,1.51794 -0.94872,2.6564 -1.13845,1.3282 -2.84614,1.3282 z m -30.54862,-37.75885 q 10.05637,0 16.31789,-6.07178 6.45126,-6.07177 6.83075,-19.35378 0.37949,-8.3487 0.37949,-15.74867 0,-7.39998 -0.37949,-15.36919 -0.18974,-8.91792 -3.22563,-14.42046 -3.03589,-5.69229 -8.15895,-8.3487 -5.12306,-2.6564 -11.76406,-2.6564 -6.45127,0 -11.57433,2.6564 -5.12306,2.65641 -8.15895,8.3487 -3.03588,5.50254 -3.22563,14.42046 -0.18974,7.96921 -0.18974,15.36919 0,7.39997 0.18974,15.74867 0.37949,13.28201 6.64101,19.35378 6.45126,6.07178 16.3179,6.07178 z m 136.61495,27.32299 q -17.07687,0 -29.97939,-5.50255 -12.71278,-5.69229 -19.73327,-17.26661 -7.02049,-11.76407 -7.02049,-29.78965 v -77.41514 q 0,-2.08718 1.3282,-3.41538 1.3282,-1.3282 3.41537,-1.3282 h 24.47685 q 2.08717,0 3.41537,1.3282 1.3282,1.3282 1.3282,3.41538 v 77.2254 q 0,12.33329 5.88204,18.59481 6.07177,6.07177 16.88712,6.07177 10.62561,0 16.50765,-6.07177 6.07177,-6.26152 6.07177,-18.59481 v -77.2254 q 0,-2.08718 1.3282,-3.41538 1.51795,-1.3282 3.41538,-1.3282 h 24.66659 q 1.89743,0 3.22563,1.3282 1.51794,1.3282 1.51794,3.41538 v 77.41514 q 0,18.02558 -7.02049,29.78965 -7.02049,11.57432 -19.73327,17.26661 -12.71278,5.50255 -29.9794,5.50255 z m 86.71224,-1.89743 q -2.08718,0 -3.41538,-1.3282 -1.3282,-1.3282 -1.3282,-3.41538 V 783.27303 q 0,-2.08718 1.3282,-3.41538 1.3282,-1.3282 3.41538,-1.3282 h 25.04607 q 1.89743,0 3.22563,1.3282 1.51795,1.3282 1.51795,3.41538 v 99.42533 h 57.30238 q 2.08717,0 3.41538,1.51794 1.51794,1.3282 1.51794,3.41537 v 18.9743 q 0,2.08718 -1.51794,3.41538 -1.32821,1.3282 -3.41538,1.3282 z m 100.94295,0 q -1.51795,0 -2.84615,-1.13846 -1.13846,-1.3282 -1.13846,-2.84614 0,-0.94872 0.18975,-1.70769 l 44.5896,-121.81501 q 0.56923,-2.08717 2.27692,-3.60511 1.89743,-1.70769 5.12306,-1.70769 h 28.08196 q 3.22563,0 4.93332,1.70769 1.89743,1.51794 2.46666,3.60511 l 44.39986,121.81501 q 0.37948,0.75897 0.37948,1.70769 0,1.51794 -1.3282,2.84614 -1.13845,1.13846 -2.84614,1.13846 h -23.33839 q -2.84614,0 -4.36409,-1.3282 -1.3282,-1.51795 -1.70769,-2.6564 l -7.39997,-19.35379 h -50.66138 l -7.21024,19.35379 q -0.37948,1.13845 -1.70768,2.6564 -1.3282,1.3282 -4.55384,1.3282 z m 44.5896,-50.66138 h 35.2922 l -17.83584,-50.09215 z"
       id="text1-0-6"
       aria-label="TRAQULA" /><path
       id="path1"
       style="background:#9c0510;border-radius:5%;fill:#9c0510;stroke:none;stroke-width:1.0888891;stroke-dasharray:none;fill-opacity:1;vector-effect:non-scaling-stroke;-inkscape-stroke:hairline"
       d="M 267.67535 130.01011 C 266.24035 129.97011 264.9284 130.04053 263.74727 130.21853 C 252.02124 131.97693 239.52316 155.92915 235.60417 184.15045 C 233.49431 199.34385 234.52565 222.51738 238.18177 242.13168 C 246.25263 285.42888 269.69805 330.21937 296.18425 352.93467 L 302.9579 358.74279 L 302.97704 368.4641 C 303.03204 398.9015 313.99575 437.0658 330.38855 463.8674 C 335.42433 472.1006 335.65691 472.62615 333.97635 472.01705 C 333.18625 471.73105 329.07522 469.21436 324.84202 466.42586 C 278.31076 435.77566 229.00619 366.16847 217.06116 314.26847 C 213.76303 299.93867 208.97504 297.44384 189.80491 300.05974 C 163.25004 303.68334 134.33901 317.38349 105.95408 339.79569 C 96.221558 347.48029 75.080654 368.41131 66.199004 379.15521 C 38.562074 412.58691 18.173162 453.23438 11.127172 488.94588 C 9.1772316 498.82868 9.642977 502.28922 13.436807 506.08312 C 17.113817 509.76012 20.810433 510.21272 30.648483 508.19072 C 42.654592 505.72302 58.55883 506.21081 69.23173 509.37531 C 83.951659 513.73981 101.11585 524.16248 111.21137 534.86638 C 124.78777 549.26078 134.68589 567.46434 140.02865 587.86254 C 140.91515 591.24704 141.99485 594.67336 142.42761 595.47626 C 144.87586 600.01886 154.05042 604.36222 158.50148 603.08572 C 161.92018 602.10472 165.17797 600.30085 168.88208 597.33715 C 176.93963 590.89045 192.3997 585.16103 206.12335 583.53463 C 221.58057 581.70273 238.05585 584.64644 251.92687 591.72044 C 262.60587 597.16654 267.02244 600.68681 276.46728 611.27791 C 286.73853 622.79571 294.94191 623.07252 301.89028 612.13712 C 305.09113 607.09952 316.44166 594.91055 317.93225 594.91055 C 318.47555 594.91055 319.2436 598.07049 319.83355 602.74119 C 322.75531 625.87429 333.16456 653.80474 346.50921 674.31014 C 377.54701 722.00313 428.27595 751.85144 484.0431 755.23674 C 489.83587 755.58874 495.85218 755.76844 497.41177 755.63444 C 497.75297 755.60444 499.34165 755.52744 500.00001 755.48344 C 500.65831 755.52344 502.24696 755.60444 502.58824 755.63444 C 504.14783 755.76744 510.16413 755.58374 515.95691 755.23674 C 571.72407 751.85144 622.45302 722.00313 653.49081 674.31014 C 666.83544 653.80474 677.24468 625.87439 680.16646 602.74119 C 680.75636 598.07049 681.52447 594.91055 682.06776 594.91055 C 683.55837 594.91055 694.9089 607.09952 698.10973 612.13712 C 705.05811 623.07292 713.26149 622.79611 723.53273 611.27791 C 732.97758 600.68681 737.39415 597.16654 748.07314 591.72044 C 761.94416 584.64644 778.41944 581.70283 793.87666 583.53463 C 807.60031 585.16113 823.06037 590.89045 831.11793 597.33715 C 834.82205 600.30085 838.07984 602.10522 841.49853 603.08572 C 845.9496 604.36222 855.12417 600.01886 857.5724 595.47626 C 858.0052 594.67326 859.08485 591.24704 859.97136 587.86254 C 865.31415 567.46434 875.21224 549.26078 888.78864 534.86638 C 898.88414 524.16248 916.04838 513.73981 930.76828 509.37531 C 941.44128 506.21081 957.34533 505.72302 969.35153 508.19072 C 979.18953 510.21272 982.8862 509.76012 986.5632 506.08312 C 990.357 502.28922 990.82477 498.82868 988.87497 488.94588 C 981.82887 453.23438 961.43791 412.58691 933.80101 379.15521 C 924.91931 368.41131 903.77843 347.48029 894.04593 339.79569 C 865.66095 317.38349 836.74994 303.68334 810.1951 300.05974 C 791.02495 297.44384 786.23696 299.93837 782.93885 314.26847 C 770.99378 366.16847 721.68926 435.77566 675.15799 466.42586 C 670.92478 469.21436 666.8138 471.73065 666.02366 472.01705 C 664.34314 472.62605 664.57573 472.0971 669.61147 463.8674 C 686.00431 437.0658 696.96786 398.9015 697.02297 368.4641 L 697.04211 358.74279 L 703.81576 352.93467 C 730.30196 330.21927 753.74741 285.42888 761.81824 242.13168 C 765.47439 222.51738 766.5057 199.34385 764.39584 184.15045 C 760.47689 155.92915 747.97876 131.97693 736.25274 130.21853 C 735.0716 130.04153 733.7597 129.97211 732.32466 130.01011 C 722.27955 130.27611 706.16738 135.76801 686.1277 145.81601 C 656.55054 160.64591 630.89379 178.13482 617.10873 192.86582 L 612.12791 198.18904 L 607.7915 195.33708 C 587.6833 182.10438 561.14072 171.41815 537.66238 167.10465 C 525.30486 164.83425 512.65286 164.02601 500.00001 164.32501 C 487.34716 164.02601 474.69517 164.83435 462.33764 167.10465 C 438.8593 171.41815 412.31673 182.10438 392.20851 195.33708 L 387.8721 198.18904 L 382.89128 192.86582 C 369.10633 178.13482 343.44946 160.64591 313.87231 145.81601 C 293.83266 135.76801 277.72044 130.27621 267.67535 130.01011 z M 270.90799 153.78064 L 270.90799 153.7849 C 275.36025 154.3839 289.53217 159.87856 301.75204 165.88816 C 326.28636 177.95406 350.11531 193.47253 362.75322 205.61773 L 369.4971 212.10002 L 360.73069 221.01318 C 355.90876 225.91478 348.90917 233.84299 345.17362 238.63319 C 341.438 243.42339 338.15901 247.32357 337.88954 247.30177 C 337.62004 247.28177 334.85139 245.23584 331.7369 242.75694 C 316.46494 230.60174 290.22697 222.52129 268.13047 223.16969 L 258.81324 223.44191 L 258.3007 218.17611 C 256.87167 203.50431 258.03454 186.559 261.35469 173.7103 C 263.34791 165.9965 267.9879 154.85489 269.62982 153.84019 C 269.83512 153.71319 270.27196 153.69964 270.90799 153.78064 z M 729.08989 153.7849 C 729.72599 153.6949 730.16488 153.71445 730.37019 153.84445 C 732.01207 154.85915 736.65209 166.00075 738.64532 173.71455 C 741.96548 186.56315 743.12832 203.50857 741.69931 218.18037 L 741.18677 223.44829 L 731.86954 223.17394 C 709.77303 222.52494 683.53294 230.60599 668.26099 242.76119 C 665.1465 245.24009 662.37786 247.28615 662.10834 247.30815 C 661.83884 247.32815 658.56201 243.42755 654.8264 238.63745 C 651.09087 233.84725 644.08904 225.91903 639.26719 221.01743 L 630.50079 212.10428 L 637.24679 205.62198 C 649.88466 193.47678 673.71154 177.95821 698.24584 165.89241 C 710.46574 159.88281 724.63762 154.38855 729.08989 153.78915 L 729.08989 153.7849 z M 500.00001 187.84459 C 522.18655 187.29859 544.39091 190.76306 563.64046 198.42936 C 596.4386 211.49136 623.04087 232.86868 643.73547 262.79718 C 670.8247 301.97367 680.44924 354.28236 669.42006 402.38556 C 653.72357 470.84476 597.91088 523.3069 529.72965 533.6903 C 522.87219 534.7346 511.11895 535.02765 500.00001 534.76855 C 488.88109 535.02755 477.12782 534.7302 470.27036 533.6903 C 402.08915 523.3069 346.27643 470.84476 330.57995 402.38556 C 319.55079 354.28236 329.1753 301.97367 356.26454 262.79718 C 376.95913 232.86868 403.5593 211.49136 436.35743 198.42936 C 455.60698 190.76306 477.81342 187.29909 500.00001 187.84459 z M 272.24145 246.56167 C 277.22438 246.71667 283.19995 247.2602 287.17539 248.0993 C 303.65701 251.5791 318.37684 259.34899 323.16828 267.10169 L 324.79523 269.73672 L 320.80547 278.59033 C 318.61116 283.46083 314.98869 293.09765 312.75578 300.00444 C 310.52275 306.91124 307.85029 316.36227 306.81793 321.00597 L 304.94002 329.44911 L 300.25057 323.84091 C 285.01484 305.62751 271.7091 279.3909 264.85317 254.0414 C 263.98167 250.819 263.26875 247.81087 263.26875 247.35707 C 263.26875 246.64107 267.25854 246.40667 272.24145 246.56167 z M 727.75856 246.56167 C 732.74142 246.40767 736.72913 246.64107 736.72913 247.35707 C 736.72913 247.81107 736.01847 250.819 735.14684 254.0414 C 728.29091 279.3909 714.98517 305.62761 699.74944 323.84091 L 695.05786 329.44911 L 693.17995 321.00597 C 692.14758 316.36227 689.47724 306.91124 687.24423 300.00444 C 685.01135 293.09765 681.38887 283.46073 679.19454 278.59033 L 675.20478 269.7346 L 676.83173 267.10169 C 681.62319 259.34899 696.343 251.5792 712.82462 248.0993 C 716.8001 247.2603 722.7756 246.71627 727.75856 246.56167 z M 404.95617 312.15236 C 394.38964 312.13679 383.81189 317.03736 380.1563 326.85662 C 376.65867 336.25158 375.23717 345.23163 375.23716 345.23163 A 9.1306239 7.9202694 0 0 0 383.00825 354.17669 A 9.1306239 7.9202694 0 0 0 393.32079 347.43493 C 393.32079 347.43493 394.64456 339.47994 397.53173 331.72472 C 399.04225 327.66733 410.78884 327.66969 412.27639 331.7311 C 415.2413 339.82576 416.54475 348.30264 416.54475 348.30264 A 9.1306239 7.9202694 0 0 0 426.7701 355.14435 A 9.1306239 7.9202694 0 0 0 434.65604 346.2716 C 434.65604 346.2716 433.27771 336.75902 429.67948 326.93531 C 426.07625 317.09799 415.52268 312.16798 404.95617 312.15236 z M 594.63551 312.15236 C 584.06899 312.13679 573.4891 317.03736 569.83351 326.85662 C 566.33589 336.25158 564.91651 345.23163 564.9165 345.23163 A 9.1306239 7.9202694 0 0 0 572.68759 354.17669 A 9.1306239 7.9202694 0 0 0 583.00014 347.43493 C 583.00014 347.43493 584.3239 339.47994 587.21107 331.72472 C 588.72159 327.66733 600.46606 327.66969 601.95361 331.7311 C 604.91852 339.82576 606.22197 348.30264 606.22197 348.30264 A 9.1306239 7.9202694 0 0 0 616.44944 355.14435 A 9.1306239 7.9202694 0 0 0 624.33538 346.2716 C 624.33538 346.2716 622.95705 336.75902 619.35882 326.93531 C 615.75559 317.09799 605.20202 312.16798 594.63551 312.15236 z M 176.58299 326.74178 C 176.96919 326.74178 176.06265 329.3831 174.5711 332.6137 C 159.88781 364.4168 145.88861 436.56959 142.54032 497.68889 C 142.03982 506.82369 141.38049 518.75688 141.07713 524.20718 L 140.5263 534.11564 L 138.50165 531.11907 C 134.66776 525.44547 120.25688 511.23713 112.36832 505.35153 C 92.861592 490.79793 70.364852 483.12614 47.154082 483.11224 C 41.249952 483.10924 36.418318 482.81308 36.418318 482.45508 C 36.418318 481.39488 41.692839 466.1907 44.406339 459.4289 C 64.642759 409.001 109.00214 359.05637 153.99918 336.03987 C 161.69741 332.10207 174.71873 326.74178 176.58299 326.74178 z M 823.41702 326.74178 C 825.28127 326.74178 838.30046 332.10217 845.99871 336.03987 C 890.99573 359.05637 935.35727 409.001 955.59367 459.4289 C 958.30717 466.1907 963.58169 481.39275 963.58169 482.45295 C 963.58169 482.81095 958.75013 483.10624 952.84593 483.11224 C 929.63513 483.12224 907.13839 490.79793 887.63169 505.35153 C 879.74309 511.23713 865.33224 525.44547 861.49836 531.11907 L 859.47371 534.11564 L 858.92075 524.20505 C 858.61735 518.75475 857.96021 506.82369 857.45969 497.68889 C 854.1114 436.56959 840.11012 364.4168 825.42679 332.6137 C 823.93572 329.38415 823.03178 326.74349 823.41702 326.74178 z M 198.99241 335.47629 L 201.23399 341.84374 C 211.2918 370.41404 231.87401 404.98043 256.40365 434.49503 C 266.22859 446.31653 285.32814 465.43474 295.67596 473.80564 C 306.83982 482.83664 321.72572 492.49405 329.39323 495.68125 C 332.45996 496.95595 335.11716 498.10822 335.29705 498.23972 C 335.47715 498.37172 334.49535 500.94289 333.11502 503.95639 C 325.72917 520.08189 318.43315 549.93088 318.37674 564.24938 L 318.36185 568.02221 L 313.29809 570.41054 C 306.93007 573.41544 299.87406 578.73146 293.79592 585.10416 C 291.20224 587.82366 289.01651 590.03277 288.93633 590.01267 C 288.85633 589.99267 286.60365 587.95495 283.93 585.48485 C 273.72363 576.05535 260.18903 568.5427 245.60834 564.2111 C 233.86619 560.7228 225.40482 559.78628 210.20243 560.29578 C 195.91492 560.77478 187.2873 562.55091 175.77058 567.37781 C 166.70374 571.17801 167.1625 571.16449 166.5767 567.63089 C 162.58613 543.56319 164.62143 490.68358 171.37461 443.00198 C 177.65777 398.63848 188.55293 354.98768 197.53559 338.19638 L 198.99241 335.47629 z M 801.0076 335.47629 L 802.46229 338.19851 C 811.44493 354.98981 822.34012 398.63848 828.62327 443.00198 C 835.37646 490.68358 837.41389 543.56329 833.42332 567.63089 C 832.83752 571.16419 833.29636 571.17771 824.22943 567.37781 C 812.71272 562.55091 804.08509 560.77458 789.79758 560.29578 C 774.59518 559.78578 766.13169 560.7224 754.38955 564.2111 C 739.80885 568.5427 726.2764 576.05535 716.07002 585.48485 C 713.3964 587.95495 711.14354 589.99257 711.06368 590.01267 C 710.98368 590.03267 708.79777 587.82366 706.20409 585.10416 C 700.12596 578.73146 693.06991 573.41554 686.70192 570.41054 L 681.63816 568.02221 L 681.62327 564.24938 C 681.56727 549.93088 674.27086 520.08189 666.88499 503.95639 C 665.50472 500.94289 664.5229 498.37132 664.70296 498.23972 C 664.88286 498.10772 667.54008 496.95605 670.60678 495.68125 C 678.2743 492.49405 693.16016 482.83664 704.32405 473.80564 C 714.67186 465.43464 733.7714 446.31663 743.59636 434.49503 C 768.12602 404.98043 788.70823 370.41404 798.76602 341.84374 L 801.0076 335.47629 z M 530.78876 367.99622 A 9.1306113 7.9202583 0 0 0 522.62422 371.54149 C 522.62422 371.54149 518.00704 377.56137 512.06711 383.00035 C 510.39257 384.53366 505.26139 386.35135 499.79371 386.34996 C 494.32604 386.34866 489.21385 384.52663 487.5586 383.0046 C 481.61269 377.53728 476.89302 371.48832 476.89302 371.48832 A 9.1306113 7.9202583 0 0 0 464.22405 369.32756 A 9.1306113 7.9202583 0 0 0 461.73152 380.31854 C 461.73152 380.31854 467.04131 387.22485 474.27288 393.87436 C 481.06872 400.12321 490.60138 402.18994 499.78946 402.19203 C 508.97755 402.19423 518.51255 400.13175 525.32305 393.89562 C 532.62088 387.21327 537.86654 380.26537 537.86654 380.26537 A 9.1306113 7.9202583 0 0 0 535.27405 369.2914 A 9.1306113 7.9202583 0 0 0 530.78876 367.99622 z M 359.97783 502.66759 L 366.51329 508.54163 C 395.78077 534.84873 426.16994 549.53981 465.81272 556.54421 C 472.74313 557.76871 478.29815 558.03622 495.78907 557.99252 C 497.88786 557.98752 498.25973 557.92383 500.00001 557.91383 C 501.74031 557.92383 502.10997 557.98252 504.20882 557.99252 C 521.69973 558.03252 527.25473 557.76881 534.18516 556.54421 C 573.82794 549.53981 604.21924 534.84873 633.48673 508.54163 L 640.02219 502.66759 L 644.13104 510.91294 C 650.44629 523.58394 654.8998 538.53825 657.44015 555.61695 C 658.84921 565.08895 658.85116 588.34477 657.44866 598.14957 C 650.68024 645.31867 623.6426 686.34094 583.2362 710.74753 C 564.69702 721.94563 540.1172 729.99368 518.7961 731.84688 C 514.05905 732.25888 506.96278 732.27332 500.00001 732.07232 C 493.03726 732.27332 485.94095 732.25888 481.20391 731.84688 C 459.88281 729.99368 435.30291 721.94573 416.76381 710.74753 C 376.35736 686.34094 349.3219 645.31877 342.55348 598.14957 C 341.15058 588.34477 341.15053 565.08885 342.55986 555.61695 C 345.10021 538.53835 349.55373 523.58394 355.86897 510.91294 L 359.97783 502.66759 z "
       transform="matrix(0.91836734,0,0,0.91836699,40.816325,32.509892)" /><path
       id="path5"
       style="display:inline;fill:#9c0510;stroke:none;stroke-width:1.0888891;stroke-linejoin:round;stroke-dasharray:none;fill-opacity:1;vector-effect:non-scaling-stroke;-inkscape-stroke:hairline"
       d="m 435.71941,556.78666 c -0.51554,-0.0663 -1.04806,-0.0612 -1.57592,0.0149 -1.05571,0.15228 -2.09008,0.5947 -2.92851,1.35473 l -25.6059,23.21333 c -3.21694,2.91617 -3.10595,8.1735 0.23181,10.95057 l 25.38472,21.1185 c 3.48014,2.89554 9.27045,0.18014 9.27045,-4.34705 v -11.27596 c 0,-0.16653 0.0547,-0.21905 0.22118,-0.21905 h 5.17009 c 2.25287,0 5.89911,0.0501 7.2543,0.31263 2.75132,0.53303 5.33312,1.73278 7.5095,3.49635 1.07133,0.86812 3.45392,3.63129 4.90213,5.35725 l 19.7276,23.5132 c 0.3241,0.38626 0.32413,0.88344 0,1.26967 l -19.72547,23.50469 c -1.44846,1.72597 -3.8328,4.48903 -4.90426,5.35725 -2.17638,1.76356 -4.75818,2.96759 -7.5095,3.50061 -1.35519,0.26255 -5.00142,0.31263 -7.2543,0.31263 h -5.17009 c -0.16653,0 -0.22118,-0.0547 -0.22118,-0.22118 v -11.27596 c 0,-4.5272 -5.79031,-7.24258 -9.27045,-4.34705 l -25.38472,21.1185 c -3.33776,2.77707 -3.44875,8.03653 -0.23181,10.9527 l 25.6059,23.2112 c 1.67685,1.52007 4.14286,1.77477 5.97825,0.96129 1.83538,-0.81347 3.30283,-2.81324 3.30283,-5.07652 v -13.62813 c 0,-0.16653 0.0547,-0.22118 0.22118,-0.22118 h 1.86514 a 3.779908,3.779908 0 0 0 0.004,0 c 2.31382,-0.002 4.62793,0.007 6.94166,0.0276 a 3.779908,3.779908 0 0 0 0.0319,0 h 0.64653 a 3.779908,3.779908 0 0 0 0.35942,-0.0149 c 12.02222,-1.14648 20.09941,-4.81279 26.15248,-10.54224 1.96367,-1.85868 4.20576,-4.6197 5.6082,-6.29089 l 17.67318,-21.05682 17.67317,21.05682 c 1.40246,1.67121 3.64455,4.43223 5.60821,6.29089 6.0531,5.72943 13.80614,9.34723 22.08615,10.30404 2.49166,0.28793 4.8813,0.25308 5.07227,0.25308 h 2.97743 a 3.779908,3.779908 0 0 0 0.0213,0 c 2.02171,-0.0118 4.04372,-0.0126 6.06546,-0.017 v 13.83868 c 0,2.26328 1.46743,4.26305 3.30282,5.07652 1.83539,0.81348 4.3014,0.55879 5.97825,-0.96129 l 25.6059,-23.2112 c 3.21694,-2.91618 3.10594,-8.17562 -0.23181,-10.9527 l -25.38472,-21.1185 c -3.48014,-2.89554 -9.27044,-0.18015 -9.27044,4.34705 v 11.27596 c 0,0.16653 -0.0547,0.22118 -0.22119,0.22118 h -5.16796 c -2.25288,0 -5.90124,-0.05 -7.25643,-0.31263 -2.75132,-0.53302 -5.33311,-1.73704 -7.5095,-3.50061 -1.07146,-0.86821 -3.45581,-3.63128 -4.90426,-5.35725 l -19.72547,-23.50469 c -0.32414,-0.38624 -0.32411,-0.8834 0,-1.26967 l 19.7276,-23.5132 c 1.44818,-1.72594 3.83078,-4.48912 4.90213,-5.35725 2.17644,-1.7636 4.75814,-2.96332 7.5095,-3.49635 1.3552,-0.26254 5.00356,-0.31263 7.25643,-0.31263 h 5.16796 c 0.16653,0 0.22119,0.0525 0.22119,0.21905 v 11.27596 c 0,4.52719 5.79031,7.24259 9.27044,4.34705 l 25.38472,-21.1185 c 3.33775,-2.77707 3.44875,-8.0344 0.23181,-10.95057 l -25.6059,-23.21333 c -1.67685,-1.52007 -4.14286,-1.77689 -5.97825,-0.96341 -1.83539,0.81347 -3.30282,2.81324 -3.30282,5.07652 v 13.63025 c 0,0.16653 -0.0547,0.22119 -0.22119,0.22119 h -1.86514 a 3.779908,3.779908 0 0 0 -0.004,0 c -2.31382,0.002 -4.62793,-0.009 -6.94166,-0.0298 a 3.779908,3.779908 0 0 0 -0.0319,0 h -0.64653 a 3.779908,3.779908 0 0 0 -0.35942,0.0191 c -12.02235,1.14631 -20.09943,4.8128 -26.15247,10.54224 -1.96365,1.85867 -4.20576,4.61756 -5.60821,6.28876 l -17.67317,21.05895 -17.67318,-21.05895 c -1.40245,-1.6712 -3.64454,-4.43008 -5.6082,-6.28876 -6.05306,-5.72944 -13.80615,-9.34732 -22.08616,-10.30404 -2.49167,-0.28791 -4.88152,-0.25734 -5.07227,-0.25734 h -2.97743 a 3.779908,3.779908 0 0 0 -0.0106,0 l -5.86554,0.0191 c -0.1609,4.6e-4 -0.21054,-0.0497 -0.21054,-0.21055 v -13.63025 c 0,-2.26328 -1.46745,-4.26304 -3.30283,-5.07652 -0.45884,-0.20337 -0.95829,-0.33987 -1.47382,-0.40621 z"
       transform="matrix(0.91836734,0,0,0.91836699,40.816325,32.509892)" /></g></svg>
