<svg class="brand-logo" fill="none" height="52" viewBox="0 0 242 52" width="242" xmlns="http://www.w3.org/2000/svg" xmlns:xlink="http://www.w3.org/1999/xlink"><clipPath id="a"><path d="m0 0h242v52h-242z"></path></clipPath><g clip-path="url(#a)"><g fill="#fff"><path d="m112.681 16.1933c-2.355-.9194-4.87-1.3513-7.396-1.2699-6.8452 0-9.5905 4.4118-9.5905 8.8245 0 4.1473 2.8924 6.0853 6.3695 6.0853.918-.0071 1.83-.1422 2.71-.4016l1.135-4.6131h-4.066l.988-4.4127h10.728l-3.041 13.0029c-2.918.6717-5.901 1.0202-8.895 1.0395-8.2371 0-12.96-4.4487-12.96-10.8666 0-7.7558 5.0878-13.2713 16.95-13.2713 2.879.0276 5.743.4093 8.53 1.1368z"></path><path d="m119.453 10.7119h17.975l-.99 4.4118h-11.237l-1.172 4.8134h10.654l-1.063 4.4137h-10.615l-1.246 5.2801h11.678l-.988 4.4157h-18.487z"></path><path d="m140.355 10.7119h8.53l5.237 16.1798h.072l3.586-16.1798h6.446l-5.42 23.3347h-8.494l-5.344-16.1457h-.071l-3.554 16.1457h-6.441z"></path><path d="m167.593 10.7119h17.975l-.989 4.4118h-11.238l-1.173 4.8134h10.653l-1.061 4.4137h-10.616l-1.245 5.2801h11.678l-.987 4.4157h-18.489z"></path><path d="m203.907 15.994c-1.784-.7452-3.704-1.1095-5.636-1.0696-2.711 0-4.907.3675-4.907 2.2365 0 3.3062 9.921 2.0712 9.921 9.16 0 6.4489-6.553 8.1234-12.487 8.1234-2.676-.0591-5.334-.464-7.907-1.2048l1.61-4.7482c1.97.9164 4.121 1.3738 6.292 1.338 2.123 0 5.454-.3676 5.454-2.7733 0-3.7466-9.921-2.3425-9.921-8.9256 0-6.0182 5.784-7.8239 11.388-7.8239 3.147 0 6.111.2995 7.83 1.0356z"></path><path d="m209.727 10.7119h6.884l-5.308 23.3347h-6.883z"></path><path d="m235.757 15.994c-1.785-.7451-3.705-1.1094-5.637-1.0696-2.711 0-4.906.3675-4.906 2.2365 0 3.3062 9.921 2.0712 9.921 9.16 0 6.4489-6.554 8.1234-12.487 8.1234-2.676-.059-5.334-.464-7.907-1.2048l1.609-4.7482c1.972.917 4.124 1.3744 6.297 1.338 2.123 0 5.456-.3676 5.456-2.7733 0-3.7466-9.923-2.3425-9.923-8.9256 0-6.0182 5.786-7.8239 11.388-7.8239 3.147 0 6.114.2995 7.832 1.0356z"></path><path d="m238.771 35.1561c-.639-.0004-1.262-.1909-1.793-.5474-.53-.3566-.944-.8632-1.188-1.4557-.244-.5926-.307-1.2445-.182-1.8733s.432-1.2062.884-1.6594c.452-.4531 1.027-.7615 1.653-.8862s1.275-.0602 1.865.1856c.589.2457 1.093.6615 1.447 1.1949s.543 1.1603.543 1.8015c-.001.8596-.342 1.6837-.947 2.2913-.606.6075-1.426.9487-2.282.9487zm0-6.1349c-.57.0004-1.126.1704-1.599.4884-.474.318-.843.7698-1.06 1.2984-.218.5285-.275 1.11-.164 1.671s.386 1.0762.788 1.4807c.403.4045.916.6799 1.474.7916.559.1117 1.138.0546 1.664-.1641s.976-.5892 1.292-1.0647c.317-.4754.486-1.0344.486-1.6064 0-.7676-.304-1.5036-.844-2.0464s-1.273-.8479-2.037-.8485z"></path><path d="m237.378 33.7043v-3.5735h1.581c.243-.0104.487.0226.719.0972.167.0638.307.1837.396.3394.097.162.148.3482.147.5377.006.2383-.081.4696-.243.6437-.209.1921-.476.3079-.758.3287.102.0454.198.105.284.177.148.1419.278.3016.387.4755l.614.9724h-.587l-.469-.7439c-.14-.2149-.251-.3783-.339-.492-.067-.0922-.148-.1727-.241-.2383-.065-.0431-.138-.0759-.213-.0972-.087-.0143-.176-.0201-.264-.0175h-.548v1.5898zm.471-1.9963h1.012c.172.0069.343-.0165.507-.0691.113-.038.21-.1125.277-.2119.062-.0958.096-.2075.097-.3219.001-.0786-.014-.1567-.046-.2285s-.08-.1356-.139-.1867c-.168-.1226-.374-.1802-.581-.1624h-1.128z"></path><path d="m52.6263 32.4985-8.9918 8.7788-15.7377-15.7528-27.8968.0058 16.7851 16.5201h26.1486l-2.7423 2.7285 26.8852.0049 12.161-12.2853z"></path><path clip-rule="evenodd" d="m74.5195 12.7657-29.4843-.1683-3.4102-3.52881-13.8424 14.16101h-27.00724l14.82584-15.04492 25.2755.00681-8.681-8.19149h32.912z" fill-rule="evenodd"></path><path d="m92.2998 44.8927v6.9546h-1.2168v-6.9546h-2.24v-1.0482h5.6967v1.0482z"></path><path d="m98.584 51.8473v-2.8724c0-.6516-.3243-1.0172-.9118-1.0172-.1568-.0217-.3164-.0092-.4678.0369-.1515.046-.2912.1244-.4097.2298-.1184.1054-.2128.2353-.2765.3808-.0638.1455-.0954.3031-.0928.462v2.7801h-1.0445v-8.0038h1.0542v3.7272c.4279-.3873.9854-.5984 1.5613-.5912.2244-.0198.4503.0107.6615.0892.2112.0786.4024.2032.5598.365.1575.1617.2772.3566.3506.5705.0733.2139.0985.4414.0737.6663v3.1758z"></path><path d="m101.798 49.6789c-.002.2071.04.4122.124.6018.083.1895.205.3592.358.4977.153.1386.334.243.53.3062.197.0632.404.0839.609.0607.27-.0089.535-.0764.777-.1977.242-.1214.455-.2938.624-.5054l.581.7332c-.271.2826-.6.5027-.964.6451-.364.1423-.755.2036-1.145.1795-.336.0317-.675-.0106-.993-.124-.319-.1133-.608-.2951-.85-.5325-.241-.2375-.428-.5249-.547-.8422-.12-.3174-.169-.6571-.144-.9955-.02-.3322.029-.665.145-.977.115-.312.294-.5965.525-.8351.231-.2387.509-.4263.816-.551.307-.1246.637-.1835.968-.1729.315-.0123.63.0432.922.1628s.556.3005.772.5307c.217.2302.383.5043.486.8039.103.2997.141.618.111.9336v.2742zm1.379-1.833c-.311-.0179-.619.0772-.866.268-.248.1908-.419.4646-.482.7715h2.554c-.01-.1482-.049-.293-.115-.4259-.067-.1328-.159-.2511-.271-.3478-.112-.0968-.242-.1701-.383-.2157-.141-.0457-.289-.0627-.437-.0501z"></path><path d="m111.529 48.7006h-1.408v3.1467h-1.221v-8.0028h2.494c1.774 0 2.818.8343 2.818 2.3931.005.3452-.063.6876-.2 1.0044-.137.3169-.338.601-.592.8338s-.554.409-.881.5168c-.326.1079-.672.145-1.014.109m-.131-3.8079h-1.277v2.7801h1.084c1.034 0 1.815-.3462 1.815-1.4051 0-.5912-.133-1.375-1.621-1.375"></path><path d="m118.128 48.3953c-.209-.1834-.473-.2913-.75-.3063-.14.002-.278.0324-.407.0894-.128.0569-.243.1393-.339.242-.095.1028-.169.2239-.217.3561s-.069.2728-.061.4133v2.6575h-1.055v-4.7647h1.055v.6806l.244-.2654c.13-.1462.289-.2633.467-.3439s.371-.1228.566-.1238c.375.0014.737.1345 1.024.3763z"></path><path d="m121.381 51.9698c-.491-.0151-.966-.1752-1.367-.4603-.401-.2852-.71-.6827-.887-1.143-.177-.4602-.216-.9627-.11-1.4447.105-.4821.349-.9222.702-1.2654.353-.3433.799-.5744 1.282-.6646.483-.0901.982-.0353 1.434.1577.452.1929.838.5155 1.109.9273.27.4118.414.8946.413 1.3881.017.3406-.038.681-.163.9982s-.315.604-.559.8412-.536.4193-.855.5341c-.32.1148-.66.1596-.999.1314zm0-4.1443c-.328-.0258-.657.0484-.942.2131-.286.1646-.516.412-.659.7098-.144.2978-.195.6322-.146.9595.048.3274.194.6324.417.8753.224.2429.516.4123.837.4863.321.0739.657.0489.963-.0719.307-.1208.57-.3316.756-.605.185-.2735.285-.5967.284-.9277.019-.2095-.007-.4207-.074-.6197-.068-.1991-.177-.3818-.319-.5362s-.315-.2772-.507-.3605c-.193-.0833-.4-.1252-.61-.123z"></path><path d="m131.347 51.8473v-2.9629c.006-.1312-.017-.2622-.067-.3836s-.126-.2302-.223-.3187c-.096-.0885-.211-.1545-.336-.1933-.125-.0387-.257-.0494-.387-.0311-.148-.0094-.296.0133-.434.0665-.139.0533-.264.1359-.368.2421-.104.1063-.184.2338-.234.3738-.051.1401-.071.2894-.058.4378v2.7694h-.985v-2.8724c0-.6515-.29-1.0172-.901-1.0172-.159-.0193-.321-.0021-.473.0502s-.29.1385-.404.252c-.114.1136-.201.2515-.255.4036-.053.1521-.072.3144-.054.4747v2.7091h-1.054v-4.7647h1.054v.5397c.205-.2083.45-.3726.721-.4829.27-.1103.56-.1644.851-.1589.266-.0213.533.0334.77.1578.236.1243.433.3134.567.5452.205-.2293.457-.4109.739-.5323.282-.1215.586-.1797.893-.1707.228-.0249.458.0017.674.0777.216.0761.412.1997.574.3618.162.1622.286.3587.363.5752.077.2166.105.4476.081.6763v3.1758z"></path><path d="m134.053 44.7702h1.056v1.1922h-1.056zm0 2.3114h1.056v4.7647h-1.056z"></path><path d="m138.149 52c-.625-.0115-1.238-.1785-1.784-.4862l.375-.8859c.421.2814.905.4528 1.409.4989.353 0 .8-.0613.8-.4989 0-.4375-.435-.6213-.79-.7438l-.484-.1731c-.325-.0608-.619-.2333-.831-.488-.212-.2546-.329-.5755-.331-.9074 0-.8343.74-1.3838 1.692-1.3838.603-.029 1.199.1344 1.703.4668l-.497.7536c-.346-.2355-.757-.3562-1.175-.3452-.466 0-.701.1945-.701.4473 0 .389.265.4784.67.6321l.484.1818c.608.2344 1.297.5903 1.297 1.4771 0 .9782-.73 1.4586-1.834 1.4586"></path><path d="m141.767 49.6789c-.002.2074.04.413.123.6029.083.19.206.3601.359.499s.334.2435.531.3068c.197.0634.405.084.61.0606.27-.0091.534-.0766.776-.1979.241-.1214.454-.2937.623-.5052l.58.7332c-.271.2826-.6.5027-.964.6451-.364.1423-.754.2036-1.144.1795-.336.0317-.675-.0106-.994-.1239-.318-.1134-.608-.2952-.849-.5326s-.428-.5249-.547-.8422c-.12-.3174-.169-.6571-.144-.9955-.021-.3323.028-.6653.143-.9777.114-.3124.293-.5973.523-.8365.231-.2392.509-.4275.816-.5528.307-.1252.637-.1848.968-.1748.315-.0124.629.0431.922.1627.292.1196.555.3006.772.5308s.382.5043.485.804c.103.2996.141.6179.111.9335v.2742zm1.379-1.833c-.312-.0181-.619.077-.866.2678-.248.1909-.419.4648-.482.7717h2.554c-.01-.1483-.049-.293-.116-.4259-.066-.1328-.158-.2511-.27-.3478-.112-.0968-.243-.1701-.383-.2158-.141-.0456-.29-.0626-.437-.05z"></path><path d="m150.759 51.9698c-.491-.0147-.967-.1745-1.368-.4594-.401-.285-.71-.6824-.888-1.1426-.177-.4602-.216-.9628-.111-1.4449.105-.4822.35-.9225.703-1.2659.353-.3435.798-.5748 1.282-.6651.483-.0903.981-.0356 1.434.1573.452.1929.838.5155 1.108.9274.271.4118.415.8948.414 1.3883.017.3404-.039.6805-.163.9975-.125.317-.315.6037-.559.8408s-.535.4192-.854.5342c-.32.115-.66.1601-.998.1324zm0-4.1443c-.328-.0258-.657.0484-.942.2131-.286.1646-.516.412-.66.7098-.143.2978-.194.6322-.146.9595.049.3274.195.6324.418.8753.224.2429.515.4123.837.4863.321.0739.656.0489.963-.0719s.57-.3316.756-.605c.185-.2735.284-.5967.284-.9277.019-.2095-.007-.4207-.075-.6198-.067-.199-.176-.3817-.318-.5361s-.315-.2772-.507-.3605c-.193-.0833-.4-.1252-.61-.123z"></path><path d="m155.634 48.1337v3.7175h-1.054v-3.7175h-.79v-.9169h.79v-1.6531c0-1.1912.497-1.762 1.54-1.762.147-.0063.293.0071.437.0399v.8965s-.581-.0301-.7.0817c-.162.1429-.222.3471-.222.8149v1.5772h.962v.9218z"></path><path d="m162.373 48.7006h-1.408v3.1467h-1.216v-8.0028h2.493c1.775 0 2.817.8343 2.817 2.3931.005.3452-.063.6875-.199 1.0044-.137.3168-.339.601-.593.8338-.253.2328-.553.409-.88.5168-.326.1079-.672.1441-1.014.108zm-.131-3.8069h-1.277v2.7801h1.085c1.034 0 1.814-.3462 1.814-1.4051 0-.5912-.132-1.375-1.622-1.375z"></path><path d="m166.256 49.6789c-.001.2071.041.4123.124.6018s.206.3592.359.4977c.153.1386.334.243.53.3062.197.0632.404.0839.609.0606.27-.009.535-.0764.776-.1978.242-.1213.454-.2937.623-.5052l.581.7332c-.271.2826-.6.5027-.964.645-.364.1424-.755.2037-1.144.1796-.337.0317-.676-.0106-.994-.124s-.608-.2951-.85-.5325c-.241-.2375-.428-.5249-.547-.8423s-.168-.6571-.144-.9954c-.02-.3322.03-.665.145-.977.115-.3121.294-.5965.525-.8351.231-.2387.509-.4264.816-.551.307-.1247.637-.1835.968-.1729.316-.0124.63.0431.922.1627s.555.3006.772.5308.383.5043.485.804c.103.2996.141.6179.112.9335v.2742zm1.379-1.833c-.311-.0182-.619.0769-.866.2677-.248.1909-.419.4648-.482.7718h2.554c-.01-.1482-.049-.2929-.115-.4257-.067-.1328-.159-.251-.271-.3477-.112-.0968-.242-.1701-.383-.2158s-.289-.0628-.437-.0503z"></path><path d="m173.94 48.3953c-.209-.1832-.473-.2911-.749-.3063-.14.0019-.279.0322-.407.0891s-.243.1392-.339.2421c-.096.1028-.17.2239-.217.3562-.048.1322-.069.2728-.061.4134v2.6575h-1.055v-4.7647h1.055v.6806l.243-.2654c.13-.1462.289-.2633.467-.3438.178-.0806.371-.1228.566-.1239.375.0013.737.1345 1.024.3763z"></path><path d="m176.639 48.1337v3.7175h-1.054v-3.7175h-.791v-.9169h.791v-1.6531c0-1.1912.496-1.762 1.54-1.762.146-.0063.293.0071.436.0399v.8965s-.581-.0301-.7.0817c-.161.1429-.221.3471-.221.8149v1.5772h.962v.9218z"></path><path d="m180.65 51.9698c-.491-.0149-.967-.1748-1.368-.4599-.401-.285-.71-.6825-.887-1.1427s-.216-.9628-.111-1.4449c.106-.4821.35-.9223.703-1.2656.353-.3434.799-.5746 1.282-.6649.483-.0902.982-.0354 1.434.1575.452.193.837.5155 1.108.9274.271.4118.415.8947.414 1.3882.017.3405-.039.6808-.163.9979-.125.3172-.315.604-.559.8411-.244.2372-.535.4193-.855.5342-.319.1148-.66.1597-.998.1317zm0-4.1443c-.328-.0254-.657.0492-.942.2141-.286.1649-.515.4125-.658.7103-.144.2979-.194.6323-.146.9595.049.3272.195.632.419.8747s.515.412.836.4857c.321.0738.657.0486.964-.0723.306-.1208.569-.3317.755-.6051.185-.2734.284-.5966.284-.9275.019-.2097-.007-.421-.075-.6202s-.176-.382-.319-.5364c-.142-.1545-.315-.2773-.508-.3604-.193-.0832-.4-.1249-.61-.1224z"></path><path d="m187.221 48.3953c-.209-.1832-.473-.2911-.749-.3063-.14.0019-.279.0322-.407.0891s-.243.1392-.339.2421c-.096.1028-.17.2239-.217.3562-.048.1322-.069.2728-.061.4134v2.6575h-1.055v-4.7647h1.055v.6806l.242-.2654c.131-.1462.29-.2634.468-.344s.371-.1227.566-.1237c.375.0013.737.1345 1.023.3763z"></path><path d="m194.702 51.8473v-2.9629c.006-.1312-.017-.2622-.067-.3836s-.126-.2302-.223-.3187-.212-.1545-.336-.1933c-.125-.0388-.257-.0494-.387-.0311-.148-.0094-.296.0133-.435.0665-.138.0533-.264.1358-.368.2421-.104.1062-.184.2337-.234.3738-.051.14-.071.2893-.059.4378v2.7694h-.982v-2.8724c0-.6516-.291-1.0172-.902-1.0172-.16-.0193-.322-.0022-.473.0502-.152.0523-.29.1385-.404.252-.115.1135-.202.2515-.255.4036s-.072.3144-.054.4747v2.7091h-1.053v-4.7647h1.054v.5396c.205-.2083.45-.3726.72-.4829s.559-.1644.851-.1588c.266-.0212.533.0336.77.1579.236.1244.433.3133.568.5451.204-.2294.456-.4111.738-.5325.282-.1215.587-.1797.894-.1705.227-.0251.457.0014.674.0774.216.076.412.1996.574.3617.163.1622.287.3587.364.5754.077.2166.104.4477.081.6765v3.1758z"></path><path d="m200.125 51.8483v-.3987c-.476.3201-1.029.5067-1.601.5407-.211.0194-.424-.0052-.626-.0723-.201-.0672-.387-.1754-.545-.3179s-.285-.3162-.373-.5102c-.088-.1941-.135-.4043-.138-.6175 0-1.0074 1.004-1.7406 2.371-1.7406.306.0013.611.0253.912.0719v-.0923c0-.6107-.396-.8353-1.134-.8353-.453.0013-.894.1396-1.267.3967l-.395-.8557c.591-.2939 1.245-.4407 1.905-.4279 1.126 0 1.946.4279 1.946 1.5481v3.3061zm0-2.3114c-.242-.033-.486-.0467-.73-.0408-.709 0-1.489.2645-1.489.845 0 .4366.343.7225.881.7225.475-.002.94-.1436 1.337-.4074z"></path><path d="m206.046 51.8473v-2.8724c0-.7332-.388-1.0172-.954-1.0172-.154-.0178-.311-.0018-.459.047-.147.0488-.283.1292-.397.2357-.113.1065-.203.2366-.262.3812-.058.1446-.085.3003-.078.4563v2.7694h-1.055v-4.7647h1.055v.5299c.198-.2017.435-.3615.696-.47.261-.1086.541-.1636.823-.162.227-.0244.457.0026.672.0789.216.0764.411.2002.572.3624.162.1621.285.3585.361.5748.076.2162.103.4468.079.6749v3.1758z"></path><path d="m210.734 51.9805c-.335.0237-.671-.0242-.985-.1404-.315-.1163-.601-.2983-.841-.534-.24-.2358-.427-.5198-.549-.8335s-.176-.6499-.16-.9863c-.024-.3379.026-.6771.146-.9936.121-.3164.309-.6024.552-.8376.243-.2351.534-.4138.853-.5234.32-.1095.659-.1472.994-.1104.395-.0192.788.0612 1.144.234.356.1727.663.4323.894.7549l-.791.6622c-.16-.2124-.367-.3852-.604-.5052s-.498-.184-.764-.1871c-.194-.0009-.387.0395-.565.1186s-.337.1951-.467.3403c-.13.1453-.228.3165-.288.5026-.06.186-.079.3826-.058.5768-.009.1974.023.3945.094.579.07.1845.178.3525.315.4937.138.1411.303.2525.485.327.182.0746.378.1109.574.1066.288-.0059.571-.0778.828-.21.256-.1323.479-.3215.651-.5534l.66.7332c-.254.3177-.577.5721-.944.7435-.368.1714-.769.2551-1.174.2445"></path><path d="m214.499 49.6789c-.001.2072.041.4124.124.602s.205.3593.359.4979c.153.1386.334.2429.53.3061.197.0632.405.0837.609.0603.27-.009.535-.0764.776-.1978.242-.1213.454-.2937.623-.5052l.581.7332c-.271.2825-.6.5025-.964.6448-.364.1424-.754.2037-1.144.1798-.336.0316-.675-.0109-.994-.1243-.318-.1135-.608-.2952-.849-.5326-.241-.2375-.428-.5248-.547-.8421s-.168-.6569-.144-.9952c-.019-.3322.03-.665.145-.977.115-.3121.294-.5965.525-.8351.231-.2387.509-.4264.816-.551.307-.1247.637-.1835.968-.1729.316-.0124.63.0431.922.1627s.556.3006.773.5308c.216.2302.382.5043.485.804.102.2996.14.6179.111.9335v.2742zm1.38-1.833c-.312-.0182-.62.0769-.867.2677-.248.1909-.419.4648-.482.7718h2.555c-.01-.1482-.05-.2929-.116-.4257-.067-.1328-.159-.251-.271-.3477-.112-.0968-.242-.1701-.383-.2158s-.289-.0628-.436-.0503z"></path></g><path d="m220.521 50.6056h-1.236v1.2427h1.236z" fill="#fff"></path></g></svg>
