<?xml version="1.0" encoding="UTF-8"?>
<svg xmlns="http://www.w3.org/2000/svg" viewBox="0 0 660 128" ><g class="css-0"><g class="css-0"><path style="fill:#51DF92" class="st0 css-0" d="M73.8,95l-61.2,0c2.4,4.1,5.3,7.7,8.5,11l59.1,0L73.8,95z"></path><path style="fill:#51DF92" class="st0 css-0" d="M63.4,77l-58,0c0.8,3.7,2,7.4,3.6,11l60.8,0L63.4,77z"></path><path style="fill:#FF6105" class="st1 css-0" d="M59.4,70L28.1,15.9c-3.1,2.3-5.9,4.8-8.4,7.5L46.7,70H59.4z"></path><path style="fill:#FF6105" class="st1 css-0" d="M38.6,70L15.1,29.3c-2.5,3.5-4.6,7.2-6.3,11.2L25.9,70H38.6z"></path><path style="fill:#FF6105" class="st1 css-0" d="M17.8,70l-12-20.7C4.1,56,3.6,63,4.3,70H17.8z"></path><path style="fill:#51DF92" class="st0 css-0" d="M29.4,113c0.1,0.1,0.3,0.2,0.4,0.3c0.6,0.4,1.2,0.8,1.9,1.2c0.2,0.1,0.4,0.3,0.6,0.4c6.3,3.9,13.3,6.6,20.5,8    v0c3.6,0.7,7.4,1.1,11.2,1.1c4.7,0,9.2-0.5,13.6-1.6c0.6-0.1,1.2-0.3,1.9-0.5c0.2-0.1,0.4-0.1,0.7-0.2c0.7-0.2,1.5-0.4,2.2-0.6    c0.1,0,0.2-0.1,0.4-0.1c0.8-0.3,1.6-0.5,2.4-0.8c0,0,0.1,0,0.1-0.1c0.9-0.3,1.7-0.7,2.6-1.1l-3.5-6.1H29.4z"></path><g class="css-0"><path style="fill:#FFFFFF" class="st2 css-0" d="M144,41.8h20c8.3,0,14.8,4.7,14.8,13.2c0,8.4-6.5,13.3-14.8,13.3h-10.7v17.2H144V41.8z M153.3,48.7v12.8h8.8     c4.5,0,7.4-2.1,7.4-6.4c0-4.2-3-6.4-7.4-6.4H153.3z"></path><path style="fill:#FFFFFF" class="st2 css-0" d="M182.3,53.7h8.5v4.8h0.6c1.3-3.5,4-5.8,10.4-5.1v7.4c-6.2-0.9-10.7,0.8-10.7,8.4v16.1h-8.9V53.7z"></path><path style="fill:#FFFFFF" class="st2 css-0" d="M219.8,53c9.7,0,15.3,5.7,15.3,15.4v3.3h-22.9c0.1,4.8,2.7,8.1,7.5,8.1c4.7,0,6.5-2.6,7-4.6h7.8v0.9     c-0.9,4.4-4.8,10-14.6,10c-9.8,0-16.2-5.5-16.2-16.6S210.1,53,219.8,53z M226.8,66.1c-0.1-4-2.2-6.9-7.1-6.9     c-4.7,0-7,3.1-7.4,6.9H226.8z"></path><path style="fill:#FFFFFF" class="st2 css-0" d="M254.7,53c9.2,0,14.2,5.3,14.7,11.2v0.9H261c-0.3-2.9-2-5.6-6.2-5.6c-4.8,0-7.6,3.7-7.6,10.1     s2.9,10.1,7.6,10.1c4.5,0,6-3,6.4-6.1h8.3v0.9c-0.7,6.4-5.6,11.6-14.9,11.6c-9.7,0-16.5-5.7-16.5-16.6     C238.2,58.7,245,53,254.7,53z"></path><path style="fill:#FFFFFF" class="st2 css-0" d="M273.7,41.8h9v7.5h-9V41.8z M273.8,53.7h8.9v31.7h-8.9V53.7z"></path><path style="fill:#FFFFFF" class="st2 css-0" d="M301.3,53.1c8.6,0,13.7,3.8,14.4,9.2v0.9h-8.1c-0.3-3-2.6-4.2-6.1-4.2c-3.4,0-5.5,1.3-5.5,3.4     c0,2.1,1.8,2.9,4.1,3.3l5.9,1c6.4,1,10.8,3.4,10.8,9.3c0,6.1-4.8,10.2-14.3,10.2S287.8,82,287,76.5v-0.9h8.3     c0.3,3.3,3.4,4.7,7.2,4.7c3.9,0,6-1.3,6-3.6c0-2.1-1.8-2.9-4.6-3.3l-6-1c-6.1-1-10.3-4-10.3-9.6     C287.6,56.9,292.7,53.1,301.3,53.1z"></path><path style="fill:#FFFFFF" class="st2 css-0" d="M321,41.8h9v7.5h-9V41.8z M321,53.7h8.9v31.7H321V53.7z"></path><path style="fill:#FFFFFF" class="st2 css-0" d="M351.4,53c9.8,0,17,5.6,17,16.6c0,10.9-7.2,16.6-17,16.6s-17-5.6-17-16.6C334.4,58.6,341.6,53,351.4,53z      M351.4,79.7c4.9,0,8-3.5,8-10.1s-3.1-10.1-8-10.1c-4.8,0-8,3.5-8,10.1S346.5,79.7,351.4,79.7z"></path><path style="fill:#FFFFFF" class="st2 css-0" d="M372.9,53.7h8.5v3.7h0.6c1.1-1.7,3.6-4.3,9.5-4.3c7.2,0,11.7,4,11.7,11.5v20.8h-8.9V65.1     c0-3.6-2.1-5.4-5.4-5.4c-3.8,0-7.1,2.1-7.1,7.5v18.3h-8.9V53.7z"></path></g><g class="css-0"><path style="fill:#FFFFFF" class="st2 css-0" d="M425.4,41.8h18.9c7.8,0,13.9,4.4,13.9,12.5c0,8-6.2,12.5-13.9,12.5h-13.3v18.7h-5.5V41.8z M430.9,46.2v16.2     h12.3c5.6,0,9.4-2.9,9.4-8.1c0-5.2-3.8-8.1-9.4-8.1H430.9z"></path><path style="fill:#FFFFFF" class="st2 css-0" d="M463.6,41.8h5.3v43.7h-5.3V41.8z"></path><path style="fill:#FFFFFF" class="st2 css-0" d="M476.6,63.4v-0.9c0.6-5.4,5.6-8.7,13-8.7s12.3,3.3,12.3,11v14.3c0,1.6,0.8,2.4,2.3,2.4h1.7v3.9h-2.6     c-3.7,0-5.5-1.9-5.7-4.8h-0.6c-1.6,3-4.6,5.5-10.8,5.5c-6.6,0-11.3-3.7-11.3-9.3c0-6.1,4.7-8.6,10.7-9.2l7.2-0.7     c2.5-0.2,3.9-0.9,3.9-3.3c0-3.9-2.6-5.9-7.3-5.9c-4.7,0-7.8,1.9-8,5.7H476.6z M487.2,82.1c4.9,0,9.7-2.9,9.7-10.3v-2.1h-0.6     c-0.9,0.6-1.9,0.9-4.6,1.2l-4.7,0.5c-4.2,0.5-6.7,1.9-6.7,5.3C480.3,79.9,483.1,82.1,487.2,82.1z"></path><path style="fill:#FFFFFF" class="st2 css-0" d="M511,54.5h5.2v4.4h0.6c1-2,3.6-5.1,10-5.1c6.8,0,11.3,3.7,11.3,10.8v20.8h-5.3V65c0-4.9-2.9-7-7.2-7     c-4.9,0-9.2,3.2-9.2,9.6v17.8H511V54.5z"></path><path style="fill:#FFFFFF" class="st2 css-0" d="M542.4,54.5h6.2V46h5.3v8.5h7.1v3.9h-7.1v20.2c0,1.7,0.8,2.7,2.7,2.7h4.2v4.1h-5.2c-4.5,0-7.1-2.2-7.1-6.7     V58.4h-6.2V54.5z"></path><path style="fill:#FFFFFF" class="st2 css-0" d="M566.3,42.6h5.5v6.4h-5.5V42.6z M566.4,54.5h5.3v30.9h-5.3V54.5z"></path><path style="fill:#FFFFFF" class="st2 css-0" d="M579.7,54.5h5.2v4.4h0.6c1-2,3.6-5.1,10-5.1c6.8,0,11.3,3.7,11.3,10.8v20.8h-5.3V65c0-4.9-2.9-7-7.2-7     c-4.9,0-9.2,3.2-9.2,9.6v17.8h-5.3V54.5z"></path><path style="fill:#FFFFFF" class="st2 css-0" d="M627,53.8c5.7,0,8.6,2.6,10,4.8h0.6v-4.1h5.2v29.7c0,8.9-4.7,14.1-14.5,14.1c-9.6,0-14.1-4.9-14.6-10.1v-0.9     h4.9c0.3,3.6,3,6.9,9.6,6.9c6.6,0,9.3-3.4,9.3-9.8v-3.9h-0.6c-1.5,2.2-4.4,4.6-9.9,4.6c-8,0-14.1-5.2-14.1-15.6     S619,53.8,627,53.8z M627.9,81c5.8,0,9.7-4.1,9.7-11.5c0-7.4-3.9-11.5-9.7-11.5c-5.8,0-9.7,4.1-9.7,11.5     C618.2,76.9,622.1,81,627.9,81z"></path></g><path style="fill:#0C9F50" class="st3 css-0" d="M118.7,39.3c-4.7,6.4-12.4,14.5-14.9,20.5C97.5,74.9,94.3,90,94.3,90l-1.4-3.5c0,0-16-30.6-17.3-41.5    c-1.4-12.4-41-18-14.7-17.6c17.8,0.3,26,22,29.7,39.2c-2.1-20.5-4.1-46.6,0.3-40.8c6.2,8.1,1.7,17.5,5,32c0.6,2.5,0.8,5.3,0.9,7.9    c2.6-14.5,7.4-31.4,16.6-35.5C96,4.5,61.4-3.8,34,12L94,116C121,100.4,131.3,67.1,118.7,39.3z"></path></g><g class="css-0"><path style="fill:#FFFFFF" class="st2 css-0" d="M655,52.9c0,0.7-0.1,1.3-0.4,1.8c-0.2,0.6-0.6,1-1,1.4c-0.4,0.4-0.9,0.7-1.4,0.9c-0.5,0.2-1.1,0.3-1.7,0.3    c-0.6,0-1.2-0.1-1.8-0.3c-0.5-0.2-1-0.5-1.4-0.9c-0.4-0.4-0.7-0.9-0.9-1.4c-0.2-0.5-0.3-1.1-0.3-1.8c0-0.7,0.1-1.3,0.4-1.8    s0.6-1,1-1.4s0.9-0.7,1.4-0.9s1.1-0.3,1.7-0.3c0.6,0,1.1,0.1,1.7,0.3c0.5,0.2,1,0.5,1.4,0.9c0.4,0.4,0.7,0.9,1,1.4    C654.9,51.6,655,52.2,655,52.9z M654.1,52.9c0-0.5-0.1-1-0.3-1.5c-0.2-0.5-0.4-0.8-0.7-1.2c-0.3-0.3-0.7-0.6-1.1-0.8    c-0.4-0.2-0.9-0.3-1.3-0.3c-0.5,0-0.9,0.1-1.4,0.3c-0.4,0.2-0.8,0.4-1.1,0.8c-0.3,0.3-0.6,0.7-0.7,1.2s-0.3,1-0.3,1.5    c0,0.5,0.1,1,0.2,1.4c0.2,0.4,0.4,0.8,0.7,1.2s0.7,0.6,1.1,0.8s0.9,0.3,1.4,0.3c0.5,0,0.9-0.1,1.3-0.3c0.4-0.2,0.8-0.4,1.1-0.8    c0.3-0.3,0.6-0.7,0.7-1.2C654,53.9,654.1,53.4,654.1,52.9z M649.8,55.5h-0.8v-5h1.9c0.6,0,1.1,0.1,1.4,0.3    c0.3,0.2,0.5,0.6,0.5,1.1c0,0.4-0.1,0.8-0.4,1s-0.6,0.3-0.9,0.4l1.4,2.2h-0.9l-1.3-2.1h-0.8V55.5z M650.7,52.6c0.2,0,0.3,0,0.4,0    c0.1,0,0.3,0,0.4-0.1c0.1-0.1,0.2-0.1,0.3-0.2c0.1-0.1,0.1-0.2,0.1-0.4c0-0.2,0-0.3-0.1-0.4c-0.1-0.1-0.2-0.2-0.3-0.2    c-0.1,0-0.2-0.1-0.3-0.1c-0.1,0-0.3,0-0.4,0h-1v1.5H650.7z"></path></g></g></svg>