<svg width="200" height="71" viewBox="0 0 200 71" fill="none" xmlns="http://www.w3.org/2000/svg">
<path fill-rule="evenodd" clip-rule="evenodd" d="M100 1.1395C44.7716 1.1395 0 16.5068 0 35.462C0 54.4173 44.7716 69.7846 100 69.7846C155.228 69.7846 200 54.4173 200 35.462C200 16.5068 155.228 1.1395 100 1.1395ZM169.659 56.6657C151.102 63.0361 126.363 66.5438 100 66.5438C73.6373 66.5438 48.8997 63.0361 30.3426 56.6657C13.1188 50.7552 3.24228 43.0269 3.24228 35.462C3.24228 27.8972 13.1188 20.1688 30.3426 14.2583C48.8997 7.88796 73.6373 4.38024 100 4.38024C126.363 4.38024 151.102 7.88796 169.659 14.2583C186.881 20.1704 196.759 27.8988 196.759 35.4636C196.759 43.0284 186.881 50.7568 169.659 56.6673V56.6657Z" fill="#D2451E"/>
<path d="M193.704 31.4883C193.704 32.6889 192.763 33.6395 191.565 33.6395C190.368 33.6395 189.414 32.6873 189.414 31.4883C189.414 30.2892 190.369 29.3494 191.578 29.3494C192.786 29.3494 193.704 30.2892 193.704 31.4883ZM189.948 31.4883C189.948 32.4404 190.649 33.1981 191.578 33.1981C192.482 33.2105 193.169 32.442 193.169 31.5022C193.169 30.5623 192.48 29.7799 191.551 29.7799C190.622 29.7799 189.946 30.55 189.946 31.4883H189.948ZM191.233 32.5978H190.75V30.459C190.942 30.4327 191.209 30.3941 191.553 30.3941C191.946 30.3941 192.125 30.4589 192.266 30.5639C192.394 30.6549 192.482 30.8108 192.482 31.0207C192.482 31.2815 192.291 31.4512 192.05 31.5299V31.5562C192.254 31.621 192.355 31.7907 192.419 32.0778C192.482 32.4034 192.533 32.5207 192.571 32.5994H192.062C191.999 32.5207 191.96 32.3386 191.897 32.0778C191.859 31.8556 191.732 31.7522 191.465 31.7522H191.235V32.5994L191.233 32.5978ZM191.247 31.3988H191.477C191.744 31.3988 191.96 31.3077 191.96 31.0855C191.96 30.8895 191.821 30.7599 191.514 30.7599C191.386 30.7599 191.298 30.7738 191.247 30.7861V31.3988Z" fill="white"/>
<path fill-rule="evenodd" clip-rule="evenodd" d="M30.2131 23.5222C30.2131 23.5222 26.2255 22.6966 22.7193 22.6966C19.2131 22.6966 13.7471 24.2429 13.7471 29.1596C13.7471 31.8401 16.3937 33.8355 17.889 35.0037C19.3844 36.1719 22.3752 37.9265 21.4816 38.9914C20.5881 40.0562 14.9508 39.1518 13.781 38.7506L14.0218 44.9728C14.0218 44.9728 17.6992 45.283 22.5125 45.283C28.0819 45.283 31.656 44.2167 31.656 39.2676C31.656 37.5145 30.173 34.9867 26.9353 32.5762C23.7039 30.1704 23.9215 29.746 24.0943 29.3339C24.2656 28.9219 25.6745 27.925 30.5573 29.3679L30.2131 23.5238V23.5222Z" fill="white"/>
<path fill-rule="evenodd" clip-rule="evenodd" d="M48.6486 23.4312L48.2257 36.6873C48.2257 36.6873 47.951 39.1626 45.4063 39.1626C42.5189 39.1626 42.7257 36.6873 42.7257 36.6873L43.1486 23.4312H35.0729L34.5112 39.266C34.5112 39.266 33.8924 45.2475 44.8924 45.2475C55.8924 45.2475 56.0297 39.266 56.0297 39.266L57.0606 23.4312H48.6486Z" fill="white"/>
<path fill-rule="evenodd" clip-rule="evenodd" d="M59.81 23.212L58.9844 44.8694H66.3054L66.8902 29.0222H69.881C69.881 29.0222 71.0662 29.0917 71.0662 30.2089C71.0662 31.3262 70.0523 32.1164 68.9859 32.1164H67.6109L69.0554 37.479C69.0554 37.479 78.6109 37.9944 78.6109 30.0546C78.6109 22.9728 72.5276 23.1796 72.5276 23.1796L59.8084 23.2136L59.81 23.212Z" fill="white"/>
<path fill-rule="evenodd" clip-rule="evenodd" d="M99.5583 28.9296L99.833 23.4296H81.1787L79.9873 45.0639H98.87L99.0938 39.2305L89.0876 39.1981L89.1941 36.7568L97.5012 36.7722L97.7064 31.2568H89.4333L89.5429 28.9296H99.5583Z" fill="white"/>
<path fill-rule="evenodd" clip-rule="evenodd" d="M122.98 29.8926C122.98 22.8108 115.52 23.1781 115.52 23.1781L102.801 23.212L101.976 44.8694H109.298L109.883 29.0222H113.562C113.562 29.0222 114.864 29.1518 115.005 30.2614C115.216 31.9173 114.008 33.0114 112.943 33.0114H110.88L114.243 45.0593L122.062 45.0762L119.098 35.5654C121.127 34.7614 122.979 33.141 122.979 29.8941L122.98 29.8926Z" fill="white"/>
<path fill-rule="evenodd" clip-rule="evenodd" d="M187.948 29.8926C187.948 22.8108 180.489 23.1781 180.489 23.1781L167.77 23.212L166.946 44.8694H174.269L174.852 29.0222H178.531C178.531 29.0222 179.834 29.1518 179.974 30.2614C180.185 31.9173 178.977 33.0114 177.912 33.0114H175.849L179.212 45.0593L187.033 45.0762L184.068 35.5654C186.098 34.7614 187.948 33.141 187.948 29.8941V29.8926Z" fill="white"/>
<path fill-rule="evenodd" clip-rule="evenodd" d="M125.362 44.766L126.186 23.3849H134.574L133.75 44.766H125.362Z" fill="white"/>
<path fill-rule="evenodd" clip-rule="evenodd" d="M164.994 33.2012C164.518 27.5222 158.702 23.2398 151.466 23.2398C150.961 23.2398 150.447 23.2614 149.941 23.3046C146.185 23.6194 142.745 25.0577 140.256 27.354C137.742 29.6735 136.495 32.5901 136.745 35.5654C137.219 41.2444 143.035 45.5268 150.273 45.5268C150.778 45.5268 151.292 45.5052 151.798 45.462C155.554 45.1472 158.994 43.7105 161.483 41.4126C163.995 39.0932 165.244 36.1765 164.994 33.2012ZM155.187 34.1272C155.187 37.0978 153.238 39.5068 150.833 39.5068C148.429 39.5068 146.481 37.0978 146.481 34.1272C146.481 31.1565 148.431 28.7475 150.833 28.7475C153.236 28.7475 154.989 30.925 155.168 33.6935C155.177 33.8309 155.187 33.9697 155.187 34.1102C155.187 34.1133 155.187 34.1148 155.187 34.1194C155.187 34.1225 155.187 34.1241 155.187 34.1287V34.1272Z" fill="white"/>
</svg>
