<?xml version="1.0" encoding="UTF-8" standalone="no"?>
<!-- Created with Inkscape (http://www.inkscape.org/) -->

<svg
   width="900"
   height="574.60352"
   viewBox="0 0 900 574.60352"
   version="1.1"
   id="svg1"
   xml:space="preserve"
   inkscape:version="1.4 (e7c3feb, 2024-10-09)"
   sodipodi:docname="logo-red-on-white-no-brand.svg"
   inkscape:export-filename="logo-red-on-white-no-brand.png"
   inkscape:export-xdpi="96"
   inkscape:export-ydpi="96"
   xmlns:inkscape="http://www.inkscape.org/namespaces/inkscape"
   xmlns:sodipodi="http://sodipodi.sourceforge.net/DTD/sodipodi-0.dtd"
   xmlns="http://www.w3.org/2000/svg"
   xmlns:svg="http://www.w3.org/2000/svg"><sodipodi:namedview
     id="namedview1"
     pagecolor="#ffffff"
     bordercolor="#000000"
     borderopacity="0.25"
     inkscape:showpageshadow="2"
     inkscape:pageopacity="0.0"
     inkscape:pagecheckerboard="0"
     inkscape:deskcolor="#d1d1d1"
     inkscape:document-units="mm"
     inkscape:zoom="0.5545"
     inkscape:cx="204.68891"
     inkscape:cy="263.30027"
     inkscape:window-width="1920"
     inkscape:window-height="1011"
     inkscape:window-x="0"
     inkscape:window-y="0"
     inkscape:window-maximized="1"
     inkscape:current-layer="layer1"
     inkscape:export-bgcolor="#ffffff00" /><defs
     id="defs1"><inkscape:path-effect
       effect="fillet_chamfer"
       id="path-effect2"
       is_visible="true"
       lpeversion="1"
       nodesatellites_param="F,0,0,1,0,4,0,1 @ F,0,0,1,0,4,0,1 @ F,0,0,1,0,4,0,1 @ F,0,0,1,0,4,0,1 @ F,0,0,1,0,4.0000051,0,1 @ F,0,0,1,0,4,0,1 @ F,0,0,1,0,4,0,1 @ F,0,0,1,0,4.0000051,0,1 @ F,0,0,1,0,4,0,1 @ F,0,0,1,0,4,0,1 @ F,0,0,1,0,4,0,1 @ F,0,0,1,0,4,0,1 @ F,0,0,1,0,4,0,1 @ F,0,0,1,0,4,0,1 @ F,0,0,1,0,4,0,1 @ F,0,0,1,0,4,0,1 @ F,0,0,1,0,4.0000006,0,1 @ F,0,0,1,0,4,0,1 @ F,0,0,1,0,4,0,1 @ F,0,0,1,0,4.0000006,0,1 @ F,0,0,1,0,4,0,1 @ F,0,0,1,0,4,0,1 @ F,0,0,1,0,4,0,1 @ F,0,0,1,0,4,0,1 @ F,0,0,1,0,4,0,1 @ F,0,0,1,0,4,0,1 @ F,0,0,1,0,4,0,1 @ F,0,0,1,0,4,0,1 @ F,0,0,1,0,4,0,1 @ F,0,0,1,0,4.0000051,0,1 @ F,0,0,1,0,4,0,1 @ F,0,0,1,0,4,0,1 @ F,0,0,1,0,4.0000051,0,1 @ F,0,0,1,0,4,0,1 @ F,0,0,1,0,4,0,1 @ F,0,0,1,0,4,0,1 @ F,0,0,1,0,4,0,1 @ F,0,0,1,0,4,0,1 @ F,0,0,1,0,4,0,1 @ F,0,0,1,0,4,0,1 @ F,0,0,1,0,4,0,1 @ F,0,0,1,0,4.0000006,0,1 @ F,0,0,1,0,4,0,1 @ F,0,0,1,0,4,0,1 @ F,0,0,1,0,4.0000006,0,1 @ F,0,0,1,0,4,0,1 @ F,0,0,1,0,4,0,1 @ F,0,0,1,0,4,0,1 @ F,0,0,1,0,4,0,1"
       radius="5"
       unit="px"
       method="auto"
       mode="F"
       chamfer_steps="1"
       flexible="false"
       use_knot_distance="true"
       apply_no_radius="true"
       apply_with_radius="true"
       only_selected="false"
       hide_knots="false" /><inkscape:path-effect
       effect="fillet_chamfer"
       id="path-effect1"
       is_visible="true"
       lpeversion="1"
       nodesatellites_param="F,0,1,1,0,0,0,1 @ F,0,0,1,0,28.532998,0,1 @ F,0,1,1,0,0,0,1"
       radius="0"
       unit="px"
       method="auto"
       mode="F"
       chamfer_steps="1"
       flexible="false"
       use_knot_distance="true"
       apply_no_radius="true"
       apply_with_radius="true"
       only_selected="false"
       hide_knots="false" /><inkscape:path-effect
       effect="fillet_chamfer"
       id="path-effect1-7"
       is_visible="true"
       lpeversion="1"
       nodesatellites_param="F,0,1,1,0,0,0,1 @ F,0,0,1,0,28.532998,0,1 @ F,0,1,1,0,0,0,1"
       radius="0"
       unit="px"
       method="auto"
       mode="F"
       chamfer_steps="1"
       flexible="false"
       use_knot_distance="true"
       apply_no_radius="true"
       apply_with_radius="true"
       only_selected="false"
       hide_knots="false" /><inkscape:path-effect
       effect="fillet_chamfer"
       id="path-effect1-7-7"
       is_visible="true"
       lpeversion="1"
       nodesatellites_param="F,0,1,1,0,0,0,1 @ F,0,0,1,0,28.532998,0,1 @ F,0,1,1,0,0,0,1"
       radius="0"
       unit="px"
       method="auto"
       mode="F"
       chamfer_steps="1"
       flexible="false"
       use_knot_distance="true"
       apply_no_radius="true"
       apply_with_radius="true"
       only_selected="false"
       hide_knots="false" /></defs><g
     inkscape:label="Layer 1"
     inkscape:groupmode="layer"
     id="layer1"
     transform="translate(-50.000636,-151.89689)"
     style="vector-effect:non-scaling-stroke;fill:#9c0510;fill-opacity:1;stroke:none;stroke-width:1;stroke-dasharray:none;-inkscape-stroke:hairline"><path
       id="path1"
       style="vector-effect:non-scaling-stroke;fill:#9c0510;fill-opacity:1;stroke:none;stroke-width:1.08889;stroke-dasharray:none;-inkscape-stroke:hairline"
       d="m 267.67535,130.01011 c -1.435,-0.04 -2.74695,0.0304 -3.92808,0.20842 -11.72603,1.7584 -24.22411,25.71062 -28.1431,53.93192 -2.10986,15.1934 -1.07852,38.36693 2.5776,57.98123 8.07086,43.2972 31.51628,88.08769 58.00248,110.80299 l 6.77365,5.80812 0.0191,9.72131 c 0.055,30.4374 11.01871,68.6017 27.41151,95.4033 5.03578,8.2332 5.26836,8.75875 3.5878,8.14965 -0.7901,-0.286 -4.90113,-2.80269 -9.13433,-5.59119 -46.53126,-30.6502 -95.83583,-100.25739 -107.78086,-152.15739 -3.29813,-14.3298 -8.08612,-16.82463 -27.25625,-14.20873 -26.55487,3.6236 -55.4659,17.32375 -83.85083,39.73595 -9.732522,7.6846 -30.873426,28.61562 -39.755076,39.35952 -27.63693,33.4317 -48.025842,74.07917 -55.071832,109.79067 -1.9499404,9.8828 -1.484195,13.34334 2.309635,17.13724 3.67701,3.677 7.373626,4.1296 17.211676,2.1076 12.006109,-2.4677 27.910347,-1.97991 38.583247,1.18459 14.719929,4.3645 31.88412,14.78717 41.97964,25.49107 13.5764,14.3944 23.47452,32.59796 28.81728,52.99616 0.8865,3.3845 1.9662,6.81082 2.39896,7.61372 2.44825,4.5426 11.62281,8.88596 16.07387,7.60946 3.4187,-0.981 6.67649,-2.78487 10.3806,-5.74857 8.05755,-6.4467 23.51762,-12.17612 37.24127,-13.80252 15.45722,-1.8319 31.9325,1.11181 45.80352,8.18581 10.679,5.4461 15.09557,8.96637 24.54041,19.55747 10.27125,11.5178 18.47463,11.79461 25.423,0.85921 3.20085,-5.0376 14.55138,-17.22657 16.04197,-17.22657 0.5433,0 1.31135,3.15994 1.9013,7.83064 2.92176,23.1331 13.33101,51.06355 26.67566,71.56895 31.0378,47.69299 81.76674,77.5413 137.53389,80.9266 5.79277,0.352 11.80908,0.5317 13.36867,0.3977 0.3412,-0.03 1.92988,-0.107 2.58824,-0.151 0.6583,0.04 2.24695,0.121 2.58823,0.151 1.55959,0.133 7.57589,-0.0507 13.36867,-0.3977 55.76716,-3.3853 106.49611,-33.23361 137.5339,-80.9266 13.34463,-20.5054 23.75387,-48.43575 26.67565,-71.56895 0.5899,-4.6707 1.35801,-7.83064 1.9013,-7.83064 1.49061,0 12.84114,12.18897 16.04197,17.22657 6.94838,10.9358 15.15176,10.65899 25.423,-0.85921 9.44485,-10.5911 13.86142,-14.11137 24.54041,-19.55747 13.87102,-7.074 30.3463,-10.01761 45.80352,-8.18581 13.72365,1.6265 29.18371,7.35582 37.24127,13.80252 3.70412,2.9637 6.96191,4.76807 10.3806,5.74857 4.45107,1.2765 13.62564,-3.06686 16.07387,-7.60946 0.4328,-0.803 1.51245,-4.22922 2.39896,-7.61372 5.34279,-20.3982 15.24088,-38.60176 28.81728,-52.99616 10.0955,-10.7039 27.25974,-21.12657 41.97964,-25.49107 10.673,-3.1645 26.57705,-3.65229 38.58325,-1.18459 9.838,2.022 13.53467,1.5694 17.21167,-2.1076 3.7938,-3.7939 4.26157,-7.25444 2.31177,-17.13724 -7.0461,-35.7115 -27.43706,-76.35897 -55.07396,-109.79067 -8.8817,-10.7439 -30.02258,-31.67492 -39.75508,-39.35952 -28.38498,-22.4122 -57.29599,-36.11235 -83.85083,-39.73595 -19.17015,-2.6159 -23.95814,-0.12137 -27.25625,14.20873 -11.94507,51.9 -61.24959,121.50719 -107.78086,152.15739 -4.23321,2.7885 -8.34419,5.30479 -9.13433,5.59119 -1.68052,0.609 -1.44793,0.0801 3.58781,-8.14965 16.39284,-26.8016 27.35639,-64.9659 27.4115,-95.4033 l 0.0191,-9.72131 6.77365,-5.80812 c 26.4862,-22.7154 49.93165,-67.50579 58.00248,-110.80299 3.65615,-19.6143 4.68746,-42.78783 2.5776,-57.98123 -3.91895,-28.2213 -16.41708,-52.17352 -28.1431,-53.93192 -1.18114,-0.177 -2.49304,-0.24642 -3.92808,-0.20842 -10.04511,0.266 -26.15728,5.7579 -46.19696,15.8059 -29.57716,14.8299 -55.23391,32.31881 -69.01897,47.04981 l -4.98082,5.32322 -4.33641,-2.85196 c -20.1082,-13.2327 -46.65078,-23.91893 -70.12912,-28.23243 -12.35752,-2.2704 -25.00952,-3.07864 -37.66237,-2.77964 -12.65285,-0.299 -25.30484,0.50934 -37.66237,2.77964 -23.47834,4.3135 -50.02091,14.99973 -70.12913,28.23243 l -4.33641,2.85196 -4.98082,-5.32322 c -13.78495,-14.731 -39.44182,-32.21991 -69.01897,-47.04981 -20.03965,-10.048 -36.15187,-15.5398 -46.19696,-15.8059 z m 3.23264,23.77053 v 0.004 c 4.45226,0.599 18.62418,6.09366 30.84405,12.10326 24.53432,12.0659 48.36327,27.58437 61.00118,39.72957 l 6.74388,6.48229 -8.76641,8.91316 c -4.82193,4.9016 -11.82152,12.82981 -15.55707,17.62001 -3.73562,4.7902 -7.01461,8.69038 -7.28408,8.66858 -0.2695,-0.02 -3.03815,-2.06593 -6.15264,-4.54483 -15.27196,-12.1552 -41.50993,-20.23565 -63.60643,-19.58725 l -9.31723,0.27222 -0.51254,-5.2658 c -1.42903,-14.6718 -0.26616,-31.61711 3.05399,-44.46581 1.99322,-7.7138 6.63321,-18.85541 8.27513,-19.87011 0.2053,-0.127 0.64214,-0.14055 1.27817,-0.0596 z m 458.1819,0.004 c 0.6361,-0.09 1.07499,-0.0704 1.2803,0.0596 1.64188,1.0147 6.2819,12.1563 8.27513,19.8701 3.32016,12.8486 4.483,29.79402 3.05399,44.46582 l -0.51254,5.26792 -9.31723,-0.27435 c -22.09651,-0.649 -48.3366,7.43205 -63.60855,19.58725 -3.11449,2.4789 -5.88313,4.52496 -6.15265,4.54696 -0.2695,0.02 -3.54633,-3.8806 -7.28194,-8.6707 -3.73553,-4.7902 -10.73736,-12.71842 -15.55921,-17.62002 l -8.7664,-8.91315 6.746,-6.4823 c 12.63787,-12.1452 36.46475,-27.66377 60.99905,-39.72957 12.2199,-6.0096 26.39178,-11.50386 30.84405,-12.10326 z m -229.08988,34.05969 c 22.18654,-0.546 44.3909,2.91847 63.64045,10.58477 32.79814,13.062 59.40041,34.43932 80.09501,64.36782 27.08923,39.17649 36.71377,91.48518 25.68459,139.58838 -15.69649,68.4592 -71.50918,120.92134 -139.69041,131.30474 -6.85746,1.0443 -18.6107,1.33735 -29.72964,1.07825 -11.11892,0.259 -22.87219,-0.0384 -29.72965,-1.07825 C 402.08915,523.30664 346.27643,470.8445 330.57995,402.3853 319.55079,354.2821 329.1753,301.97341 356.26454,262.79692 c 20.69459,-29.9285 47.29476,-51.30582 80.09289,-64.36782 19.24955,-7.6663 41.45599,-11.13027 63.64258,-10.58477 z m -227.75856,58.71708 c 4.98293,0.155 10.9585,0.69853 14.93394,1.53763 16.48162,3.4798 31.20145,11.24969 35.99289,19.00239 l 1.62695,2.63503 -3.98976,8.85361 c -2.19431,4.8705 -5.81678,14.50732 -8.04969,21.41411 -2.23303,6.9068 -4.90549,16.35783 -5.93785,21.00153 l -1.87791,8.44314 -4.68945,-5.6082 c -15.23573,-18.2134 -28.54147,-44.45001 -35.3974,-69.79951 -0.8715,-3.2224 -1.58442,-6.23053 -1.58442,-6.68433 0,-0.716 3.98979,-0.9504 8.9727,-0.7954 z m 455.51711,0 c 4.98286,-0.154 8.97057,0.0794 8.97057,0.7954 0,0.454 -0.71066,3.46193 -1.58229,6.68433 -6.85593,25.3495 -20.16167,51.58621 -35.3974,69.79951 l -4.69158,5.6082 -1.87791,-8.44314 c -1.03237,-4.6437 -3.70271,-14.09473 -5.93572,-21.00153 -2.23288,-6.90679 -5.85536,-16.54371 -8.04969,-21.41411 l -3.98976,-8.85573 1.62695,-2.63291 c 4.79146,-7.7527 19.51127,-15.52249 35.99289,-19.00239 3.97548,-0.839 9.95098,-1.38303 14.93394,-1.53763 z M 404.95617,312.1521 c -10.56653,-0.0156 -21.14428,4.885 -24.79987,14.70426 -3.49763,9.39496 -4.91913,18.37501 -4.91914,18.37501 a 9.1306239,7.9202694 0 0 0 7.77109,8.94506 9.1306239,7.9202694 0 0 0 10.31254,-6.74176 c 0,0 1.32377,-7.95499 4.21094,-15.71021 1.51052,-4.05739 13.25711,-4.05503 14.74466,0.006 2.96491,8.09466 4.26836,16.57154 4.26836,16.57154 a 9.1306239,7.9202694 0 0 0 10.22535,6.84171 9.1306239,7.9202694 0 0 0 7.88594,-8.87275 c 0,0 -1.37833,-9.51258 -4.97656,-19.33629 -3.60323,-9.83732 -14.1568,-14.76733 -24.72331,-14.78295 z m 189.67934,0 c -10.56652,-0.0156 -21.14641,4.885 -24.802,14.70426 -3.49762,9.39496 -4.917,18.37501 -4.91701,18.37501 a 9.1306239,7.9202694 0 0 0 7.77109,8.94506 9.1306239,7.9202694 0 0 0 10.31255,-6.74176 c 0,0 1.32376,-7.95499 4.21093,-15.71021 1.51052,-4.05739 13.25499,-4.05503 14.74254,0.006 2.96491,8.09466 4.26836,16.57154 4.26836,16.57154 a 9.1306239,7.9202694 0 0 0 10.22747,6.84171 9.1306239,7.9202694 0 0 0 7.88594,-8.87275 c 0,0 -1.37833,-9.51258 -4.97656,-19.33629 -3.60323,-9.83732 -14.1568,-14.76733 -24.72331,-14.78295 z m -418.05252,14.58942 c 0.3862,0 -0.52034,2.64132 -2.01189,5.87192 -14.68329,31.8031 -28.68249,103.95589 -32.03078,165.07519 -0.5005,9.1348 -1.15983,21.06799 -1.46319,26.51829 l -0.55083,9.90846 -2.02465,-2.99657 c -3.83389,-5.6736 -18.24477,-19.88194 -26.13333,-25.76754 -19.506728,-14.5536 -42.003468,-22.22539 -65.214238,-22.23929 -5.90413,-0.003 -10.735764,-0.29916 -10.735764,-0.65716 0,-1.0602 5.274521,-16.26438 7.988021,-23.02618 20.23642,-50.4279 64.595801,-100.37253 109.592841,-123.38903 7.69823,-3.9378 20.71955,-9.29809 22.58381,-9.29809 z m 646.83403,0 c 1.86425,0 14.88344,5.36039 22.58169,9.29809 44.99702,23.0165 89.35856,72.96113 109.59496,123.38903 2.7135,6.7618 7.98802,21.96385 7.98802,23.02405 0,0.358 -4.83156,0.65329 -10.73576,0.65929 -23.2108,0.01 -45.70754,7.68569 -65.21424,22.23929 -7.8886,5.8856 -22.29945,20.09394 -26.13333,25.76754 l -2.02465,2.99657 -0.55296,-9.91059 c -0.3034,-5.4503 -0.96054,-17.38136 -1.46106,-26.51616 -3.34829,-61.1193 -17.34957,-133.27209 -32.0329,-165.07519 -1.49107,-3.22955 -2.39501,-5.87021 -2.00977,-5.87192 z m -624.42461,8.73451 2.24158,6.36745 c 10.05781,28.5703 30.64002,63.13669 55.16966,92.65129 9.82494,11.8215 28.92449,30.93971 39.27231,39.31061 11.16386,9.031 26.04976,18.68841 33.71727,21.87561 3.06673,1.2747 5.72393,2.42697 5.90382,2.55847 0.1801,0.132 -0.8017,2.70317 -2.18203,5.71667 -7.38585,16.1255 -14.68187,45.97449 -14.73828,60.29299 l -0.0149,3.77283 -5.06376,2.38833 c -6.36802,3.0049 -13.42403,8.32092 -19.50217,14.69362 -2.59368,2.7195 -4.77941,4.92861 -4.85959,4.90851 -0.08,-0.02 -2.33268,-2.05772 -5.00633,-4.52782 -10.20637,-9.4295 -23.74097,-16.94215 -38.32166,-21.27375 -11.74215,-3.4883 -20.20352,-4.42482 -35.40591,-3.91532 -14.28751,0.479 -22.91513,2.25513 -34.43185,7.08203 -9.06684,3.8002 -8.60808,3.78668 -9.19388,0.25308 -3.99057,-24.0677 -1.95527,-76.94731 4.79791,-124.62891 6.28316,-44.3635 17.17832,-88.0143 26.16098,-104.8056 z m 602.01519,0 1.45469,2.72222 c 8.98264,16.7913 19.87783,60.43997 26.16098,104.80347 6.75319,47.6816 8.79062,100.56131 4.80005,124.62891 -0.5858,3.5333 -0.12696,3.54682 -9.19389,-0.25308 -11.51671,-4.8269 -20.14434,-6.60323 -34.43185,-7.08203 -15.2024,-0.51 -23.66589,0.42662 -35.40803,3.91532 -14.5807,4.3316 -28.11315,11.84425 -38.31953,21.27375 -2.67362,2.4701 -4.92648,4.50772 -5.00634,4.52782 -0.08,0.02 -2.26591,-2.18901 -4.85959,-4.90851 -6.07813,-6.3727 -13.13418,-11.68862 -19.50217,-14.69362 l -5.06376,-2.38833 -0.0149,-3.77283 c -0.056,-14.3185 -7.35241,-44.16749 -14.73828,-60.29299 -1.38027,-3.0135 -2.36209,-5.58507 -2.18203,-5.71667 0.1799,-0.132 2.83712,-1.28367 5.90382,-2.55847 7.66752,-3.1872 22.55338,-12.84461 33.71727,-21.87561 10.34781,-8.371 29.44735,-27.48901 39.27231,-39.31061 24.52966,-29.5146 45.11187,-64.08099 55.16966,-92.65129 z m -270.21884,32.51993 a 9.1306113,7.9202583 0 0 0 -8.16454,3.54527 c 0,0 -4.61718,6.01988 -10.55711,11.45886 -1.67454,1.53331 -6.80572,3.351 -12.2734,3.34961 -5.46767,-10e-4 -10.57986,-1.82333 -12.23511,-3.34536 -5.94591,-5.46732 -10.66558,-11.51628 -10.66558,-11.51628 a 9.1306113,7.9202583 0 0 0 -12.66897,-2.16076 9.1306113,7.9202583 0 0 0 -2.49253,10.99098 c 0,0 5.30979,6.90631 12.54136,13.55582 6.79584,6.24885 16.3285,8.31558 25.51658,8.31767 9.18809,0.002 18.72309,-2.06028 25.53359,-8.29641 7.29783,-6.68235 12.54349,-13.63025 12.54349,-13.63025 a 9.1306113,7.9202583 0 0 0 -2.59249,-10.97397 9.1306113,7.9202583 0 0 0 -4.48529,-1.29518 z m -170.81093,134.67137 6.53546,5.87404 c 29.26748,26.3071 59.65665,40.99818 99.29943,48.00258 6.93041,1.2245 12.48543,1.49201 29.97635,1.44831 2.09879,-0.005 2.47066,-0.0687 4.21094,-0.0787 1.7403,0.01 2.10996,0.0687 4.20881,0.0787 17.49091,0.04 23.04591,-0.22371 29.97634,-1.44831 39.64278,-7.0044 70.03408,-21.69548 99.30157,-48.00258 l 6.53546,-5.87404 4.10885,8.24535 c 6.31525,12.671 10.76876,27.62531 13.30911,44.70401 1.40906,9.472 1.41101,32.72782 0.009,42.53262 -6.76842,47.1691 -33.80606,88.19137 -74.21246,112.59796 -18.53918,11.1981 -43.119,19.24615 -64.4401,21.09935 -4.73705,0.412 -11.83332,0.42644 -18.79609,0.22544 -6.96275,0.201 -14.05906,0.18656 -18.7961,-0.22544 -21.3211,-1.8532 -45.901,-9.90115 -64.4401,-21.09935 -40.40645,-24.40659 -67.44191,-65.42876 -74.21033,-112.59796 -1.4029,-9.8048 -1.40295,-33.06072 0.006,-42.53262 2.54035,-17.0786 6.99387,-32.03301 13.30911,-44.70401 z"
       transform="matrix(0.91836734,0,0,0.91836699,40.816325,32.509892)" /><path
       id="path5"
       style="display:inline;vector-effect:non-scaling-stroke;fill:#9c0510;fill-opacity:1;stroke:none;stroke-width:1.08889;stroke-linejoin:round;stroke-dasharray:none;-inkscape-stroke:hairline"
       d="m 435.71941,556.78666 c -0.51554,-0.0663 -1.04806,-0.0612 -1.57592,0.0149 -1.05571,0.15228 -2.09008,0.5947 -2.92851,1.35473 l -25.6059,23.21333 c -3.21694,2.91617 -3.10595,8.1735 0.23181,10.95057 l 25.38472,21.1185 c 3.48014,2.89554 9.27045,0.18014 9.27045,-4.34705 v -11.27596 c 0,-0.16653 0.0547,-0.21905 0.22118,-0.21905 h 5.17009 c 2.25287,0 5.89911,0.0501 7.2543,0.31263 2.75132,0.53303 5.33312,1.73278 7.5095,3.49635 1.07133,0.86812 3.45392,3.63129 4.90213,5.35725 l 19.7276,23.5132 c 0.3241,0.38626 0.32413,0.88344 0,1.26967 l -19.72547,23.50469 c -1.44846,1.72597 -3.8328,4.48903 -4.90426,5.35725 -2.17638,1.76356 -4.75818,2.96759 -7.5095,3.50061 -1.35519,0.26255 -5.00142,0.31263 -7.2543,0.31263 h -5.17009 c -0.16653,0 -0.22118,-0.0547 -0.22118,-0.22118 v -11.27596 c 0,-4.5272 -5.79031,-7.24258 -9.27045,-4.34705 l -25.38472,21.1185 c -3.33776,2.77707 -3.44875,8.03653 -0.23181,10.9527 l 25.6059,23.2112 c 1.67685,1.52007 4.14286,1.77477 5.97825,0.96129 1.83538,-0.81347 3.30283,-2.81324 3.30283,-5.07652 v -13.62813 c 0,-0.16653 0.0547,-0.22118 0.22118,-0.22118 h 1.86514 a 3.779908,3.779908 0 0 0 0.004,0 c 2.31382,-0.002 4.62793,0.007 6.94166,0.0276 a 3.779908,3.779908 0 0 0 0.0319,0 h 0.64653 a 3.779908,3.779908 0 0 0 0.35942,-0.0149 c 12.02222,-1.14648 20.09941,-4.81279 26.15248,-10.54224 1.96367,-1.85868 4.20576,-4.6197 5.6082,-6.29089 l 17.67318,-21.05682 17.67317,21.05682 c 1.40246,1.67121 3.64455,4.43223 5.60821,6.29089 6.0531,5.72943 13.80614,9.34723 22.08615,10.30404 2.49166,0.28793 4.8813,0.25308 5.07227,0.25308 h 2.97743 a 3.779908,3.779908 0 0 0 0.0213,0 c 2.02171,-0.0118 4.04372,-0.0126 6.06546,-0.017 v 13.83868 c 0,2.26328 1.46743,4.26305 3.30282,5.07652 1.83539,0.81348 4.3014,0.55879 5.97825,-0.96129 l 25.6059,-23.2112 c 3.21694,-2.91618 3.10594,-8.17562 -0.23181,-10.9527 l -25.38472,-21.1185 c -3.48014,-2.89554 -9.27044,-0.18015 -9.27044,4.34705 v 11.27596 c 0,0.16653 -0.0547,0.22118 -0.22119,0.22118 h -5.16796 c -2.25288,0 -5.90124,-0.05 -7.25643,-0.31263 -2.75132,-0.53302 -5.33311,-1.73704 -7.5095,-3.50061 -1.07146,-0.86821 -3.45581,-3.63128 -4.90426,-5.35725 l -19.72547,-23.50469 c -0.32414,-0.38624 -0.32411,-0.8834 0,-1.26967 l 19.7276,-23.5132 c 1.44818,-1.72594 3.83078,-4.48912 4.90213,-5.35725 2.17644,-1.7636 4.75814,-2.96332 7.5095,-3.49635 1.3552,-0.26254 5.00356,-0.31263 7.25643,-0.31263 h 5.16796 c 0.16653,0 0.22119,0.0525 0.22119,0.21905 v 11.27596 c 0,4.52719 5.79031,7.24259 9.27044,4.34705 l 25.38472,-21.1185 c 3.33775,-2.77707 3.44875,-8.0344 0.23181,-10.95057 l -25.6059,-23.21333 c -1.67685,-1.52007 -4.14286,-1.77689 -5.97825,-0.96341 -1.83539,0.81347 -3.30282,2.81324 -3.30282,5.07652 v 13.63025 c 0,0.16653 -0.0547,0.22119 -0.22119,0.22119 h -1.86514 a 3.779908,3.779908 0 0 0 -0.004,0 c -2.31382,0.002 -4.62793,-0.009 -6.94166,-0.0298 a 3.779908,3.779908 0 0 0 -0.0319,0 h -0.64653 a 3.779908,3.779908 0 0 0 -0.35942,0.0191 c -12.02235,1.14631 -20.09943,4.8128 -26.15247,10.54224 -1.96365,1.85867 -4.20576,4.61756 -5.60821,6.28876 l -17.67317,21.05895 -17.67318,-21.05895 c -1.40245,-1.6712 -3.64454,-4.43008 -5.6082,-6.28876 -6.05306,-5.72944 -13.80615,-9.34732 -22.08616,-10.30404 -2.49167,-0.28791 -4.88152,-0.25734 -5.07227,-0.25734 h -2.97743 a 3.779908,3.779908 0 0 0 -0.0106,0 l -5.86554,0.0191 c -0.1609,4.6e-4 -0.21054,-0.0497 -0.21054,-0.21055 v -13.63025 c 0,-2.26328 -1.46745,-4.26304 -3.30283,-5.07652 -0.45884,-0.20337 -0.95829,-0.33987 -1.47382,-0.40621 z"
       transform="matrix(0.91836734,0,0,0.91836699,40.816325,32.509892)" /></g></svg>
