<svg xmlns="http://www.w3.org/2000/svg" viewBox="0 0 20 20">
  <path d="M7.99999 5.9999H2C1.44771 5.9999 1 6.44762 1 6.9999V11.9999C1 12.5522 1.44772 12.9999 2 12.9999C2.66667 12.9999 3.33334 12.9999 4.00001 12.9999V17.9999C4.00001 18.5522 4.44772 18.9999 5 18.9999C5.55229 18.9999 6 18.5522 6 17.9999V12.9999H7.99999L13.2929 18.2928C13.9229 18.9228 15 18.4766 15 17.5857V9.4999V1.41411C15 0.52321 13.9229 0.0770425 13.2929 0.707007L7.99999 5.9999ZM16.5366 13.7524C18.0683 12.9461 19 11.5377 19 9.99991C19 8.47286 18.0608 7.06683 16.539 6.25296C16.2883 6.11892 16 6.31116 16 6.5954V10.0021V13.4089C16 13.6919 16.2862 13.8842 16.5366 13.7524Z"/>
</svg>
