<svg viewBox="0 0 20 20" xmlns="http://www.w3.org/2000/svg">
<path d="M19 0C19.5128 0 19.9355 0.38604 19.9933 0.883379L20 1V19C20 19.5128 19.614 19.9355 19.1166 19.9933L19 20H15C14.4477 20 14 19.5523 14 19C14 18.4872 14.386 18.0645 14.8834 18.0067L15 18H18V2H15C14.4872 2 14.0645 1.61396 14.0067 1.11662L14 1C14 0.487164 14.386 0.0644928 14.8834 0.00672773L15 0H19Z"/>
<path d="M5 0C5.55228 0 6 0.447715 6 1C6 1.51284 5.61396 1.93551 5.11662 1.99327L5 2H2V18H5C5.51284 18 5.93551 18.386 5.99327 18.8834L6 19C6 19.5128 5.61396 19.9355 5.11662 19.9933L5 20H1C0.487164 20 0.0644928 19.614 0.00672773 19.1166L0 19V1C0 0.487164 0.38604 0.0644928 0.883379 0.00672773L1 0H5Z"/>
<path fill-rule="evenodd" clip-rule="evenodd" d="M8.1026 4C7.68813 4 7.29065 4.16464 6.99758 4.45771C6.70451 4.75078 6.53987 5.14827 6.53987 5.56273V8.03631C6.53987 8.41673 6.34609 8.77035 6.0264 8.97574L5.30843 9.43563C5.21386 9.49622 5.13604 9.57963 5.08215 9.67817C5.02825 9.77672 5 9.88723 5 9.99955C5 10.1119 5.02825 10.2224 5.08215 10.3209C5.13604 10.4195 5.21386 10.5029 5.30843 10.5635L6.0264 11.0234C6.34609 11.2288 6.53987 11.5833 6.53987 11.9637V14.4373C6.53987 15.2999 7.23997 16 8.1026 16H8.44729C8.62492 16 8.79527 15.9294 8.92087 15.8038C9.04647 15.6782 9.11703 15.5079 9.11703 15.3303C9.11703 15.1526 9.04647 14.9823 8.92087 14.8567C8.79527 14.7311 8.62492 14.6605 8.44729 14.6605H8.1017C8.0425 14.6605 7.98571 14.637 7.94384 14.5951C7.90198 14.5533 7.87846 14.4965 7.87846 14.4373V11.9637C7.87856 11.5825 7.78994 11.2066 7.6196 10.8656C7.44926 10.5246 7.20189 10.2279 6.89706 9.99911C7.20165 9.77045 7.44887 9.47408 7.6192 9.13343C7.78953 8.79278 7.87828 8.41718 7.87846 8.03631V5.56273C7.87846 5.50352 7.90198 5.44674 7.94384 5.40487C7.98571 5.36301 8.0425 5.33949 8.1017 5.33949H8.4464C8.53435 5.33949 8.62144 5.32216 8.7027 5.2885C8.78395 5.25485 8.85779 5.20551 8.91998 5.14332C8.98217 5.08113 9.0315 5.0073 9.06516 4.92604C9.09882 4.84479 9.11614 4.75769 9.11614 4.66974C9.11614 4.58179 9.09882 4.4947 9.06516 4.41344C9.0315 4.33219 8.98217 4.25835 8.91998 4.19616C8.85779 4.13397 8.78395 4.08464 8.7027 4.05098C8.62144 4.01732 8.53435 4 8.4464 4H8.1026ZM11.7104 4C12.5739 4 13.2732 4.7001 13.2732 5.56273V8.03631C13.2732 8.41673 13.4678 8.77035 13.7875 8.97574L14.5055 9.43563C14.6001 9.49622 14.6779 9.57963 14.7318 9.67817C14.7857 9.77672 14.8139 9.88723 14.8139 9.99955C14.8139 10.1119 14.7857 10.2224 14.7318 10.3209C14.6779 10.4195 14.6001 10.5029 14.5055 10.5635L13.7875 11.0234C13.6299 11.1245 13.5003 11.2636 13.4106 11.4279C13.3209 11.5922 13.2739 11.7765 13.2741 11.9637V14.4373C13.2741 14.8517 13.1094 15.2492 12.8163 15.5423C12.5233 15.8354 12.1258 16 11.7113 16H11.3666C11.189 16 11.0186 15.9294 10.893 15.8038C10.7674 15.6782 10.6969 15.5079 10.6969 15.3303C10.6969 15.1526 10.7674 14.9823 10.893 14.8567C11.0186 14.7311 11.189 14.6605 11.3666 14.6605H11.7113C11.7705 14.6605 11.8273 14.637 11.8692 14.5951C11.911 14.5533 11.9346 14.4965 11.9346 14.4373V11.9637C11.9346 11.1868 12.3007 10.4617 12.9151 9.99911C12.6106 9.77036 12.3636 9.47395 12.1934 9.1333C12.0233 8.79265 11.9346 8.4171 11.9346 8.03631V5.56273C11.9346 5.50352 11.911 5.44674 11.8692 5.40487C11.8273 5.36301 11.7705 5.33949 11.7113 5.33949H11.3666C11.189 5.33949 11.0186 5.26892 10.893 5.14332C10.7674 5.01772 10.6969 4.84737 10.6969 4.66974C10.6969 4.49212 10.7674 4.32176 10.893 4.19616C11.0186 4.07056 11.189 4 11.3666 4H11.7104Z"/>
</svg>
