<svg xmlns="http://www.w3.org/2000/svg" viewBox="0 0 20 20">
  <path d="M6 1C6.55228 1 7 1.44772 7 2V4H13V2C13 1.44772 13.4477 1 14 1C14.5523 1 15 1.44772 15 2V4H17C17.0127 4 17.0255 4 17.0383 3.99999C17.254 3.99991 17.4913 3.99982 17.6885 4.02174C17.8902 4.04415 18.2718 4.10757 18.5821 4.41789C18.8924 4.72821 18.9558 5.10978 18.9783 5.31143C19.0002 5.5087 19.0001 5.74599 19 5.96166C19 5.97452 19 5.9873 19 5.99999V12C19 12.0127 19 12.0255 19 12.0384C19.0001 12.254 19.0002 12.4913 18.9783 12.6886C18.9558 12.8902 18.8924 13.2718 18.5821 13.5821C18.2718 13.8924 17.8902 13.9559 17.6885 13.9783C17.4913 14.0002 17.254 14.0001 17.0384 14C17.0255 14 17.0127 14 17 14H15V18C15 18.5523 14.5523 19 14 19C13.4477 19 13 18.5523 13 18V14H7V18C7 18.5523 6.55228 19 6 19C5.44771 19 5 18.5523 5 18V14H2.99999C2.98729 14 2.97449 14 2.96162 14C2.74596 14.0001 2.50868 14.0002 2.31143 13.9783C2.10978 13.9559 1.72821 13.8924 1.41788 13.5821C1.10756 13.2718 1.04414 12.8902 1.02173 12.6886C0.999813 12.4913 0.9999 12.254 0.999979 12.0384C0.999984 12.0255 0.999989 12.0127 0.999989 12V6C0.999989 5.9873 0.999984 5.97451 0.999979 5.96164C0.9999 5.74598 0.999813 5.5087 1.02173 5.31144C1.04414 5.10979 1.10756 4.72822 1.41788 4.41789C1.72821 4.10757 2.10978 4.04415 2.31143 4.02174C2.50869 3.99982 2.74597 3.99991 2.96163 3.99999C2.9745 4 2.98729 4 2.99999 4H5V2C5 1.44772 5.44771 1 6 1ZM5.9993 6H4.20185L8.20185 12H10.7981L6.79815 6H6.0007C6.00046 6 5.99953 6 5.9993 6C5.99953 6 5.99907 6 5.9993 6ZM9.20185 6L13.2018 12H15.7981L11.7981 6H9.20185ZM14.2018 6L17 10.1972V6C17 6 17 6 17 6H14.2018ZM5.79815 12L2.99999 7.80276V12H5.79815Z"/>
</svg>
