<svg viewBox="0 0 20 20" xmlns="http://www.w3.org/2000/svg">
<path d="M15 6H2V17H18V12C18.7695 12 19.469 11.7077 20 11.2314V18C20 18.55 19.55 19 19 19H1C0.45 19 0 18.55 0 18V2C0 1.45 0.45 1 1 1H15V6Z" fill="black"/>
<path d="M4 8C4.28 8 4.52996 8.11004 4.70996 8.29004L6.70996 10.29C6.88996 10.47 7 10.72 7 11C7 11.28 6.88996 11.53 6.70996 11.71L4.70996 13.71C4.52996 13.89 4.28 14 4 14C3.45 14 3 13.55 3 13C3 12.72 3.11004 12.47 3.29004 12.29L4.58984 11L3.29004 9.70996C3.11004 9.52996 3 9.28 3 9C3 8.45 3.45 8 4 8Z" fill="black"/>
<path d="M12 12C12.55 12 13 12.45 13 13C13 13.55 12.55 14 12 14H9C8.45 14 8 13.55 8 13C8 12.45 8.45 12 9 12H12Z" fill="black"/>
<path d="M18 8C18.5523 8 19 8.44772 19 9C19 9.55228 18.5523 10 18 10C17.4477 10 17 9.55228 17 9C17 8.44772 17.4477 8 18 8Z" fill="black"/>
<path d="M18 0C18.5523 0 19 0.447715 19 1V6C19 6.55228 18.5523 7 18 7C17.4477 7 17 6.55228 17 6V1C17 0.447715 17.4477 0 18 0Z" fill="black"/>
</svg>
