<svg viewBox="0 0 20 20" xmlns="http://www.w3.org/2000/svg">
<path d="M18.75 3.05176e-05C19.4404 3.05176e-05 20 0.559675 20 1.25003V18.75C20 19.4404 19.4404 20 18.75 20H1.25C0.559644 20 0 19.4404 0 18.75V1.25003C0 0.559675 0.559644 3.05528e-05 1.25 3.05176e-05H18.75ZM10.5 10V17L15.4639 14.6033C15.9384 14.3882 16.25 13.8675 16.25 13.2886V6.62723C16.2499 6.62327 16.2488 6.61898 16.2488 6.61502C14.3568 7.74302 12.3979 8.88209 10.5 10ZM3.75 6.71024V13.3728C3.75018 13.9088 4.01769 14.3989 4.44092 14.6387L9.5 17V10L3.7561 6.61868C3.75437 6.64897 3.75004 6.67959 3.75 6.71024ZM10.5017 3.20438C10.1825 3.02385 9.81003 3.00672 9.47876 3.15677L4.53613 5.39676C4.46689 5.42813 4.40142 5.46667 4.3396 5.51028L10 9.00003C11.1008 8.35161 14.7334 6.06521 15.7227 5.47366C15.6711 5.4322 15.6168 5.39404 15.5591 5.36136L10.5017 3.20438Z"/>
</svg>
