<svg xmlns="http://www.w3.org/2000/svg" viewBox="0 0 20 20">
<path d="M19 4a1 1 0 0 1 1 1v14a1 1 0 0 1-1 1H5a1 1 0 0 1-1-1V5a1 1 0 0 1 1-1zm-4.43 6.731-1.604.947-.466.273v5.485l3.871-1.753c.38-.172.629-.589.629-1.052V9.3l-.001-.009c-.487.29-1.48.88-2.429 1.44M7 9.368v5.33c0 .429.214.821.553 1.013l3.947 1.682V11.95L7.005 9.295Q7 9.332 7 9.368m5.401-2.805a.9.9 0 0 0-.818-.038L7.629 8.317a1 1 0 0 0-.157.091L12 11.086l.458-.27 1.604-.946a646 646 0 0 0 2.516-1.491 1 1 0 0 0-.13-.09z" />
<path d="M0 1a1 1 0 0 1 1-1h16a1 1 0 0 1 1 1v2H4a1 1 0 0 0-1 1v14H1a1 1 0 0 1-1-1z" />
</svg>