<svg viewBox="0 0 20 20" xmlns="http://www.w3.org/2000/svg">
<path d="M3 1C4.65685 1 6 2.34314 6 4C6 5.30573 5.16452 6.41299 4 6.8252V13C4 13.8458 4.21072 14.2966 4.45703 14.543C4.70335 14.7893 5.15414 15 6 15H10.5859L9.29297 13.707C8.90245 13.3165 8.90247 12.6835 9.29297 12.293C9.68349 11.9024 10.3165 11.9024 10.707 12.293L13.707 15.293L13.7715 15.3643C13.813 15.4145 13.8487 15.4678 13.8789 15.5234C13.9231 15.6048 13.9556 15.6909 13.9756 15.7793L13.9902 15.8623C13.9943 15.8921 13.9976 15.9221 13.999 15.9521V16.0479C13.9983 16.0629 13.9955 16.0778 13.9941 16.0928C13.9844 16.1972 13.9595 16.3006 13.917 16.3984C13.8855 16.4709 13.8444 16.5397 13.7949 16.6045C13.7884 16.6131 13.7823 16.6224 13.7754 16.6309L13.707 16.707L10.707 19.707C10.3166 20.0974 9.68346 20.0974 9.29297 19.707C8.90247 19.3166 8.90255 18.6835 9.29297 18.293L10.5859 17H6C4.84587 17 3.79665 16.7107 3.04297 15.957C2.28929 15.2033 2 14.1541 2 13V6.8252C0.835484 6.41299 0 5.30573 0 4C2.19046e-06 2.34314 1.34315 1 3 1ZM9.29297 0.292969C9.68349 -0.0975553 10.3165 -0.0975553 10.707 0.292969C11.0976 0.683498 11.0976 1.31652 10.707 1.70703L9.41406 3H14C15.1541 3 16.2034 3.28929 16.957 4.04297C17.7107 4.79665 18 5.84586 18 7V13.1738C19.1647 13.5859 20 14.6941 20 16C20 17.6568 18.6569 19 17 19C15.3431 19 14 17.6568 14 16C14 14.6941 14.8353 13.5859 16 13.1738V7C16 6.15414 15.7893 5.70335 15.543 5.45703C15.2966 5.21072 14.8459 5 14 5H9.41406L10.707 6.29297C11.0975 6.68351 11.0976 7.31654 10.707 7.70703C10.3166 8.09741 9.68346 8.09741 9.29297 7.70703L6.29297 4.70703L6.22461 4.63086C6.21771 4.6224 6.21166 4.61312 6.20508 4.60449C6.13316 4.51018 6.07975 4.40665 6.0459 4.29785C6.02568 4.23305 6.01258 4.16661 6.00586 4.09961C6.00415 4.08236 6.00179 4.06516 6.00098 4.04785V3.95215C6.00239 3.9221 6.00566 3.89215 6.00977 3.8623L6.02441 3.7793C6.03301 3.74121 6.0455 3.70406 6.05859 3.66699C6.09658 3.55922 6.15243 3.4564 6.22852 3.36426L6.29297 3.29297L9.29297 0.292969ZM17 15C16.4477 15 16 15.4477 16 16C16 16.5523 16.4477 17 17 17C17.5523 17 18 16.5523 18 16C18 15.4477 17.5523 15 17 15ZM3 3C2.44772 3 2 3.44771 2 4C2 4.55228 2.44772 5 3 5C3.55228 5 4 4.55228 4 4C4 3.44771 3.55228 3 3 3Z" fill="black"/>
</svg>
