<svg viewBox="0 0 20 20" xmlns="http://www.w3.org/2000/svg">
<path d="M18 2C19.1046 2 20 2.89543 20 4V16C20 17.1046 19.1046 18 18 18H2C0.895431 18 0 17.1046 0 16V4C1.9328e-07 2.89543 0.89543 2 2 2H18ZM10 6.81836C9.99975 5.77515 8.69728 5.33395 8.05664 6.11133L7.99707 6.19043L6.5 8.33984L5.00293 6.19043L4.94336 6.11133C4.30273 5.33395 3.00025 5.77514 3 6.81836V13C3 13.5523 3.44772 14 4 14C4.55228 14 5 13.5523 5 13V9.68652L5.26855 10.0732L5.38867 10.2236C6.022 10.9267 7.17195 10.8768 7.73145 10.0732L8 9.68652V13C8 13.5523 8.44771 14 9 14C9.55229 14 10 13.5523 10 13V6.81836ZM14 6C13.4477 6 13 6.44772 13 7V10.2363L12.2686 9.35938L12.1992 9.28418C11.8371 8.92957 11.2571 8.89997 10.8594 9.23145C10.4617 9.56293 10.3865 10.1385 10.6699 10.5586L10.7314 10.6406L13.0781 13.4561L13.1621 13.5449C13.3405 13.8187 13.6489 14 14 14C14.3481 14 14.6539 13.8216 14.833 13.5518C14.8639 13.5218 14.8936 13.49 14.9219 13.4561L17.2686 10.6406L17.3301 10.5586C17.6135 10.1385 17.5383 9.56293 17.1406 9.23145C16.7429 8.89997 16.1629 8.92957 15.8008 9.28418L15.7314 9.35938L15 10.2363V7C15 6.44772 14.5523 6 14 6Z"/>
</svg>
