<svg viewBox="0 0 20 20" xmlns="http://www.w3.org/2000/svg">
<path d="M0 11V9H2C2.55228 9 3 9.44772 3 10C3 10.5523 2.55228 11 2 11H0ZM20 9V11H17C16.4477 11 16 10.5523 16 10C16 9.44772 16.4477 9 17 9H20ZM5 9C4.44772 9 4 9.44772 4 10C4 10.5523 4.44772 11 5 11H8C8.55228 11 9 10.5523 9 10C9 9.44772 8.55228 9 8 9H5ZM10 10C10 9.44772 10.4477 9 11 9H14C14.5523 9 15 9.44772 15 10C15 10.5523 14.5523 11 14 11H11C10.4477 11 10 10.5523 10 10Z"/>
<path d="M17 0H15V4H4V0H2V5C2 5.55 2.45 6 3 6H16C16.55 6 17 5.55 17 5V0Z"/>
<path d="M2 20L4 20V16L15 16V20H17V15C17 14.45 16.55 14 16 14L3 14C2.45 14 2 14.45 2 15V20Z"/>
</svg>
