<svg xmlns="http://www.w3.org/2000/svg" viewBox="0 0 20 20">
  <path d="M14 0H4C3.45 0 3 0.45 3 1V19C3 19.55 3.45 20 4 20H14C14.55 20 15 19.55 15 19V14.6583C14.374 14.8796 13.7006 15 13 15V16H5V3H13C13.7014 3 14.3746 3.12034 15 3.34142V1C15 0.45 14.55 0 14 0ZM9 19C8.45 19 8 18.55 8 18C8 17.45 8.45 17 9 17C9.55 17 10 17.45 10 18C10 18.55 9.55 19 9 19ZM13 4C13.7111 4 14.3875 4.14846 15 4.41607C16.2233 4.95056 17.1914 5.96036 17.6708 7.21191C17.8835 7.76722 18 8.3704 18 9C18 10.019 17.6951 10.967 17.1716 11.7573L19.7056 14.2915C20.0962 14.6819 20.0962 15.3152 19.7056 15.7056C19.3151 16.0962 18.6819 16.0962 18.2914 15.7056L15.7574 13.1716C15.5185 13.3298 15.2653 13.468 15 13.5839C14.3875 13.8515 13.7111 14 13 14C10.553 14 8.51653 12.2422 8.08453 9.92041C8.02902 9.62207 8 9.31445 8 9C8.02109 6.27559 10.259 4 13 4ZM13 6C11.3431 6 10 7.34326 10 9C10 10.6567 11.3431 12 13 12C13.7684 12 14.4692 11.7111 15 11.2361C15.6137 10.6867 16 9.88844 16 9C16 8.11156 15.6137 7.31327 15 6.76393C14.4692 6.28888 13.7684 6 13 6Z"/>
</svg>
