<svg xmlns="http://www.w3.org/2000/svg" viewBox="0 0 20 20">
  <path fill-rule="evenodd" d="M3.0962 9.52215C3.43954 10.2088 2.76761 11.4031 1.99774 12.7715C1.20553 14.1796 0.309611 15.772 0.309611 17.1853C0.309611 17.4104 0.548182 17.6106 0.746102 17.738C0.91112 17.8442 1.10769 17.8819 1.30392 17.8819H4.89759C5.44171 17.8819 5.8828 17.4408 5.8828 16.8967C5.8828 16.6354 5.9866 16.3848 6.17136 16.2001L6.33314 16.0383C6.49085 15.8806 6.57945 15.6667 6.57945 15.4437C6.57945 15.2206 6.66804 15.0067 6.82575 14.849L6.92777 14.747C7.1508 14.524 7.2761 14.2215 7.2761 13.9061V13.702C7.2761 13.3173 7.588 13.0054 7.97274 13.0054H11.456C12.2255 13.0054 12.8493 12.3816 12.8493 11.6121V10.2188C12.8493 9.44931 13.4731 8.82551 14.2426 8.82551H17.0292H18.4225C19.192 8.82551 19.8158 8.2017 19.8158 7.43221V6.31451C19.8158 6.23225 19.849 6.15348 19.9079 6.09606C19.9668 6.03864 20 5.95982 20 5.87756V5.38454C20 5.28658 19.9676 5.19132 19.9079 5.11368C19.8482 5.03604 19.8158 4.94083 19.8158 4.84287V4.64562C19.8158 4.26087 19.5039 3.94897 19.1191 3.94897H18.7708C18.5784 3.94897 18.4225 3.79302 18.4225 3.60064C18.4225 3.40827 18.2665 3.25232 18.0741 3.25232H17.9299C17.7992 3.25232 17.6739 3.30422 17.5815 3.3966L17.3775 3.60064C17.1545 3.82367 16.852 3.94897 16.5366 3.94897H3.38476C3.2 3.94897 3.02281 3.87557 2.89216 3.74492C2.62012 3.47287 2.17902 3.47287 1.90697 3.74492C1.77632 3.87557 1.59913 3.94897 1.41437 3.94897H1.00627C0.621522 3.94897 0.309622 4.26087 0.309622 4.64562V7.1033C0.309622 7.3196 0.25707 7.53179 0.177977 7.73311C0.0170476 8.14273 -0.178051 8.82551 0.309611 8.82551C0.421854 8.82551 0.557631 8.81832 0.70848 8.81034C1.49391 8.76879 2.68794 8.70563 3.0962 9.52215ZM7.66735 12.3087H10.8789C11.2484 12.3087 11.6028 12.162 11.8641 11.9007L12.0507 11.7141C12.116 11.6488 12.1527 11.5602 12.1527 11.4678V10.7959C12.1527 10.4264 12.0059 10.072 11.7446 9.81071L11.5581 9.62417C11.4927 9.55885 11.4041 9.52215 11.3118 9.52215H9.71441C9.52204 9.52215 9.36609 9.6781 9.36609 9.87048V10.1133C9.36609 10.1821 9.38644 10.2493 9.42459 10.3066L9.79331 10.8596C10.0045 11.1764 9.62707 11.5539 9.31027 11.3427L8.75719 10.9739C8.69997 10.9358 8.63274 10.9154 8.56397 10.9154H8.12551C8.04117 10.9154 7.97279 10.8471 7.97279 10.7627C7.97279 10.5826 7.71559 10.551 7.67191 10.7257L7.37102 11.9292C7.32283 12.122 7.46863 12.3087 7.66735 12.3087ZM2.26377 6.25C2.15929 6.25 2.06171 6.30222 2.00376 6.38916L1.79542 6.70166C1.65697 6.90933 1.80585 7.1875 2.05544 7.1875H18.1793C18.2838 7.1875 18.3813 7.13528 18.4393 7.04834L18.6476 6.73584C18.7861 6.52817 18.6372 6.25 18.3876 6.25H2.26377Z"/>
</svg>
