<svg viewBox="0 0 20 20" xmlns="http://www.w3.org/2000/svg">
<path d="M6 13C6.55229 13 7 13.4477 7 14C7 14.5523 6.55229 15 6 15H4.2998C5.60342 16.32 7.78259 17 10 17C11.174 17 12.3169 16.704 13.3311 16.1553L14.791 17.6152C13.3669 18.5112 11.7093 19 10 19C7.56132 19 4.81802 18.2828 3 16.5283V18C3 18.5523 2.55228 19 2 19C1.44772 19 1 18.5523 1 18V14C1 13.4477 1.44772 13 2 13H6Z"/>
<path d="M18 9C18.5523 9 19 9.44772 19 10C19 11.7069 18.5127 13.3624 17.6191 14.7852L16.1582 13.3252C16.705 12.3125 17 11.1717 17 10C17 9.44772 17.4477 9 18 9Z"/>
<path d="M3.84375 6.66797C3.29486 7.68217 3 8.82591 3 10C3 10.5523 2.55228 11 2 11C1.44772 11 1 10.5523 1 10C1 8.29057 1.48777 6.63218 2.38379 5.20801L3.84375 6.66797Z"/>
<path d="M18 1C18.5523 1 19 1.44772 19 2V6C19 6.55228 18.5523 7 18 7H14C13.4477 7 13 6.55228 13 6C13 5.44772 13.4477 5 14 5H15.7002C14.3966 3.67996 12.2174 3 10 3C8.82694 3 7.68443 3.29481 6.6709 3.84277L5.20996 2.38184C6.63363 1.48673 8.29148 1 10 1C12.4387 1 15.182 1.71715 17 3.47168V2C17 1.44772 17.4477 1 18 1Z"/>
<path d="M2 1C2.27994 1 2.52997 1.10988 2.70996 1.2998L18.71 17.29C18.89 17.47 19 17.72 19 18C19 18.55 18.55 19 18 19C17.7201 19 17.47 18.8901 17.29 18.7002L1.29004 2.70996C1.11004 2.52996 1 2.28 1 2C1 1.45 1.45 1 2 1Z"/>
</svg>