<svg viewBox="0 0 20 20" xmlns="http://www.w3.org/2000/svg">
<path d="M5 0H2H1C0.447715 0 0 0.447715 0 1V2V5H2L2 2H5V0ZM18 15V18H15V20H18H19C19.5523 20 20 19.5523 20 19V18V15H18ZM0 18V15H2L2 18H5V20H2H1C0.447715 20 0 19.5523 0 19V18ZM8 0H12V2H8V0ZM18 8V12H20V8H18ZM0 12V8H2L2 12H0ZM12 18H8V20H12V18ZM19.548 0.45195C18.9455 -0.15065 17.9684 -0.15065 17.3658 0.45195L16.2747 1.54305L18.4569 3.72526L19.548 2.63416C20.1507 2.03156 20.1507 1.05455 19.548 0.45195ZM15.5471 2.27046L17.7294 4.45266L9.72793 12.4541L7.54573 10.2719L15.5471 2.27046ZM6.8185 10.9993L9.00071 13.1815L5 15L6.8185 10.9993Z"/>
</svg>
