<svg viewBox="0 0 20 20" xmlns="http://www.w3.org/2000/svg">
<path d="M6.30809 8.3063C6.71249 7.89837 7.36759 7.89831 7.77196 8.3063L10.7007 11.2614L10.772 11.3405C11.1036 11.7509 11.0797 12.3564 10.7007 12.7389L7.77196 15.694C7.36766 16.1018 6.71247 16.1017 6.30809 15.694C5.90369 15.286 5.90369 14.6245 6.30809 14.2165L7.3745 13.1393C6.19262 13.2681 5.12 13.4814 4.24657 13.7643C3.20698 14.1012 2.48938 14.5226 2.17821 14.9811C2.02193 15.2115 1.97216 15.4455 2.02391 15.6754C2.07592 15.906 2.23052 16.1355 2.48778 16.3561C3.00121 16.7963 3.90052 17.1822 5.08153 17.4704C6.2629 17.7586 7.67986 17.9372 9.17039 17.986C10.6609 18.0348 12.1653 17.952 13.5122 17.7467C14.8591 17.5413 15.9955 17.2212 16.7895 16.8239C17.1862 16.6254 17.4903 16.412 17.6948 16.1891C17.9005 15.9649 18.0044 15.7324 18.0044 15.4997C18.0045 14.9475 18.4522 14.4997 19.0044 14.4997C19.5565 14.4997 20.0043 14.9475 20.0044 15.4997C20.0044 16.3753 19.6022 17.0678 19.1684 17.5407C18.7433 18.0042 18.2101 18.3497 17.6841 18.6129C16.6315 19.1393 15.2694 19.5014 13.8139 19.7233C12.3349 19.9489 10.7069 20.0375 9.10497 19.985C7.50624 19.9327 5.94829 19.7399 4.60692 19.4128C3.32702 19.1005 2.05926 18.6224 1.18602 17.8737C0.73217 17.4845 0.251143 16.9067 0.0727386 16.1149C-0.119819 15.26 0.109228 14.4679 0.522934 13.8581C1.23139 12.814 2.5139 12.2235 3.62938 11.862C4.78323 11.4882 6.16266 11.2367 7.61864 11.1061L6.30809 9.78384C5.90369 9.37582 5.90369 8.71433 6.30809 8.3063ZM11.2368 0.306305C11.6412 -0.10166 12.2963 -0.101701 12.7007 0.306305C13.1049 0.714322 13.105 1.37584 12.7007 1.78384L11.4556 3.03873C12.8842 3.11506 14.2635 3.30359 15.4653 3.6022C16.2505 3.79732 16.9817 4.0445 17.6118 4.35123C18.216 4.64533 18.8645 5.0601 19.3384 5.65884C19.8587 6.31647 20.1806 7.23567 19.9028 8.24478C19.6563 9.13959 19.0307 9.74873 18.4868 10.1354C17.4063 10.9035 15.822 11.3837 14.1763 11.6647C13.632 11.7575 13.116 11.3916 13.0229 10.8473C12.9302 10.3031 13.296 9.78693 13.8403 9.694C15.3903 9.42934 16.6165 9.01098 17.3276 8.50552C17.6837 8.25236 17.9004 7.98505 17.9751 7.71451C18.049 7.44578 17.984 7.16946 17.77 6.89908C17.5579 6.63129 17.2071 6.37802 16.7368 6.14908C16.266 5.91992 15.675 5.71442 14.9839 5.54263C13.9752 5.292 12.7929 5.12313 11.5415 5.04654L12.7007 6.21646C13.105 6.62448 13.105 7.28598 12.7007 7.694C12.2963 8.1017 11.6411 8.10169 11.2368 7.694L8.30809 4.73892C7.92893 4.35637 7.90499 3.75086 8.2368 3.34048L8.30809 3.26138L11.2368 0.306305ZM4.91454 3.51431C5.45339 3.39401 5.98837 3.73331 6.10887 4.27213C6.22927 4.81104 5.88991 5.34593 5.35106 5.46646C4.58997 5.63654 3.93602 5.84538 3.41356 6.08267C2.8913 6.31993 2.49944 6.58577 2.26317 6.8688C2.02451 7.15481 1.95458 7.44649 2.03856 7.73013C2.12341 8.01641 2.36676 8.29891 2.7661 8.56412C3.22585 8.86967 3.35066 9.49088 3.04539 9.95084C2.73981 10.4105 2.11957 10.5353 1.65965 10.2301C1.07976 9.84496 0.396165 9.22821 0.12059 8.29849C-0.196083 7.22961 0.166315 6.26066 0.728012 5.58755C1.23758 4.97706 1.9347 4.55842 2.58641 4.26236C3.26749 3.95299 4.05992 3.7053 4.91454 3.51431Z"/>
</svg>
