<svg viewBox="0 0 20 20" xmlns="http://www.w3.org/2000/svg">
<path d="M7.12988 2.02051C6.24 2.67047 5.50963 3.43012 4.92969 4.29004C4.03974 5.61999 3.30975 7.22999 2.75977 9.12988C2.19977 11.0299 1.91992 12.8202 1.91992 14.4902C1.91994 15.5501 2.16047 16.6998 2.65039 17.9297L2.49023 18.4805C0.830234 16.1905 0 13.9001 0 11.6201C6.79419e-07 10.3102 0.280154 9.01038 0.830078 7.73047C1.49008 6.22047 2.46023 4.88973 3.74023 3.71973C4.72017 2.82986 5.91019 2.08993 7.29004 1.5L7.12988 2.02051Z"/>
<path d="M9.45996 5.87988C10.05 6.82988 10.4602 7.88051 10.7002 9.02051C11.3002 8.10051 11.7603 7.45008 12.0703 7.08008C12.4801 6.58032 12.8199 6.26038 13.0898 6.11035C13.3598 5.96035 13.6502 5.88965 13.9502 5.88965C14.2901 5.88969 14.5505 5.98972 14.7305 6.17969C14.9105 6.36969 15 6.6202 15 6.9502C15 7.26006 14.9103 7.51023 14.7305 7.7002C14.5505 7.8902 14.3198 7.99023 14.0498 7.99023C13.8499 7.99021 13.63 7.94985 13.3701 7.87988C13.1201 7.80988 12.9398 7.77051 12.8398 7.77051C12.5799 7.77055 12.3296 7.87058 12.0996 8.06055C11.7697 8.3207 11.3799 8.88085 10.9102 9.73047C11.2582 10.9846 11.5603 11.9191 11.8135 12.5322L9.76465 13.6709L9.75684 13.6738C9.57504 13.2611 9.36124 12.6647 9.12012 11.8896C8.40021 12.8395 7.82991 13.5297 7.41992 13.9697C7.01009 14.4095 6.67034 14.7 6.40039 14.8301C6.13047 14.96 5.84017 15.0302 5.53027 15.0303C5.21027 15.0303 4.95953 14.9302 4.76953 14.7402C4.57967 14.5403 4.49026 14.3001 4.49023 13.9902C4.49023 13.6704 4.58998 13.4004 4.7998 13.1904C5.0098 12.9804 5.27008 12.8701 5.58008 12.8701C5.75006 12.8701 5.94042 12.9205 6.15039 13.0205C6.46014 13.1704 6.68038 13.25 6.82031 13.25C7.00019 13.25 7.15989 13.2196 7.2998 13.1396C7.47976 13.0497 7.7201 12.8404 8 12.5205C8.18 12.3205 8.48996 11.8998 8.95996 11.2598C8.37016 8.99056 7.90028 7.64076 7.57031 7.19043C7.36031 6.90043 7.08953 6.75977 6.76953 6.75977C6.59967 6.7598 6.39987 6.78015 6.16016 6.83008L6.21973 6.46973L9.45996 5.87988Z"/>
<path d="M17.5098 1.5C19.1698 3.79 20 6.08059 20 8.35059C19.9999 9.67034 19.7198 10.98 19.1699 12.2598C19.0746 12.4796 18.9713 12.6956 18.8623 12.9082L16.9277 11.833C17.1258 11.2691 17.3035 10.6874 17.46 10.0898C17.8799 8.44998 18.0898 6.92013 18.0898 5.49023C18.0898 4.43025 17.8503 3.28002 17.3604 2.04004L17.5098 1.5Z"/>
<path d="M10.25 15.4451L14.75 17.9451C14.85 17.9951 14.9 17.9951 15 17.9951C15.1 17.9951 15.15 17.9951 15.25 17.9451L19.75 15.4451C19.9 15.3451 20 15.1951 20 14.9951C20 14.7951 19.9 14.6451 19.75 14.5451L15.25 12.0451C15.15 11.9951 15.1 11.9951 15 11.9951C14.9 11.9951 14.85 11.9951 14.75 12.0451L10.25 14.5451C10.1 14.6451 10 14.7951 10 14.9951C10 15.1951 10.1 15.3451 10.25 15.4451Z"/>
<path d="M19.5 16.4951C19.4 16.4951 19.35 16.4951 19.25 16.5451L15 18.9451L10.75 16.5451C10.65 16.4951 10.6 16.4951 10.5 16.4951C10.2 16.4951 10 16.6951 10 16.9951C10 17.1951 10.1 17.3451 10.25 17.4451L14.75 19.9451C14.85 19.9951 14.9 19.9951 15 19.9951C15.1 19.9951 15.15 19.9951 15.25 19.9451L19.75 17.4451C19.9 17.3451 20 17.1951 20 16.9951C20 16.6951 19.8 16.4951 19.5 16.4951Z"/>
</svg>