<svg viewBox="0 0 20 20" xmlns="http://www.w3.org/2000/svg">
<path d="M4 6H7.5L8.5 2H11.5L12.5 6H16L17 2H20L18.9375 6H19C19.5523 6 20 6.44772 20 7C20 7.55228 19.5523 8 19 8H18.4062L18.1406 9H19C19.5523 9 20 9.44772 20 10C20 10.5523 19.5523 11 19 11H17.6094L15.75 18H12.75L10.8906 11H9.10938L7.25 18H4.25L2.39062 11H1C0.447715 11 0 10.5523 0 10C0 9.44772 0.447715 9 1 9H1.85938L1.59375 8H1C0.447715 8 0 7.55228 0 7C0 6.44772 0.447715 6 1 6H1.0625L0 2H3L4 6ZM5.75 13L6.25 11H5.25L5.75 13ZM13.75 11L14.25 13L14.75 11H13.75ZM13 8L13.25 9H15.25L15.5 8H13ZM4.75 9H6.75L7 8H4.5L4.75 9ZM9.64062 9H10.3594L10.0938 8H9.90625L9.64062 9Z"/>
</svg>
