<svg viewBox="0 0 20 20" xmlns="http://www.w3.org/2000/svg">
<path d="M16.5 9C18.433 9 20 10.567 20 12.5C20 14.433 18.433 16 16.5 16H13.4102L13.7002 16.29C13.8901 16.47 14 16.7201 14 17C14 17.55 13.55 18 13 18C12.72 18 12.47 17.89 12.29 17.71L10.29 15.71C10.1101 15.52 10 15.27 10 15C10 14.7201 10.1101 14.47 10.29 14.29L12.29 12.29C12.47 12.1101 12.72 12 13 12C13.5499 11.99 13.9999 12.4401 14 13C14 13.28 13.8899 13.53 13.71 13.71L13.4102 14H16.5C17.3284 14 18 13.3284 18 12.5C18 11.6716 17.3284 11 16.5 11H1C0.447715 11 0 10.5523 0 10C0 9.44772 0.447715 9 1 9H16.5ZM7 14C7.55228 14 8 14.4477 8 15C8 15.5523 7.55228 16 7 16H1C0.447715 16 0 15.5523 0 15C0 14.4477 0.447715 14 1 14H7ZM19 4C19.55 4 20 4.45 20 5C20 5.55 19.55 6 19 6H1C0.45 6 0 5.55 0 5C0 4.45 0.45 4 1 4H19Z" fill="#5F6B7C"/>
</svg>
