<svg viewBox="0 0 20 20" xmlns="http://www.w3.org/2000/svg">
<path d="M10 8.54596L14 2.00006H17L12.1113 10.0001H15C15.5523 10.0001 16 10.4478 16 11.0001C16 11.5523 15.5523 12.0001 15 12.0001H11.5V13.0001H15C15.5523 13.0001 16 13.4478 16 14.0001C16 14.5523 15.5523 15.0001 15 15.0001H11.5V19.0001H8.5V15.0001H5C4.44772 15.0001 4 14.5523 4 14.0001C4 13.4478 4.44772 13.0001 5 13.0001H8.5V12.0001H5C4.44772 12.0001 4 11.5523 4 11.0001C4 10.4478 4.44772 10.0001 5 10.0001H7.88867L3 2.00006H6L10 8.54596Z"/>
</svg>
