<svg width="35" height="41" viewBox="0 0 35 41" fill="none" xmlns="http://www.w3.org/2000/svg">
<path d="M17.3581 9.99413C19.5672 9.99413 21.5052 9.13148 23.172 7.40613C24.8387 5.68079 25.6722 3.67451 25.6722 1.38731C25.6722 1.13611 25.6523 0.779143 25.6126 0.316406C25.3216 0.356069 25.1033 0.389122 24.9578 0.415564C22.9206 0.706427 21.1282 1.70462 19.5804 3.41009C18.0327 5.11561 17.2589 6.94011 17.2589 8.88361C17.2589 9.10832 17.2919 9.47855 17.3581 9.99413ZM25.2753 40.3164C26.8495 40.3164 28.589 39.2389 30.4939 37.0839C32.3989 34.9289 33.8539 32.397 34.8593 29.4884C31.1157 27.5582 29.2438 24.7884 29.2438 21.1791C29.2438 18.1647 30.7585 15.5866 33.7878 13.4448C31.6845 10.8138 28.9065 9.49834 25.4539 9.49834C23.9987 9.49834 22.6693 9.71649 21.4655 10.1528L20.7115 10.4304L19.6995 10.8271C19.0381 11.0783 18.4362 11.2039 17.8938 11.2039C17.4705 11.2039 16.9149 11.0584 16.227 10.7676L15.4531 10.4503L14.719 10.1528C13.6475 9.70327 12.4966 9.47851 11.2664 9.47851C7.97246 9.47851 5.32678 10.5891 3.32926 12.8102C1.33174 15.0313 0.333008 17.9598 0.333008 21.5955C0.333008 26.712 1.93364 31.4386 5.13494 35.775C7.35735 38.8026 9.38791 40.3164 11.2267 40.3164C12.0072 40.3164 12.781 40.1644 13.5483 39.8603L14.5205 39.4636L15.2944 39.186C16.3792 38.8026 17.3779 38.6109 18.2906 38.6109C19.2563 38.6109 20.3675 38.8555 21.6243 39.3447L22.2394 39.5826C23.5225 40.0718 24.5345 40.3164 25.2753 40.3164Z" fill="#9CAEB8"/>
</svg>
