<svg width="1802" height="1802" viewBox="0 0 1802 1802" fill="none" xmlns="http://www.w3.org/2000/svg">
<path fill-rule="evenodd" clip-rule="evenodd" d="M910.686 83.8121C952.096 83.8121 987.619 108.768 1003.21 144.439C1004.76 147.999 1008.23 149.951 1011.7 149.951C1014.18 149.951 1016.67 148.944 1018.46 146.809C1037.45 124.124 1065.79 110.548 1095.88 110.548C1104.51 110.548 1113.31 111.677 1122.05 114.009C1162.12 124.75 1189.99 158.138 1195.77 196.72C1196.45 201.334 1200.57 204.33 1204.82 204.33C1206.55 204.33 1208.32 203.828 1209.89 202.734C1226.96 190.767 1247.34 184.371 1268.07 184.371C1285.17 184.371 1302.5 188.728 1318.39 197.899C1354.32 218.643 1372.6 258.109 1368.19 296.861C1367.56 302.336 1372.13 306.865 1377.26 306.865C1378.25 306.865 1379.27 306.695 1380.28 306.326C1391.48 302.251 1403.25 300.2 1415.01 300.2C1440.83 300.2 1466.63 310.033 1486.33 329.746C1515.66 359.085 1523.12 401.938 1508.83 438.223C1506.51 444.104 1511.1 450.535 1517.25 450.535C1517.53 450.535 1517.79 450.524 1518.04 450.498C1521.01 450.24 1523.96 450.105 1526.9 450.105C1561.81 450.105 1595.73 468.162 1614.43 500.572C1635.17 536.498 1631.27 579.817 1608.08 611.169C1604.17 616.46 1607.34 624.279 1613.81 625.423C1651.31 632.011 1683.44 659.537 1693.96 698.732C1704.7 738.806 1689.72 779.644 1659.2 803.925C1654.05 808.016 1655.08 816.392 1661.06 819.178C1695.56 835.244 1719.49 870.156 1719.49 910.72C1719.49 952.155 1694.54 987.662 1658.88 1003.25C1652.76 1005.93 1651.39 1014.23 1656.5 1018.51C1685.7 1042.96 1699.79 1082.89 1689.29 1122.1C1678.55 1162.19 1645.17 1190.06 1606.58 1195.83C1600.09 1196.8 1596.81 1204.57 1600.57 1209.96C1622.42 1241.12 1625.7 1283.32 1605.41 1318.48C1586.71 1350.87 1552.79 1368.92 1517.9 1368.92C1514.1 1368.92 1510.26 1368.7 1506.46 1368.28C1506.13 1368.23 1505.79 1368.21 1505.46 1368.21C1499.41 1368.21 1494.85 1374.5 1496.99 1380.36C1510.02 1416.13 1502.28 1457.73 1473.57 1486.42C1453.87 1506.14 1428.07 1515.98 1402.27 1515.98C1389.64 1515.98 1377.03 1513.61 1365.11 1508.92C1364.05 1508.5 1362.97 1508.31 1361.92 1508.31C1356.88 1508.31 1352.35 1512.72 1352.84 1518.15C1356.17 1556.07 1337.91 1594.26 1302.77 1614.55C1286.89 1623.71 1269.56 1628.06 1252.46 1628.06C1230.88 1628.06 1209.67 1621.14 1192.18 1608.19C1190.58 1607.01 1188.77 1606.48 1186.97 1606.48C1182.8 1606.48 1178.72 1609.4 1177.93 1613.92C1171.34 1651.42 1143.82 1683.58 1104.63 1694.07C1095.88 1696.42 1087.1 1697.53 1078.46 1697.53C1047.52 1697.53 1018.42 1683.18 999.441 1659.31C997.662 1657.07 995.068 1656.01 992.475 1656.01C989.117 1656.01 985.767 1657.8 984.205 1661.16C968.13 1695.66 933.219 1719.61 892.654 1719.61C851.228 1719.61 815.721 1694.66 800.13 1658.99C798.575 1655.43 795.112 1653.48 791.641 1653.48C789.161 1653.48 786.664 1654.48 784.876 1656.6C765.887 1679.3 737.547 1692.88 707.46 1692.88C698.819 1692.88 690.032 1691.75 681.295 1689.41C641.221 1678.67 613.341 1645.28 607.574 1606.71C606.89 1602.08 602.775 1599.09 598.514 1599.09C596.783 1599.09 595.019 1599.59 593.449 1600.7C576.376 1612.66 556.001 1619.06 535.271 1619.06C518.174 1619.06 500.843 1614.69 484.945 1605.51C449.019 1584.77 430.742 1545.31 435.149 1506.55C435.776 1501.08 431.21 1496.57 426.078 1496.57C425.084 1496.57 424.066 1496.73 423.06 1497.1C411.865 1501.17 400.095 1503.22 388.335 1503.22C362.511 1503.22 336.71 1493.38 317.01 1473.68C287.675 1444.33 280.226 1401.47 294.512 1365.19C296.832 1359.32 292.241 1352.88 286.08 1352.88C285.81 1352.88 285.552 1352.9 285.294 1352.91C282.337 1353.17 279.391 1353.32 276.433 1353.32C241.537 1353.32 207.612 1335.26 188.906 1302.85C168.164 1266.91 172.066 1223.59 195.265 1192.24C199.167 1186.95 196.001 1179.14 189.519 1177.99C152.034 1171.4 119.889 1143.88 109.382 1104.68C98.6423 1064.6 113.617 1023.77 144.142 999.5C149.285 995.401 148.254 987.026 142.29 984.255C107.786 968.181 83.8516 933.27 83.8516 892.689C83.8516 851.271 108.793 815.747 144.474 800.156C150.573 797.482 151.949 789.188 146.843 784.911C117.643 760.461 103.54 720.517 114.047 681.313C124.787 641.232 158.171 613.351 196.75 607.585C203.255 606.618 206.531 598.847 202.764 593.459C180.915 562.293 177.639 520.085 197.927 484.955C216.633 452.548 250.546 434.504 285.443 434.504C289.247 434.504 293.064 434.712 296.882 435.155C297.213 435.192 297.556 435.203 297.888 435.203C303.927 435.203 308.48 428.918 306.344 423.064C293.309 387.294 301.066 345.681 329.752 316.993C349.463 297.279 375.263 287.458 401.076 287.458C413.694 287.458 426.312 289.804 438.23 294.505C439.285 294.922 440.366 295.106 441.421 295.106C446.453 295.106 450.982 290.686 450.504 285.273C447.165 247.354 465.43 209.167 500.57 188.876C516.451 179.706 533.782 175.348 550.879 175.348C572.462 175.348 593.682 182.283 611.158 195.235C612.753 196.401 614.573 196.941 616.361 196.941C620.54 196.941 624.615 194.032 625.412 189.49C632 152.001 659.518 119.852 698.714 109.344C707.46 106.999 716.238 105.883 724.879 105.883C755.82 105.883 784.909 120.245 803.898 144.107C805.678 146.354 808.271 147.422 810.857 147.422C814.223 147.422 817.573 145.618 819.143 142.254C835.21 107.748 870.121 83.8121 910.686 83.8121Z" fill="black"/>
<path fill-rule="evenodd" clip-rule="evenodd" d="M1277 1297.48C1186.01 1297.48 1193.14 1169.01 1277 1169.01C1360.85 1169.01 1368 1297.48 1277 1297.48ZM525.044 1297.48C434.046 1297.48 441.186 1169.01 525.044 1169.01C608.903 1169.01 616.039 1297.48 525.044 1297.48ZM1551.92 822.85H1521.1C1465.82 822.85 1418.34 789.808 1397.09 742.446C1375.83 789.808 1328.35 822.85 1273.08 822.85C1217.79 822.85 1170.32 789.808 1149.07 742.446C1127.82 789.808 1080.34 822.85 1025.05 822.85C969.773 822.85 922.291 789.808 901.046 742.446C879.793 789.808 832.311 822.85 777.033 822.85C721.747 822.85 674.28 789.808 653.02 742.446C631.767 789.808 584.292 822.85 529.006 822.85C473.723 822.85 426.252 789.808 405.001 742.446C383.75 789.808 336.267 822.85 280.981 822.85H250.504C204.264 872.604 233.595 914.634 347.785 914.634V1170.11C347.785 1410.21 624.261 1530.27 900.74 1530.27C1177.22 1530.27 1453.69 1410.21 1453.69 1170.11V914.634C1567.98 914.634 1597.81 872.604 1551.92 822.85Z" fill="white"/>
<path fill-rule="evenodd" clip-rule="evenodd" d="M909.835 0.937744C869.351 0.937744 830.598 13.625 798.417 35.9375C776.069 27.2287 752.022 22.6222 727.266 22.6222C710.193 22.6222 693.144 24.8771 676.57 29.3161C637.407 39.808 603.22 62.1447 577.892 92.0918C570.725 91.2832 563.517 90.8725 556.293 90.8725C522.099 90.8725 488.317 99.9422 458.611 117.093C423.515 137.355 396.282 167.759 379.566 203.218C338.536 209.393 300.677 228.412 270.791 258.298C242.088 286.991 223.646 323.462 216.699 362.093C179.143 378.628 147 406.777 125.918 443.309C105.645 478.417 97.263 518.378 100.531 557.453C68.6431 582.982 44.8842 618.384 33.8607 659.497C23.3673 698.668 25.6109 739.434 38.878 776.342C14.6954 809.256 0.898438 849.612 0.898438 892.157C0.898438 932.706 13.6098 971.491 35.9836 1003.7C21.1365 1041.76 18.2534 1084.29 29.2655 1125.42C39.7703 1164.59 62.0941 1198.75 92.0283 1224.08C87.5426 1264.67 95.7667 1306.52 117.055 1343.39C137.269 1378.4 167.649 1405.73 203.216 1422.49C209.402 1462.85 228.168 1501.12 258.26 1531.22C286.929 1559.88 322.917 1578.54 362.029 1585.47C378.456 1622.79 406.461 1654.82 443.258 1676.07C472.975 1693.24 506.757 1702.31 540.952 1702.31C546.509 1702.31 552.033 1702.07 557.517 1701.61C583.038 1733.42 618.401 1757.13 659.457 1768.13C676.03 1772.56 693.079 1774.82 710.144 1774.82C733.064 1774.82 755.468 1770.84 776.496 1763.25C809.369 1787.35 849.652 1801.09 892.117 1801.09C932.61 1801.09 971.354 1788.41 1003.54 1766.09C1025.88 1774.82 1049.95 1779.41 1074.69 1779.41C1091.76 1779.41 1108.81 1777.17 1125.38 1772.71C1164.55 1762.22 1198.73 1739.88 1224.05 1709.94C1231.23 1710.75 1238.44 1711.17 1245.67 1711.17C1279.85 1711.17 1313.64 1702.08 1343.34 1684.94C1378.45 1664.68 1405.67 1634.27 1422.39 1598.82C1463.43 1592.64 1501.28 1573.61 1531.16 1543.74C1559.86 1515.03 1578.3 1478.57 1585.26 1439.95C1622.8 1423.42 1654.95 1395.27 1676.04 1358.74C1696.32 1323.62 1704.69 1283.67 1701.42 1244.6C1733.31 1219.06 1757.07 1183.66 1768.09 1142.54C1778.59 1103.36 1776.35 1062.6 1763.08 1025.71C1787.25 992.776 1801.06 952.437 1801.06 909.875C1801.06 869.342 1788.33 830.541 1765.98 798.336C1780.81 760.284 1783.69 717.738 1772.68 676.61C1762.19 637.447 1739.87 603.284 1709.93 577.957C1714.42 537.36 1706.19 495.519 1684.9 458.649C1664.68 423.625 1634.3 396.308 1598.74 379.544C1592.56 339.189 1573.79 300.921 1543.69 270.829C1515.02 242.161 1479.04 223.492 1439.93 216.569C1423.52 179.253 1395.51 147.209 1358.7 125.958C1328.99 108.807 1295.21 99.7376 1261.02 99.7376C1255.46 99.7376 1249.92 99.9664 1244.43 100.425C1218.91 68.6212 1183.55 44.8977 1142.5 33.8984C1125.93 29.461 1108.87 27.2045 1091.82 27.2045C1068.89 27.2045 1046.48 31.1973 1025.46 38.7836C992.583 14.6864 952.3 0.937744 909.835 0.937744ZM909.867 97.4118C950.56 97.4118 985.464 121.931 1000.78 156.981C1002.31 160.477 1005.71 162.396 1009.12 162.396C1011.56 162.396 1014.01 161.407 1015.77 159.308C1034.43 137.02 1062.28 123.68 1091.84 123.68C1100.33 123.68 1108.96 124.79 1117.55 127.082C1156.93 137.635 1184.32 170.439 1189.99 208.346C1190.66 212.881 1194.7 215.823 1198.88 215.823C1200.58 215.823 1202.32 215.329 1203.87 214.256C1220.65 202.497 1240.67 196.213 1261.03 196.213C1277.83 196.213 1294.86 200.494 1310.48 209.505C1345.79 229.886 1363.76 268.661 1359.41 306.737C1358.8 312.115 1363.28 316.566 1368.32 316.566C1369.3 316.566 1370.3 316.398 1371.3 316.036C1382.3 312.032 1393.86 310.017 1405.41 310.017C1430.78 310.017 1456.13 319.677 1475.49 339.047C1504.32 367.872 1511.64 409.976 1497.61 445.627C1495.32 451.404 1499.83 457.724 1505.89 457.724C1506.16 457.724 1506.4 457.712 1506.66 457.687C1509.57 457.435 1512.46 457.301 1515.37 457.301C1549.66 457.301 1582.99 475.042 1601.37 506.886C1621.76 542.184 1617.92 584.746 1595.13 615.55C1591.28 620.744 1594.41 628.427 1600.77 629.554C1637.61 636.029 1669.19 663.072 1679.52 701.575C1690.07 740.956 1675.36 781.086 1645.35 804.94C1640.31 808.95 1641.31 817.181 1647.17 819.919C1681.08 835.704 1704.59 870.003 1704.59 909.867C1704.59 950.568 1680.1 985.463 1645.05 1000.78C1639.04 1003.41 1637.69 1011.56 1642.71 1015.77C1671.4 1039.79 1685.25 1079.03 1674.93 1117.55C1664.38 1156.93 1631.57 1184.32 1593.67 1189.99C1587.27 1190.94 1584.05 1198.57 1587.76 1203.87C1609.23 1234.49 1612.45 1275.96 1592.51 1310.48C1574.13 1342.31 1540.81 1360.06 1506.51 1360.06C1502.78 1360.06 1499.01 1359.83 1495.27 1359.41C1494.95 1359.38 1494.61 1359.35 1494.31 1359.35C1488.35 1359.35 1483.88 1365.53 1485.98 1371.3C1498.78 1406.43 1491.16 1447.31 1462.96 1475.49C1443.6 1494.87 1418.25 1504.53 1392.9 1504.53C1380.5 1504.53 1368.09 1502.21 1356.38 1497.61C1355.35 1497.19 1354.29 1496.99 1353.24 1496.99C1348.3 1496.99 1343.85 1501.34 1344.32 1506.68C1347.61 1543.91 1329.66 1581.44 1295.13 1601.37C1279.52 1610.39 1262.49 1614.67 1245.69 1614.67C1224.49 1614.67 1203.65 1607.86 1186.47 1595.13C1184.9 1593.97 1183.11 1593.44 1181.35 1593.44C1177.25 1593.44 1173.24 1596.32 1172.46 1600.77C1165.99 1637.61 1138.94 1669.21 1100.43 1679.52C1091.84 1681.82 1083.21 1682.91 1074.72 1682.91C1044.32 1682.91 1015.74 1668.8 997.076 1645.35C995.329 1643.16 992.784 1642.12 990.239 1642.12C986.929 1642.12 983.643 1643.87 982.105 1647.17C966.313 1681.08 932.006 1704.59 892.15 1704.59C851.44 1704.59 816.553 1680.1 801.235 1645.05C799.705 1641.55 796.299 1639.64 792.892 1639.64C790.452 1639.64 788.004 1640.6 786.24 1642.71C767.589 1664.99 739.74 1678.34 710.176 1678.34C701.688 1678.34 693.055 1677.23 684.462 1674.93C645.089 1664.38 617.7 1631.57 612.03 1593.68C611.354 1589.13 607.311 1586.19 603.132 1586.19C601.424 1586.19 599.693 1586.68 598.147 1587.77C581.371 1599.53 561.351 1605.81 540.976 1605.81C524.177 1605.81 507.152 1601.53 491.53 1592.51C456.229 1572.13 438.27 1533.35 442.601 1495.27C443.216 1489.89 438.729 1485.46 433.688 1485.46C432.712 1485.46 431.71 1485.61 430.721 1485.98C419.722 1489.99 408.155 1492 396.602 1492C371.226 1492 345.874 1482.34 326.517 1462.98C297.693 1434.15 290.371 1392.04 304.409 1356.38C306.69 1350.62 302.178 1344.29 296.124 1344.29C295.86 1344.29 295.605 1344.3 295.352 1344.32C292.445 1344.58 289.551 1344.71 286.645 1344.71C252.356 1344.71 219.021 1326.97 200.64 1295.13C180.257 1259.83 184.092 1217.26 206.888 1186.47C210.723 1181.26 207.611 1173.58 201.243 1172.46C164.41 1165.99 132.823 1138.94 122.499 1100.43C111.946 1061.06 126.661 1020.93 156.655 997.084C161.709 993.058 160.696 984.835 154.835 982.105C120.932 966.321 97.4128 932.021 97.4128 892.149C97.4128 851.456 121.921 816.553 156.982 801.235C162.975 798.61 164.326 790.452 159.309 786.256C130.617 762.233 116.759 722.989 127.083 684.462C137.636 645.089 170.44 617.7 208.347 612.03C214.739 611.072 217.96 603.437 214.257 598.146C192.788 567.528 189.569 526.061 209.506 491.542C227.885 459.702 261.21 441.972 295.497 441.972C299.236 441.972 302.987 442.178 306.738 442.612C307.064 442.649 307.4 442.66 307.727 442.66C313.661 442.66 318.135 436.485 316.037 430.731C303.229 395.588 310.85 354.701 339.035 326.516C358.405 307.146 383.757 297.498 409.12 297.498C421.519 297.498 433.917 299.802 445.628 304.421C446.665 304.832 447.726 305.012 448.764 305.012C453.708 305.012 458.159 300.67 457.688 295.352C454.407 258.097 472.353 220.576 506.886 200.639C522.493 191.629 539.518 187.348 556.317 187.348C577.522 187.348 598.372 194.163 615.55 206.887C617.12 208.032 618.9 208.564 620.664 208.564C624.763 208.564 628.765 205.705 629.555 201.242C636.029 164.409 663.072 132.822 701.575 122.498C710.176 120.195 718.802 119.098 727.29 119.098C757.699 119.098 786.28 133.209 804.94 156.654C806.688 158.862 809.232 159.911 811.777 159.911C815.079 159.911 818.373 158.137 819.919 154.834C835.704 120.931 870.003 97.4118 909.867 97.4118Z" fill="white"/>
</svg>
