<?xml version="1.0" encoding="UTF-8" standalone="no"?>
<!-- Created with Inkscape (http://www.inkscape.org/) -->

<svg
   width="1000px"
   height="1000px"
   viewBox="0 0 1000 1000"
   version="1.1"
   id="svg1"
   style="background: #9c0510; border-radius: 5%;"
   xml:space="preserve"
   inkscape:version="1.4 (e7c3feb, 2024-10-09)"
   sodipodi:docname="logo-components.svg"
   inkscape:export-filename="3-logo.png"
   inkscape:export-xdpi="96"
   inkscape:export-ydpi="96"
   xmlns:inkscape="http://www.inkscape.org/namespaces/inkscape"
   xmlns:sodipodi="http://sodipodi.sourceforge.net/DTD/sodipodi-0.dtd"
   xmlns="http://www.w3.org/2000/svg"
   xmlns:svg="http://www.w3.org/2000/svg"><sodipodi:namedview
     id="namedview1"
     pagecolor="#9c0510"
     bordercolor="#000000"
     borderopacity="0.25"
     inkscape:showpageshadow="2"
     inkscape:pageopacity="0.0"
     inkscape:pagecheckerboard="0"
     inkscape:deskcolor="#d1d1d1"
     inkscape:document-units="mm"
     inkscape:zoom="0.5545"
     inkscape:cx="212.80433"
     inkscape:cy="412.98467"
     inkscape:window-width="1920"
     inkscape:window-height="1011"
     inkscape:window-x="0"
     inkscape:window-y="0"
     inkscape:window-maximized="1"
     inkscape:current-layer="layer2"
     inkscape:export-bgcolor="#9c0510ff" /><defs
     id="defs1"><inkscape:path-effect
       effect="fillet_chamfer"
       id="path-effect2"
       is_visible="true"
       lpeversion="1"
       nodesatellites_param="F,0,0,1,0,4,0,1 @ F,0,0,1,0,4,0,1 @ F,0,0,1,0,4,0,1 @ F,0,0,1,0,4,0,1 @ F,0,0,1,0,4.0000051,0,1 @ F,0,0,1,0,4,0,1 @ F,0,0,1,0,4,0,1 @ F,0,0,1,0,4.0000051,0,1 @ F,0,0,1,0,4,0,1 @ F,0,0,1,0,4,0,1 @ F,0,0,1,0,4,0,1 @ F,0,0,1,0,4,0,1 @ F,0,0,1,0,4,0,1 @ F,0,0,1,0,4,0,1 @ F,0,0,1,0,4,0,1 @ F,0,0,1,0,4,0,1 @ F,0,0,1,0,4.0000006,0,1 @ F,0,0,1,0,4,0,1 @ F,0,0,1,0,4,0,1 @ F,0,0,1,0,4.0000006,0,1 @ F,0,0,1,0,4,0,1 @ F,0,0,1,0,4,0,1 @ F,0,0,1,0,4,0,1 @ F,0,0,1,0,4,0,1 @ F,0,0,1,0,4,0,1 @ F,0,0,1,0,4,0,1 @ F,0,0,1,0,4,0,1 @ F,0,0,1,0,4,0,1 @ F,0,0,1,0,4,0,1 @ F,0,0,1,0,4.0000051,0,1 @ F,0,0,1,0,4,0,1 @ F,0,0,1,0,4,0,1 @ F,0,0,1,0,4.0000051,0,1 @ F,0,0,1,0,4,0,1 @ F,0,0,1,0,4,0,1 @ F,0,0,1,0,4,0,1 @ F,0,0,1,0,4,0,1 @ F,0,0,1,0,4,0,1 @ F,0,0,1,0,4,0,1 @ F,0,0,1,0,4,0,1 @ F,0,0,1,0,4,0,1 @ F,0,0,1,0,4.0000006,0,1 @ F,0,0,1,0,4,0,1 @ F,0,0,1,0,4,0,1 @ F,0,0,1,0,4.0000006,0,1 @ F,0,0,1,0,4,0,1 @ F,0,0,1,0,4,0,1 @ F,0,0,1,0,4,0,1 @ F,0,0,1,0,4,0,1"
       radius="5"
       unit="px"
       method="auto"
       mode="F"
       chamfer_steps="1"
       flexible="false"
       use_knot_distance="true"
       apply_no_radius="true"
       apply_with_radius="true"
       only_selected="false"
       hide_knots="false" /><inkscape:path-effect
       effect="fillet_chamfer"
       id="path-effect1"
       is_visible="true"
       lpeversion="1"
       nodesatellites_param="F,0,1,1,0,0,0,1 @ F,0,0,1,0,28.532998,0,1 @ F,0,1,1,0,0,0,1"
       radius="0"
       unit="px"
       method="auto"
       mode="F"
       chamfer_steps="1"
       flexible="false"
       use_knot_distance="true"
       apply_no_radius="true"
       apply_with_radius="true"
       only_selected="false"
       hide_knots="false" /><inkscape:path-effect
       effect="fillet_chamfer"
       id="path-effect1-7"
       is_visible="true"
       lpeversion="1"
       nodesatellites_param="F,0,1,1,0,0,0,1 @ F,0,0,1,0,28.532998,0,1 @ F,0,1,1,0,0,0,1"
       radius="0"
       unit="px"
       method="auto"
       mode="F"
       chamfer_steps="1"
       flexible="false"
       use_knot_distance="true"
       apply_no_radius="true"
       apply_with_radius="true"
       only_selected="false"
       hide_knots="false" /><inkscape:path-effect
       effect="fillet_chamfer"
       id="path-effect1-7-7"
       is_visible="true"
       lpeversion="1"
       nodesatellites_param="F,0,1,1,0,0,0,1 @ F,0,0,1,0,28.532998,0,1 @ F,0,1,1,0,0,0,1"
       radius="0"
       unit="px"
       method="auto"
       mode="F"
       chamfer_steps="1"
       flexible="false"
       use_knot_distance="true"
       apply_no_radius="true"
       apply_with_radius="true"
       only_selected="false"
       hide_knots="false" /></defs><g
     inkscape:label="Layer 1"
     inkscape:groupmode="layer"
     id="layer1"
     transform="translate(0,-37.8561)"><text
       xml:space="preserve"
       style="font-style:normal;font-variant:normal;font-weight:normal;font-stretch:normal;font-size:189.743px;line-height:0;font-family:'Rubik Wet Paint';-inkscape-font-specification:'Rubik Wet Paint';text-align:start;writing-mode:lr-tb;direction:ltr;text-anchor:start;display:inline;vector-effect:non-scaling-stroke;fill:#ffffff;stroke:#ffffff;stroke-width:0.264224;stroke-opacity:1;-inkscape-stroke:hairline"
       x="46.147079"
       y="911.34955"
       id="text1-0-6"><tspan
         sodipodi:role="line"
         id="tspan1-9-2"
         style="font-style:normal;font-variant:normal;font-weight:normal;font-stretch:normal;font-size:189.743px;font-family:Rubik;-inkscape-font-specification:'Rubik, @wght=700';font-variant-ligatures:normal;font-variant-caps:normal;font-variant-numeric:normal;font-variant-east-asian:normal;font-variation-settings:'wght' 700;fill:#ffffff;stroke-width:0.264224"
         x="46.147079"
         y="911.34955">TRAQULA</tspan></text></g><g
     inkscape:groupmode="layer"
     id="layer2"
     inkscape:label="Layer 2"
     transform="matrix(0.91836734,0,0,0.91836699,40.816325,-5.3462077)"><path
       id="path1-1"
       style="fill:#ffffff;stroke:#ffffff;stroke-width:7.55906;stroke-linejoin:round;stroke-dasharray:none;stroke-opacity:1;paint-order:normal"
       d="m 433.75374,560.95698 -25.60625,23.21215 a 3.4742948,3.4742948 88.784303 0 0 0.11131,5.24484 l 25.38363,21.11961 a 1.8753962,1.8753962 154.88051 0 0 3.07488,-1.44165 v -11.27572 a 4,4 135 0 1 4,-4 l 5.16843,0 c 2.20915,0 5.81017,-0.0383 7.97567,0.38119 3.35974,0.65091 6.50982,2.11854 9.16844,4.27287 1.71374,1.38868 3.99894,4.17207 5.41893,5.86438 l 19.72784,23.51142 a 4.7667669,4.7667669 90.00228 0 1 -2.4e-4,6.12822 l -19.72736,23.50703 c -1.42012,1.6922 -3.70543,4.47549 -5.41918,5.86417 -2.65861,2.15432 -5.80869,3.62196 -9.16842,4.27286 -2.16551,0.41953 -5.76653,0.38118 -7.97567,0.38118 l -5.16844,0 a 4,4 45 0 1 -4,-4 v -11.27569 a 1.8753967,1.8753967 25.119493 0 0 -3.07488,-1.44165 l -25.38363,21.1196 a 3.4742947,3.4742947 91.215707 0 0 -0.11131,5.24484 l 25.60625,23.21216 a 1.7728722,1.7728722 156.09621 0 0 2.96357,-1.31351 v -13.62943 a 4,4 135 0 1 4,-4 h 1.86553 a 741.80319,741.80319 0.22994036 0 1 6.97691,0.028 h 0.64751 c 11.45887,-1.09276 18.45273,-4.35671 23.91253,-9.5246 1.60352,-1.51779 3.89199,-4.28225 5.31209,-5.97448 l 17.99682,-21.44552 a 3.3567511,3.3567511 179.99999 0 1 5.14262,-10e-6 l 17.99683,21.44554 c 1.4201,1.69222 3.70859,4.45666 5.31211,5.97444 5.45985,5.16791 12.45358,8.43188 19.9213,9.29482 2.19334,0.25346 4.28109,0.22981 4.6387,0.22981 h 2.97692 a 1647.765,1647.765 179.86558 0 1 9.86563,-0.028 v 17.62943 a 1.7728681,1.7728681 23.903736 0 0 2.96357,1.3135 l 25.60614,-23.21214 a 3.4743069,3.4743069 88.784292 0 0 -0.1113,-5.24485 l -25.38354,-21.1196 a 1.8753925,1.8753925 154.88056 0 0 -3.07487,1.44165 v 11.27569 a 4,4 135 0 1 -4,4 l -5.16852,0 c -2.20915,0 -5.81017,0.0383 -7.97568,-0.38118 -3.35974,-0.6509 -6.50981,-2.11854 -9.16844,-4.27286 -1.71375,-1.38868 -3.99906,-4.17197 -5.41918,-5.86417 l -19.72727,-23.50703 a 4.7667842,4.7667842 89.99772 0 1 -2.5e-4,-6.12823 l 19.72777,-23.5114 c 1.41998,-1.69232 3.7052,-4.47569 5.41895,-5.86436 2.65866,-2.15435 5.80874,-3.622 9.16852,-4.2729 2.16551,-0.41953 5.76653,-0.38119 7.97567,-0.38119 l 5.16843,0 a 4,4 45 0 1 4,4 v 11.27572 a 1.875392,1.875392 25.119438 0 0 3.07487,1.44165 l 25.38354,-21.11961 a 3.4743069,3.4743069 91.215698 0 0 0.1113,-5.24485 l -25.60614,-23.21213 a 1.7728685,1.7728685 156.09626 0 0 -2.96357,1.3135 v 13.62944 a 4,4 135 0 1 -4,4 h -1.86555 a 741.8103,741.8103 0.2299397 0 1 -6.97693,-0.028 h -0.64749 c -11.45895,1.09258 -18.45269,4.35665 -23.91249,9.52457 -1.60352,1.5178 -3.89201,4.28225 -5.3121,5.97447 l -17.99693,21.44557 a 3.3567529,3.3567529 8.240748e-5 0 1 -5.14262,-1e-5 l -17.99682,-21.44558 c -1.4201,-1.69223 -3.70857,-4.45669 -5.31209,-5.97447 -5.45979,-5.1679 -12.45365,-8.43191 -19.92133,-9.29478 -2.19333,-0.25343 -4.2811,-0.22975 -4.63871,-0.22975 h -2.97691 l -5.86555,0.0167 a 3.9886635,3.9886635 44.918693 0 1 -3.99998,-3.98865 l 0,-13.62946 a 1.7728726,1.7728726 23.903791 0 0 -2.96357,-1.31351 z"
       inkscape:path-effect="#path-effect2"
       inkscape:original-d="m 436.71731,558.27049 -31.53339,28.58513 31.53339,26.23631 v -19.27572 h 13.16844 c 6.17127,-4.5e-4 12.02585,2.72609 15.99192,7.45423 l 24.87006,29.63984 -24.87006,29.63505 c -3.96607,4.72812 -9.82065,7.45467 -15.99192,7.4542 h -13.16844 v -19.27569 l -31.53339,26.2363 31.53339,28.58514 v -21.62943 h 9.86553 l 2.97691,0.028 h 0.64751 c 10.28437,-2.9e-4 20.04389,-4.55557 26.65331,-12.43503 l 23.13944,-27.57362 23.13945,27.57362 c 6.60959,7.87946 16.36882,12.43474 26.6533,12.43503 h 0.6475 2.97692 l 7.86563,-0.028 h 2 v 21.62943 l 31.53328,-28.58514 -31.53328,-26.2363 v 19.27569 h -13.16853 c -6.17127,4.7e-4 -12.02585,-2.72608 -15.99194,-7.4542 l -24.86997,-29.63505 24.86997,-29.63984 c 3.9662,-4.72814 9.82067,-7.45468 15.99204,-7.45423 h 13.16843 v 19.27572 l 31.53328,-26.23631 -31.53328,-28.58513 v 21.62944 h -9.86555 l -2.97693,-0.028 h -0.64749 c -10.28456,6e-5 -20.04379,4.55557 -26.65328,12.435 l -23.13955,27.57365 -23.13944,-27.57368 c -6.60942,-7.87944 -16.36894,-12.43485 -26.65331,-12.43495 h -0.64751 -2.97691 l -9.86553,0.028 z"
       sodipodi:nodetypes="ccccccccccccccccscccsccccccccccccccccccccscccscccc" /><path
       id="path1"
       style="fill:#ffffff;stroke:none;stroke-width:0.810177"
       d="m 267.67531,130.01092 c -1.435,-0.04 -2.74622,0.03 -3.92735,0.208 -11.72603,1.7584 -24.22455,25.7096 -28.14354,53.9309 -2.10986,15.1934 -1.07968,38.3681 2.57644,57.9824 8.07086,43.2972 31.51642,88.08629 58.00262,110.80159 l 6.77476,5.8087 0.018,9.7222 c 0.055,30.4374 11.02021,68.6008 27.41301,95.4024 5.03578,8.2332 5.26734,8.7588 3.58678,8.1497 -0.7901,-0.286 -4.90024,-2.8025 -9.13344,-5.591 -46.53126,-30.6502 -95.83702,-100.2566 -107.78205,-152.1566 -3.29813,-14.3298 -8.08587,-16.825 -27.256,-14.2091 -26.55487,3.6236 -55.46583,17.3235 -83.85076,39.7357 -9.732524,7.6846 -30.873055,28.6145 -39.754705,39.3584 -27.63693,33.4317 -48.026909,74.0811 -55.072899,109.7926 -1.9499403,9.8828 -1.4832503,13.3424 2.31058,17.1363 3.67701,3.677 7.37295,4.1287 17.211,2.1067 12.006109,-2.4677 27.910669,-1.9782 38.583569,1.1863 14.719929,4.3645 31.883665,14.7872 41.979185,25.4911 13.5764,14.3944 23.4756,32.5971 28.81836,52.9953 0.8865,3.3845 1.96517,6.8113 2.39793,7.6142 2.44825,4.5426 11.62301,8.8856 16.07407,7.6091 3.4187,-0.981 6.6777,-2.7856 10.38181,-5.7493 8.05755,-6.4467 23.51786,-12.1763 37.24151,-13.8027 15.45722,-1.8319 31.9317,1.1124 45.80272,8.1864 10.679,5.4461 15.09545,8.966 24.54029,19.5571 10.27125,11.5178 18.47565,11.7954 25.42402,0.86 3.20085,-5.0376 14.55055,-17.2262 16.04114,-17.2262 0.5433,0 1.31043,3.16 1.90038,7.8307 2.92176,23.1331 13.33278,51.0619 26.67743,71.5673 31.0378,47.69299 81.76635,77.54209 137.5335,80.92739 5.79277,0.352 11.80762,0.531 13.36721,0.397 0.3412,-0.03 1.93075,-0.107 2.58911,-0.151 0.6583,0.04 2.24782,0.121 2.5891,0.151 1.55959,0.133 7.57445,-0.05 13.36723,-0.397 55.76716,-3.3853 106.4957,-33.2344 137.53349,-80.92739 13.34463,-20.5054 23.75566,-48.4341 26.67744,-71.5673 0.5899,-4.6707 1.35707,-7.8307 1.90036,-7.8307 1.49061,0 12.84031,12.1886 16.04114,17.2262 6.94838,10.9358 15.15276,10.6582 25.424,-0.86 9.44485,-10.5911 13.86131,-14.111 24.5403,-19.5571 13.87102,-7.074 30.34551,-10.0182 45.80273,-8.1864 13.72365,1.6265 29.18396,7.356 37.24152,13.8027 3.70412,2.9637 6.96312,4.7688 10.38181,5.7493 4.45107,1.2765 13.62583,-3.0665 16.07406,-7.6091 0.4328,-0.803 1.51142,-4.2297 2.39793,-7.6142 5.34279,-20.3982 15.24204,-38.6009 28.81844,-52.9953 10.0955,-10.7039 27.2592,-21.1266 41.9791,-25.4911 10.673,-3.1645 26.5775,-3.654 38.5837,-1.1863 9.838,2.022 13.5339,1.5703 17.2109,-2.1067 3.7938,-3.7939 4.2605,-7.2535 2.3107,-17.1363 -7.0461,-35.7115 -27.4361,-76.3609 -55.073,-109.7926 -8.8817,-10.7439 -30.0222,-31.6738 -39.7547,-39.3584 -28.38498,-22.4122 -57.29595,-36.1121 -83.85079,-39.7357 -19.17015,-2.6159 -23.95789,-0.121 -27.256,14.2091 -11.94507,51.9 -61.2508,121.5064 -107.78207,152.1566 -4.23321,2.7885 -8.34332,5.3046 -9.13346,5.591 -1.68052,0.609 -1.44896,0.08 3.58678,-8.1497 16.39284,-26.8016 27.35794,-64.965 27.41305,-95.4024 l 0.018,-9.7222 6.77475,-5.8087 c 26.4862,-22.7154 49.93177,-67.50439 58.0026,-110.80159 3.65615,-19.6143 4.68633,-42.789 2.57647,-57.9824 -3.91895,-28.2213 -16.41752,-52.1725 -28.14354,-53.9309 -1.18114,-0.177 -2.49231,-0.246 -3.92735,-0.208 -10.04511,0.266 -26.15679,5.7564 -46.19647,15.8044 -29.57716,14.8299 -55.23364,32.32 -69.0187,47.051 l -4.98074,5.3226 -4.33629,-2.8525 c -20.1082,-13.2327 -46.65198,-23.9186 -70.13032,-28.2321 -12.35752,-2.2704 -25.00902,-3.0793 -37.66187,-2.7803 -12.65285,-0.299 -25.30435,0.51 -37.66188,2.7803 -23.47834,4.3135 -50.02211,14.9994 -70.13033,28.2321 l -4.33628,2.8525 -4.98075,-5.3226 c -13.78495,-14.731 -39.44145,-32.2211 -69.0186,-47.051 -20.03965,-10.048 -36.15138,-15.5383 -46.19647,-15.8044 z m 3.23355,23.7743 c 4.45226,0.599 18.62419,6.0928 30.84406,12.1024 24.53432,12.0659 48.36278,27.5854 61.00069,39.7306 l 6.74435,6.4823 -8.76628,8.9119 c -4.82193,4.9016 -11.82322,12.831 -15.55877,17.6212 -3.73562,4.7902 -7.01299,8.6906 -7.28246,8.6688 -0.2695,-0.02 -3.03862,-2.0676 -6.15311,-4.5465 -15.27196,-12.1552 -41.511,-20.2345 -63.6075,-19.5861 l -9.31705,0.273 -0.5128,-5.2668 c -1.42903,-14.6718 -0.2651,-31.6171 3.05505,-44.4658 1.99322,-7.7138 6.63313,-18.855 8.27505,-19.8697 0.2053,-0.127 0.6427,-0.141 1.27873,-0.06 z m 458.18168,0 c 0.6361,-0.09 1.07343,-0.07 1.27874,0.06 1.64188,1.0147 6.28181,12.1559 8.27504,19.8697 3.32016,12.8486 4.48405,29.794 3.05504,44.4658 l -0.5128,5.2668 -9.31704,-0.273 c -22.09651,-0.649 -48.33555,7.4309 -63.6075,19.5861 -3.11449,2.4789 -5.88358,4.5245 -6.1531,4.5465 -0.2695,0.02 -3.54686,-3.8787 -7.28247,-8.6688 -3.73553,-4.7902 -10.73691,-12.7196 -15.55876,-17.6212 l -8.76628,-8.9119 6.74436,-6.4823 c 12.63787,-12.1452 36.46634,-27.6648 61.00064,-39.7306 12.2199,-6.0096 26.39182,-11.503 30.84409,-12.1024 z m -229.09083,34.0586 c 22.18654,-0.546 44.39213,2.9194 63.64168,10.5857 32.79814,13.062 59.39845,34.4399 80.09305,64.3684 27.08923,39.17649 36.71398,91.48389 25.6848,139.58709 -15.69649,68.4592 -71.5084,120.921 -139.68963,131.3044 -6.85746,1.0443 -18.61096,1.339 -29.7299,1.0799 -11.11892,0.259 -22.87248,-0.04 -29.72994,-1.0799 -68.18121,-10.3834 -123.99314,-62.8452 -139.68962,-131.3044 -11.02916,-48.1032 -1.40442,-100.4106 25.68482,-139.58709 20.69459,-29.9285 47.29491,-51.3064 80.09304,-64.3684 19.24955,-7.6663 41.45511,-11.1312 63.6417,-10.5857 z m -227.75895,58.7179 c 4.98293,0.155 10.95916,0.698 14.9346,1.5371 16.48162,3.4798 31.20048,11.251 35.99192,19.0037 l 1.62691,2.6335 -3.9894,8.8549 c -2.19431,4.8705 -5.81678,14.5075 -8.04969,21.41429 -2.23303,6.9068 -4.90425,16.3567 -5.93661,21.0004 l -1.87759,8.4434 -4.69079,-5.6074 c -15.23573,-18.2134 -28.54095,-44.45039 -35.39688,-69.79989 -0.8715,-3.2224 -1.58386,-6.2298 -1.58386,-6.6836 0,-0.716 3.98848,-0.951 8.97139,-0.796 z m 455.51789,0 c 4.98286,-0.154 8.97135,0.08 8.97135,0.796 0,0.454 -0.7122,3.4612 -1.58383,6.6836 -6.85593,25.3495 -20.16115,51.58659 -35.39688,69.79989 l -4.69078,5.6074 -1.8776,-8.4434 c -1.03237,-4.6437 -3.70361,-14.0936 -5.93662,-21.0004 -2.23288,-6.90679 -5.85537,-16.54389 -8.0497,-21.41429 l -3.98938,-8.8549 1.6269,-2.6335 c 4.79146,-7.7527 19.5103,-15.5238 35.99192,-19.0037 3.97548,-0.839 9.95166,-1.3825 14.93462,-1.5371 z m -551.176,80.17919 c 0.3862,0 -0.519,2.6427 -2.01055,5.8733 -14.68329,31.8031 -28.68333,103.9551 -32.03162,165.0744 -0.5005,9.1348 -1.15896,21.0676 -1.46232,26.5179 l -0.552,9.9096 -2.02445,-2.9968 c -3.83389,-5.6736 -18.24444,-19.8816 -26.133,-25.7672 -19.506726,-14.5536 -42.004665,-22.2259 -65.215435,-22.2398 -5.90413,-0.003 -10.73502,-0.3 -10.73502,-0.658 0,-1.0602 5.27415,-16.2642 7.98765,-23.026 20.23642,-50.4279 64.596775,-100.3712 109.593815,-123.3877 7.69823,-3.9378 20.71869,-9.2993 22.58295,-9.2993 z m 646.83411,0 c 1.86425,0 14.88471,5.3616 22.58296,9.2993 44.99702,23.0165 89.35742,72.9598 109.59382,123.3877 2.7135,6.7618 7.9876,21.9658 7.9876,23.026 0,0.358 -4.8308,0.652 -10.735,0.658 -23.2108,0.01 -45.7087,7.6862 -65.2154,22.2398 -7.8886,5.8856 -22.29914,20.0936 -26.13302,25.7672 l -2.02445,2.9968 -0.552,-9.9096 c -0.3034,-5.4503 -0.9618,-17.3831 -1.46232,-26.5179 -3.34829,-61.1193 -17.34832,-133.2713 -32.03165,-165.0744 -1.49155,-3.2306 -2.39672,-5.8733 -2.01052,-5.8733 z m -624.42462,8.7359 2.24093,6.3671 c 10.05781,28.5703 30.64075,63.1366 55.17039,92.6512 9.82494,11.8215 28.9245,30.9394 39.27232,39.3103 11.16386,9.031 26.05054,18.6893 33.71805,21.8765 3.06673,1.2747 5.72382,2.4259 5.90371,2.5574 0.1801,0.132 -0.8024,2.7041 -2.18273,5.7176 -7.38585,16.1255 -14.68193,45.9744 -14.73834,60.2929 l -0.015,3.7717 -5.06427,2.3891 c -6.36802,3.0049 -13.42321,8.3213 -19.50135,14.694 -2.59368,2.7195 -4.78026,4.9274 -4.86044,4.9073 -0.08,-0.02 -2.33242,-2.0574 -5.00607,-4.5275 -10.20637,-9.4295 -23.73952,-16.9422 -38.32021,-21.2738 -11.74215,-3.4883 -20.2046,-4.4242 -35.40699,-3.9147 -14.28751,0.479 -22.91541,2.2542 -34.43213,7.0811 -9.06684,3.8002 -8.60841,3.7866 -9.19421,0.253 -3.99057,-24.0677 -1.9535,-76.9469 4.79968,-124.6285 6.28316,-44.3635 17.17821,-88.0129 26.16087,-104.8042 z m 602.01514,0 1.45599,2.7208 c 8.98264,16.7913 19.87771,60.4407 26.16086,104.8042 6.75319,47.6816 8.79025,100.5609 4.79968,124.6285 -0.5858,3.5333 -0.1273,3.5469 -9.19423,-0.253 -11.51671,-4.8269 -20.1446,-6.6023 -34.43211,-7.0811 -15.2024,-0.51 -23.66485,0.426 -35.40699,3.9147 -14.5807,4.3316 -28.11386,11.8443 -38.32024,21.2738 -2.67362,2.4701 -4.92619,4.5074 -5.00605,4.5275 -0.08,0.02 -2.26676,-2.1878 -4.86044,-4.9073 -6.07813,-6.3727 -13.13333,-11.689 -19.50132,-14.694 l -5.06431,-2.3891 -0.015,-3.7717 c -0.056,-14.3185 -7.35249,-44.1674 -14.73836,-60.2929 -1.38027,-3.0135 -2.36277,-5.586 -2.18271,-5.7176 0.1799,-0.132 2.837,-1.2826 5.9037,-2.5574 7.66752,-3.1872 22.55418,-12.8455 33.71807,-21.8765 10.34781,-8.371 29.44735,-27.4887 39.27231,-39.3103 24.52966,-29.5146 45.1126,-64.0809 55.17039,-92.6512 z m -441.03017,167.19 6.53546,5.8746 c 29.26748,26.3071 59.65785,40.9975 99.30063,48.0019 6.93041,1.2245 12.48589,1.4933 29.97681,1.4496 2.09879,-0.005 2.46942,-0.07 4.2097,-0.08 1.7403,0.01 2.11084,0.07 4.20969,0.08 17.49091,0.04 23.04638,-0.225 29.97681,-1.4496 39.64278,-7.0044 70.03314,-21.6948 99.30063,-48.0019 l 6.53544,-5.8746 4.10969,8.2459 c 6.31525,12.671 10.76735,27.6251 13.3077,44.7038 1.40906,9.472 1.4105,32.7289 0.008,42.5337 -6.76842,47.1691 -33.80445,88.1903 -74.21085,112.59689 -18.53918,11.1981 -43.1195,19.2459 -64.4406,21.0991 -4.73705,0.412 -11.83335,0.428 -18.79612,0.227 -6.96275,0.201 -14.05907,0.185 -18.79611,-0.227 -21.3211,-1.8532 -45.9015,-9.9009 -64.4406,-21.0991 -40.40645,-24.40659 -67.44244,-65.42769 -74.21086,-112.59689 -1.4029,-9.8048 -1.40133,-33.0618 0.008,-42.5337 2.54035,-17.0786 6.99246,-32.0328 13.3077,-44.7038 z"
       sodipodi:nodetypes="scsccccsccsssssssssscccssssscccccccsssscsssssssssscssssssccccsssscsccsccccscsscccccscccccscccccscccscscccsccccsssccssscccccsccccsscccscsccssccccccsscccccscsccccsscsccccsccccssscccccsssscscsccccsscccssccccscsssccccsccccscsscscccscccc" /><path
       style="fill:none;stroke:#ffffff;stroke-width:18.9148;stroke-linecap:round;stroke-linejoin:round;stroke-dasharray:none;stroke-opacity:1"
       d="m 385.13109,356.19454 c 0,0 1.42061,-10.11212 4.72726,-20.35142 4.56871,-14.14736 28.78162,-14.11761 33.28419,0.0536 3.39902,10.69794 4.788,21.43791 4.788,21.43791"
       id="path2"
       sodipodi:nodetypes="cac"
       transform="matrix(0.96544754,0,0,0.83746792,12.455606,48.03141)"
       inkscape:original-d="m 385.13109,356.19454 c 0,0 5.84009,-41.57062 21.39972,-41.48537 15.89832,0.0871 21.39973,42.62545 21.39973,42.62545"
       inkscape:path-effect="#path-effect1" /><path
       style="fill:none;stroke:#ffffff;stroke-width:18.9148;stroke-linecap:round;stroke-linejoin:round;stroke-dasharray:none;stroke-opacity:1"
       d="m 385.13109,356.19454 c 0,0 1.42061,-10.11212 4.72726,-20.35142 4.56871,-14.14736 28.78162,-14.11761 33.28419,0.0536 3.39902,10.69794 4.788,21.43791 4.788,21.43791"
       id="path2-3"
       sodipodi:nodetypes="cac"
       transform="matrix(0.96544754,0,0,0.83746792,202.13416,48.03141)"
       inkscape:original-d="m 385.13109,356.19454 c 0,0 5.84009,-41.57062 21.39972,-41.48537 15.89832,0.0871 21.39973,42.62545 21.39973,42.62545"
       inkscape:path-effect="#path-effect1-7" /><path
       style="fill:none;stroke:#ffffff;stroke-width:22.8048;stroke-linecap:round;stroke-linejoin:round;stroke-dasharray:none;stroke-opacity:1"
       d="m 368.92261,347.60935 c 0,0 6.26149,-9.32648 14.48957,-18.04848 10.5538,-11.18733 36.58333,-11.19641 47.17953,-0.0111 8.26573,8.72523 14.42344,18.05961 14.42344,18.05961"
       id="path2-3-9"
       sodipodi:nodetypes="cac"
       transform="matrix(0.80076223,0,0,-0.69461327,173.89375,617.35697)"
       inkscape:original-d="m 368.92261,347.60935 c 0,0 22.31204,-33.23375 38.04627,-32.90018 16.57443,0.35138 38.04627,32.90018 38.04627,32.90018"
       inkscape:path-effect="#path-effect1-7-7" /></g></svg>
