<?xml version="1.0" encoding="UTF-8" standalone="no"?>
<!-- Created with Inkscape (http://www.inkscape.org/) -->

<svg
   width="1280"
   height="640"
   viewBox="0 0 1280 640"
   version="1.1"
   style="background: #9c0510;"
   id="svg1"
   xml:space="preserve"
   inkscape:version="1.4 (e7c3feb, 2024-10-09)"
   sodipodi:docname="logo-white-on-red-lettered-social.svg"
   inkscape:export-filename="logo-white-on-red-lettered-social.png"
   inkscape:export-xdpi="96"
   inkscape:export-ydpi="96"
   xmlns:inkscape="http://www.inkscape.org/namespaces/inkscape"
   xmlns:sodipodi="http://sodipodi.sourceforge.net/DTD/sodipodi-0.dtd"
   xmlns="http://www.w3.org/2000/svg"
   xmlns:svg="http://www.w3.org/2000/svg"><sodipodi:namedview
     id="namedview1"
     pagecolor="#9c0510"
     bordercolor="#000000"
     borderopacity="0.25"
     inkscape:showpageshadow="2"
     inkscape:pageopacity="0.0"
     inkscape:pagecheckerboard="0"
     inkscape:deskcolor="#d1d1d1"
     inkscape:document-units="px"
     inkscape:zoom="0.78418142"
     inkscape:cx="658.64861"
     inkscape:cy="345.5833"
     inkscape:window-width="1920"
     inkscape:window-height="1043"
     inkscape:window-x="0"
     inkscape:window-y="0"
     inkscape:window-maximized="1"
     inkscape:current-layer="layer1"
     inkscape:export-bgcolor="#9c0510ff" /><defs
     id="defs1"><inkscape:path-effect
       effect="fillet_chamfer"
       id="path-effect2"
       is_visible="true"
       lpeversion="1"
       nodesatellites_param="F,0,0,1,0,4,0,1 @ F,0,0,1,0,4,0,1 @ F,0,0,1,0,4,0,1 @ F,0,0,1,0,4,0,1 @ F,0,0,1,0,4.0000051,0,1 @ F,0,0,1,0,4,0,1 @ F,0,0,1,0,4,0,1 @ F,0,0,1,0,4.0000051,0,1 @ F,0,0,1,0,4,0,1 @ F,0,0,1,0,4,0,1 @ F,0,0,1,0,4,0,1 @ F,0,0,1,0,4,0,1 @ F,0,0,1,0,4,0,1 @ F,0,0,1,0,4,0,1 @ F,0,0,1,0,4,0,1 @ F,0,0,1,0,4,0,1 @ F,0,0,1,0,4.0000006,0,1 @ F,0,0,1,0,4,0,1 @ F,0,0,1,0,4,0,1 @ F,0,0,1,0,4.0000006,0,1 @ F,0,0,1,0,4,0,1 @ F,0,0,1,0,4,0,1 @ F,0,0,1,0,4,0,1 @ F,0,0,1,0,4,0,1 @ F,0,0,1,0,4,0,1 @ F,0,0,1,0,4,0,1 @ F,0,0,1,0,4,0,1 @ F,0,0,1,0,4,0,1 @ F,0,0,1,0,4,0,1 @ F,0,0,1,0,4.0000051,0,1 @ F,0,0,1,0,4,0,1 @ F,0,0,1,0,4,0,1 @ F,0,0,1,0,4.0000051,0,1 @ F,0,0,1,0,4,0,1 @ F,0,0,1,0,4,0,1 @ F,0,0,1,0,4,0,1 @ F,0,0,1,0,4,0,1 @ F,0,0,1,0,4,0,1 @ F,0,0,1,0,4,0,1 @ F,0,0,1,0,4,0,1 @ F,0,0,1,0,4,0,1 @ F,0,0,1,0,4.0000006,0,1 @ F,0,0,1,0,4,0,1 @ F,0,0,1,0,4,0,1 @ F,0,0,1,0,4.0000006,0,1 @ F,0,0,1,0,4,0,1 @ F,0,0,1,0,4,0,1 @ F,0,0,1,0,4,0,1 @ F,0,0,1,0,4,0,1"
       radius="5"
       unit="px"
       method="auto"
       mode="F"
       chamfer_steps="1"
       flexible="false"
       use_knot_distance="true"
       apply_no_radius="true"
       apply_with_radius="true"
       only_selected="false"
       hide_knots="false" /><inkscape:path-effect
       effect="fillet_chamfer"
       id="path-effect1"
       is_visible="true"
       lpeversion="1"
       nodesatellites_param="F,0,1,1,0,0,0,1 @ F,0,0,1,0,28.532998,0,1 @ F,0,1,1,0,0,0,1"
       radius="0"
       unit="px"
       method="auto"
       mode="F"
       chamfer_steps="1"
       flexible="false"
       use_knot_distance="true"
       apply_no_radius="true"
       apply_with_radius="true"
       only_selected="false"
       hide_knots="false" /><inkscape:path-effect
       effect="fillet_chamfer"
       id="path-effect1-7"
       is_visible="true"
       lpeversion="1"
       nodesatellites_param="F,0,1,1,0,0,0,1 @ F,0,0,1,0,28.532998,0,1 @ F,0,1,1,0,0,0,1"
       radius="0"
       unit="px"
       method="auto"
       mode="F"
       chamfer_steps="1"
       flexible="false"
       use_knot_distance="true"
       apply_no_radius="true"
       apply_with_radius="true"
       only_selected="false"
       hide_knots="false" /><inkscape:path-effect
       effect="fillet_chamfer"
       id="path-effect1-7-7"
       is_visible="true"
       lpeversion="1"
       nodesatellites_param="F,0,1,1,0,0,0,1 @ F,0,0,1,0,28.532998,0,1 @ F,0,1,1,0,0,0,1"
       radius="0"
       unit="px"
       method="auto"
       mode="F"
       chamfer_steps="1"
       flexible="false"
       use_knot_distance="true"
       apply_no_radius="true"
       apply_with_radius="true"
       only_selected="false"
       hide_knots="false" /></defs><g
     inkscape:label="Layer 1"
     inkscape:groupmode="layer"
     id="layer1"
     transform="translate(0,-37.8561)"><path
       style="font-size:167.441px;line-height:0;font-family:Rubik;-inkscape-font-specification:'Rubik, @wght=700';font-variation-settings:'wght' 700;fill:#ffffff;stroke:#ffffff;stroke-width:0.233168"
       d="m 281.18484,613.52277 q -1.84185,0 -3.01394,-1.17209 -1.17208,-1.17209 -1.17208,-3.01394 v -86.73443 h -29.8045 q -1.84185,0 -3.01394,-1.17209 -1.17208,-1.33953 -1.17208,-3.01394 v -17.91619 q 0,-1.84185 1.17208,-3.01393 1.17209,-1.17209 3.01394,-1.17209 h 90.08326 q 1.84185,0 3.01393,1.17209 1.17209,1.17208 1.17209,3.01393 v 17.91619 q 0,1.67441 -1.17209,3.01394 -1.17208,1.17209 -3.01393,1.17209 h -29.8045 v 86.73443 q 0,1.84185 -1.17209,3.01394 -1.17209,1.17209 -3.01394,1.17209 z m 79.70178,0 q -1.84186,0 -3.01394,-1.17209 -1.17209,-1.17209 -1.17209,-3.01394 V 500.50009 q 0,-1.84185 1.17209,-3.01393 1.17208,-1.17209 3.01394,-1.17209 h 45.54395 q 21.59988,0 33.99052,10.04646 12.55807,9.87902 12.55807,28.13009 0,11.88831 -5.86043,20.09292 -5.693,8.2046 -15.06969,12.39063 l 23.10686,41.19048 q 0.50232,1.00465 0.50232,1.84186 0,1.33952 -1.17209,2.51161 -1.00464,1.00465 -2.51161,1.00465 h -22.10221 q -3.18138,0 -4.68835,-1.50697 -1.50697,-1.67441 -2.17674,-3.01394 l -19.08827,-36.83702 h -17.24642 v 37.1719 q 0,1.84185 -1.17209,3.01394 -1.17209,1.17209 -3.01394,1.17209 z m 25.78591,-64.96711 h 19.42315 q 7.86973,0 11.72087,-3.85114 4.01859,-3.85115 4.01859,-10.54879 0,-6.53019 -3.85115,-10.54878 -3.6837,-4.01858 -11.88831,-4.01858 h -19.42315 z m 79.03214,64.96711 q -1.33953,0 -2.51161,-1.00465 -1.00465,-1.17209 -1.00465,-2.51161 0,-0.83721 0.16744,-1.50697 l 39.34864,-107.49712 q 0.50232,-1.84185 2.00929,-3.18138 1.67441,-1.50697 4.5209,-1.50697 h 24.78127 q 2.8465,0 4.35347,1.50697 1.67441,1.33953 2.17673,3.18138 l 39.18119,107.49712 q 0.33489,0.66976 0.33489,1.50697 0,1.33952 -1.17209,2.51161 -1.00465,1.00465 -2.51162,1.00465 h -20.59524 q -2.51161,0 -3.85114,-1.17209 -1.17209,-1.33953 -1.50697,-2.34417 l -6.5302,-17.07899 h -44.70675 l -6.36275,17.07899 q -0.33488,1.00464 -1.50697,2.34417 -1.17209,1.17209 -4.01859,1.17209 z m 39.34864,-44.70675 h 31.14402 L 520.45788,524.6116 Z m 159.38277,55.59041 q -2.67905,0 -4.18602,-1.50697 -1.33953,-1.33953 -2.17674,-2.34417 l -5.69299,-7.53485 q -6.5302,2.17674 -14.90225,2.17674 -15.40457,0 -26.79056,-5.02323 -11.21854,-5.02323 -17.74874,-15.06969 -6.36276,-10.2139 -6.86508,-25.45103 -0.16744,-7.19997 -0.16744,-14.39993 0,-7.19996 0.16744,-14.56737 0.50232,-15.06969 7.03252,-25.28359 6.5302,-10.38134 17.91619,-15.57201 11.38598,-5.19067 26.45567,-5.19067 15.23713,0 26.62312,5.19067 11.38599,5.19067 17.91619,15.57201 6.5302,10.2139 7.03252,25.28359 0.33488,7.36741 0.33488,14.56737 0,7.19996 -0.33488,14.39993 -1.00465,20.76268 -12.05575,32.14867 l 12.22319,17.41386 q 0.16744,0.16744 0.33488,0.66976 0.16744,0.50233 0.16744,1.00465 0.16744,1.33953 -0.8372,2.34417 -1.00465,1.17209 -2.51162,1.17209 z m -26.958,-33.32076 q 8.87438,0 14.39993,-5.35811 5.69299,-5.35811 6.02787,-17.07898 0.33489,-7.3674 0.33489,-13.8976 0,-6.5302 -0.33489,-13.56272 -0.16744,-7.86973 -2.84649,-12.72552 -2.67906,-5.02323 -7.19997,-7.3674 -4.5209,-2.34418 -10.38134,-2.34418 -5.69299,0 -10.2139,2.34418 -4.5209,2.34417 -7.19996,7.3674 -2.67906,4.85579 -2.8465,12.72552 -0.16744,7.03252 -0.16744,13.56272 0,6.5302 0.16744,13.8976 0.33488,11.72087 5.86044,17.07898 5.69299,5.35811 14.39992,5.35811 z m 120.55752,24.11151 q -15.06969,0 -26.45568,-4.85579 -11.21855,-5.02323 -17.41386,-15.23713 -6.19532,-10.38134 -6.19532,-26.28824 v -68.31593 q 0,-1.84185 1.17209,-3.01393 1.17208,-1.17209 3.01394,-1.17209 h 21.59988 q 1.84185,0 3.01394,1.17209 1.17209,1.17208 1.17209,3.01393 v 68.14849 q 0,10.88366 5.19067,16.40922 5.35811,5.35811 14.90225,5.35811 9.37669,0 14.56736,-5.35811 5.35812,-5.52556 5.35812,-16.40922 v -68.14849 q 0,-1.84185 1.17208,-3.01393 1.33953,-1.17209 3.01394,-1.17209 h 21.76733 q 1.67441,0 2.8465,1.17209 1.33952,1.17208 1.33952,3.01393 v 68.31593 q 0,15.9069 -6.19531,26.28824 -6.19532,10.2139 -17.41387,15.23713 -11.21854,4.85579 -26.45567,4.85579 z m 76.52025,-1.67441 q -1.84185,0 -3.01394,-1.17209 -1.17208,-1.17209 -1.17208,-3.01394 V 500.50009 q 0,-1.84185 1.17208,-3.01393 1.17209,-1.17209 3.01394,-1.17209 h 22.10221 q 1.67441,0 2.8465,1.17209 1.33953,1.17208 1.33953,3.01393 v 87.73909 h 50.56718 q 1.84185,0 3.01394,1.33952 1.33952,1.17209 1.33952,3.01394 v 16.7441 q 0,1.84185 -1.33952,3.01394 -1.17209,1.17209 -3.01394,1.17209 z m 89.07831,0 q -1.33953,0 -2.51161,-1.00465 -1.00465,-1.17209 -1.00465,-2.51161 0,-0.83721 0.16744,-1.50697 l 39.34863,-107.49712 q 0.50233,-1.84185 2.0093,-3.18138 1.67441,-1.50697 4.5209,-1.50697 h 24.78127 q 2.8465,0 4.35347,1.50697 1.67441,1.33953 2.17673,3.18138 l 39.18116,107.49712 q 0.3349,0.66976 0.3349,1.50697 0,1.33952 -1.1721,2.51161 -1.0046,1.00465 -2.5116,1.00465 h -20.5952 q -2.5116,0 -3.8512,-1.17209 -1.1721,-1.33953 -1.5069,-2.34417 l -6.5302,-17.07899 h -44.70679 l -6.36275,17.07899 q -0.33489,1.00464 -1.50697,2.34417 -1.17209,1.17209 -4.01859,1.17209 z m 39.34863,-44.70675 h 31.14403 L 978.38737,524.6116 Z"
       id="text1-0-6"
       aria-label="TRAQULA" /><path
       id="path5"
       style="display:inline;vector-effect:non-scaling-stroke;fill:#ffffff;stroke:none;stroke-width:1.08887;stroke-linejoin:round;stroke-dasharray:none;-inkscape-stroke:hairline"
       d="m 435.71932,556.78803 c -0.51552,-0.0663 -1.04804,-0.0612 -1.5759,0.0149 -1.05565,0.15228 -2.09003,0.59469 -2.92841,1.35471 l -25.60544,23.21287 c -3.21687,2.91612 -3.10587,8.17335 0.2318,10.95037 l 25.38424,21.11809 c 3.48007,2.89548 9.27029,0.18013 9.27029,-4.34697 v -11.27574 c 0,-0.16653 0.0547,-0.21905 0.22119,-0.21905 h 5.16997 c 2.25282,0 5.89902,0.0501 7.25412,0.31262 2.75128,0.53303 5.33303,1.73275 7.50939,3.49629 1.07131,0.8681 3.45387,3.63122 4.90204,5.35714 l 19.72722,23.51274 c 0.32406,0.38626 0.32412,0.88343 0,1.26965 l -19.72509,23.50423 c -1.44844,1.72594 -3.83272,4.48894 -4.90417,5.35715 -2.17636,1.76353 -4.75811,2.96753 -7.50939,3.50054 -1.3551,0.26255 -5.0013,0.31263 -7.25412,0.31263 h -5.16997 c -0.16653,0 -0.22119,-0.0547 -0.22119,-0.22118 v -11.27574 c 0,-4.52711 -5.79022,-7.24244 -9.27029,-4.34697 l -25.38424,21.11809 c -3.33767,2.77702 -3.44867,8.03638 -0.2318,10.95249 l 25.60544,23.21075 c 1.67677,1.52004 4.14279,1.77474 5.97808,0.96127 1.83537,-0.81345 3.30281,-2.81318 3.30281,-5.07642 v -13.62787 c 0,-0.16652 0.0547,-0.22117 0.22119,-0.22117 h 1.8651 a 3.7798346,3.7798346 0 0 0 0.007,0 c 2.31375,-0.002 4.62784,0.007 6.94153,0.0276 a 3.7798346,3.7798346 0 0 0 0.032,0 h 0.64652 a 3.7798346,3.7798346 0 0 0 0.35939,-0.0149 c 12.02203,-1.14646 20.09908,-4.81269 26.15203,-10.54203 1.96362,-1.85865 4.20565,-4.61961 5.60809,-6.29077 l 17.67279,-21.05641 17.67285,21.05641 c 1.40244,1.67118 3.64447,4.43214 5.60809,6.29077 6.05295,5.72932 13.80587,9.34705 22.08571,10.30384 2.49162,0.28792 4.88124,0.25307 5.07217,0.25307 h 2.97741 a 3.7798346,3.7798346 0 0 0 0.0213,0 c 2.02169,-0.0118 4.04365,-0.0126 6.06535,-0.017 v 13.83841 c 0,2.26324 1.46744,4.26297 3.30273,5.07642 1.83537,0.81347 4.30132,0.55878 5.97815,-0.96127 l 25.60544,-23.21075 c 3.21687,-2.91612 3.10587,-8.17546 -0.2318,-10.95249 L 568.7744,648.37632 c -3.48006,-2.89548 -9.27028,-0.18014 -9.27028,4.34697 v 11.27574 c 0,0.16653 -0.0547,0.22118 -0.2212,0.22118 h -5.16783 c -2.25282,0 -5.90115,-0.05 -7.25633,-0.31263 -2.75121,-0.53301 -5.33296,-1.737 -7.50932,-3.50054 -1.07144,-0.86819 -3.45573,-3.63121 -4.90417,-5.35715 l -19.72508,-23.50423 c -0.32413,-0.38623 -0.32413,-0.88338 0,-1.26965 l 19.72721,-23.51274 c 1.44818,-1.7259 3.83073,-4.48903 4.90204,-5.35714 2.17643,-1.76357 4.75804,-2.96326 7.50932,-3.49629 1.35518,-0.26253 5.00351,-0.31262 7.25633,-0.31262 h 5.16783 c 0.16653,0 0.2212,0.0525 0.2212,0.21905 v 11.27574 c 0,4.5271 5.79022,7.24245 9.27028,4.34697 l 25.38424,-21.11809 c 3.33767,-2.77702 3.44867,-8.03425 0.2318,-10.95037 L 568.785,558.15765 c -1.67683,-1.52004 -4.14278,-1.77686 -5.97815,-0.9634 -1.83529,0.81346 -3.30273,2.81319 -3.30273,5.07643 v 13.62998 c 0,0.16653 -0.0547,0.22119 -0.2212,0.22119 h -1.86509 a 3.7798346,3.7798346 0 0 0 -0.007,0 c -2.31376,0.002 -4.62784,-0.009 -6.94153,-0.0298 a 3.7798346,3.7798346 0 0 0 -0.032,0 h -0.64652 a 3.7798346,3.7798346 0 0 0 -0.3594,0.0191 c -12.02216,1.14629 -20.09907,4.81271 -26.15202,10.54204 -1.96356,1.85864 -4.20565,4.61747 -5.60809,6.28864 l -17.67279,21.05854 -17.67286,-21.05854 c -1.40244,-1.67117 -3.64446,-4.43 -5.60809,-6.28864 -6.05295,-5.72933 -13.80587,-9.34714 -22.0857,-10.30384 -2.49162,-0.2879 -4.88144,-0.25734 -5.07217,-0.25734 h -2.97741 a 3.7798346,3.7798346 0 0 0 -0.0107,0 l -5.86542,0.0191 c -0.16086,4.6e-4 -0.21053,-0.0497 -0.21053,-0.21054 v -13.62999 c 0,-2.26324 -1.46744,-4.26296 -3.30273,-5.07642 -0.45886,-0.20336 -0.95832,-0.33986 -1.47384,-0.4062 z"
       transform="matrix(0.61224489,0,0,0.61224465,333.87755,11.597629)" /><path
       id="path1-2"
       style="vector-effect:non-scaling-stroke;fill:#ffffff;stroke:none;stroke-width:0.666667;stroke-dasharray:none;-inkscape-stroke:hairline"
       d="m 497.75976,-226.98563 c -0.87859,-0.0244 -1.6818,0.0186 -2.40494,0.12761 -7.1792,1.07657 -14.83109,15.74119 -17.23049,33.01953 -1.29177,9.30207 -0.66032,23.48994 1.57811,35.49869 4.94132,26.50847 19.29567,53.93122 35.51169,67.838532 l 4.14716,3.555994 0.012,5.951826 c 0.0332,18.635132 6.74609,42.001024 16.78253,58.410154 3.08315,5.040727 3.22559,5.362502 2.19664,4.989575 -0.48376,-0.175098 -3.00068,-1.715927 -5.59243,-3.423174 -28.48858,-18.765424 -58.67501,-61.382045 -65.98834,-93.157537 -2.01924,-8.77334 -4.95064,-10.30079 -16.68742,-8.69922 -16.25809,2.21853 -33.95877,10.60637 -51.33723,24.328122 -5.95874,4.704848 -18.90214,17.519756 -24.33986,24.09765 -16.92062,20.468381 -29.4036,45.354577 -33.71745,67.2187441 -1.19389,6.0506988 -0.90875,8.16938611 1.414,10.492184 2.25124,2.2512218 4.51449,2.5283292 10.53781,1.2903634 7.35069,-1.5108297 17.08796,-1.2121822 23.62234,0.7252632 9.01229,2.6721364 19.52095,9.0533643 25.70183,15.6067753 8.31211,8.812888 14.37215,19.95792 17.6433,32.446608 0.5427,2.072147 1.20376,4.169894 1.4687,4.661462 1.49896,2.781184 7.11601,5.440378 9.84115,4.658852 2.09313,-0.600616 4.08765,-1.705023 6.3555,-3.519537 4.93321,-3.946947 14.39854,-7.45476 22.80078,-8.450516 9.46357,-1.121566 19.55046,0.680698 28.04292,5.011715 6.53817,3.334347 9.24217,5.48962 15.02472,11.973964 6.28854,7.051704 11.31105,7.221184 15.56512,0.526042 1.95974,-3.084241 8.90906,-10.546879 9.82168,-10.546879 0.33256,0 0.80284,1.93466 1.164,4.794265 1.7888,14.163121 8.16184,31.263392 16.33207,43.817712 19.00269,29.19977 50.06125,47.47425 84.20443,49.54687 3.54661,0.21552 7.23003,0.32554 8.1849,0.24349 0.20885,-0.0183 1.18153,-0.0655 1.58456,-0.0924 0.40304,0.0245 1.37572,0.0741 1.58466,0.0924 0.95487,0.0815 4.63829,-0.0311 8.1849,-0.24349 34.14318,-2.07262 65.20174,-20.3471 84.20443,-49.54687 8.17023,-12.55432 14.54318,-29.654526 16.33207,-43.817712 0.36116,-2.859605 0.83144,-4.794265 1.164,-4.794265 0.91262,0 7.86194,7.462638 9.82168,10.546879 4.25407,6.695382 9.27658,6.525911 15.56503,-0.526042 5.78264,-6.484344 8.48664,-8.639617 15.02481,-11.973964 8.49246,-4.331017 18.57935,-6.133225 28.04292,-5.011715 8.40224,0.995821 17.86757,4.503569 22.80078,8.450516 2.26785,1.814514 4.26237,2.919226 6.35551,3.519537 2.72513,0.781526 8.34218,-1.877668 9.84114,-4.658852 0.26494,-0.491633 0.926,-2.589315 1.4687,-4.661462 3.27116,-12.488688 9.33119,-23.63372 17.6433,-32.446608 6.18089,-6.553411 16.68964,-12.9346389 25.70174,-15.6067753 6.53456,-1.9374454 16.27165,-2.2360929 23.62244,-0.7252632 6.02322,1.2379658 8.28656,0.9608584 10.53781,-1.2903634 2.32274,-2.32279789 2.60908,-4.4414852 1.41528,-10.492184 -4.31394,-21.8641671 -16.79812,-46.7503631 -33.71865,-67.2187441 -5.43781,-6.577894 -18.3812,-19.392802 -24.33995,-24.09765 -17.37855,-13.721752 -35.07914,-22.109592 -51.33723,-24.328122 -11.73678,-1.60157 -14.66818,-0.0744 -16.68751,8.69922 -7.31324,31.775492 -37.49967,74.392113 -65.98825,93.157537 -2.59174,1.707247 -5.10867,3.247827 -5.59243,3.423174 -1.02885,0.372853 -0.88651,0.04908 2.19664,-4.989575 10.03644,-16.40913 16.74877,-39.775022 16.78253,-58.410154 l 0.012,-5.951826 4.14716,-3.555994 c 16.21602,-13.907382 30.57037,-41.330062 35.51169,-67.838532 2.23843,-12.00875 2.86988,-26.19662 1.57811,-35.49869 -2.39931,-17.27834 -10.05129,-31.94296 -17.23049,-33.01953 -0.72314,-0.10837 -1.52635,-0.15087 -2.40493,-0.12761 -6.15007,0.16286 -16.01465,3.52525 -28.28379,9.67708 -18.10852,9.07953 -33.81672,19.78702 -42.25659,28.80599 l -3.04949,3.25911 -2.65493,-1.74609 c -12.31112,-8.10165 -28.56164,-14.64424 -42.93619,-17.28515 -7.56582,-1.39005 -15.31189,-1.88488 -23.05861,-1.70182 -7.74663,-0.18306 -15.4927,0.31184 -23.05852,1.70182 -14.37454,2.64091 -30.62507,9.1835 -42.93628,17.28515 l -2.65493,1.74609 -3.04948,-3.25911 c -8.4397,-9.01897 -24.14798,-19.72646 -42.25641,-28.80599 -12.26924,-6.15183 -22.13381,-9.51416 -28.28388,-9.67708 z m 1.97911,14.55338 v 0.003 c 2.72587,0.36674 11.40255,3.73082 18.88415,7.41016 15.02103,7.38729 29.61015,16.88839 37.34764,24.32422 l 4.12889,3.96874 -5.36715,5.45703 c -2.95225,3.00099 -7.23769,7.855 -9.52473,10.78776 -2.28713,2.93278 -4.29466,5.32065 -4.45969,5.3073 -0.16495,-0.0123 -1.86003,-1.26486 -3.76691,-2.78256 -9.35019,-7.44194 -25.41419,-12.38916 -38.94272,-11.99218 l -5.70442,0.16667 -0.31383,-3.22396 c -0.87489,-8.98273 -0.16291,-19.35741 1.8698,-27.22395 1.22037,-4.72274 4.06118,-11.54413 5.06642,-12.16537 0.12574,-0.0778 0.39317,-0.0861 0.78255,-0.0364 z m 280.51958,0.003 c 0.38938,-0.0551 0.6581,-0.0431 0.78384,0.0365 1.00524,0.62124 3.84605,7.44263 5.06642,12.16536 2.03271,7.86649 2.74469,18.24122 1.8697,27.22396 l -0.31374,3.22525 -5.70441,-0.16796 c -13.52853,-0.39735 -29.59382,4.55023 -38.94402,11.99218 -1.90688,1.51769 -3.60196,2.77039 -3.76699,2.78385 -0.16494,0.0123 -2.17118,-2.37587 -4.45831,-5.30858 -2.28705,-2.93278 -6.57387,-7.78679 -9.52602,-10.78777 l -5.36715,-5.45703 4.13018,-3.96874 c 7.73749,-7.43584 22.32532,-16.937 37.34635,-24.32423 7.48159,-3.67935 16.15818,-7.04317 18.88415,-7.41015 z m -140.2591,20.85285 c 13.58351,-0.33428 27.17809,1.78682 38.96348,6.48047 20.08053,7.99714 36.36759,21.08529 49.03774,39.40885 16.58529,23.98559 22.4778,56.011312 15.72526,85.462238 -9.61006,41.913774 -43.78111,74.033442 -85.5247,80.39062 -4.19844,0.639361 -11.39434,0.818786 -18.20178,0.660154 -6.80753,0.158567 -14.00343,-0.02352 -18.20187,-0.660154 -41.7436,-6.357178 -75.91464,-38.476846 -85.5247,-80.39062 -6.75255,-29.450926 -0.86004,-61.476648 15.72526,-85.462238 12.67015,-18.32356 28.95592,-31.41171 49.03645,-39.40885 11.78539,-4.69365 25.38117,-6.81445 38.96486,-6.48047 z m -139.44407,35.94922 c 3.05077,0.0949 6.70928,0.42766 9.14328,0.9414 10.09077,2.13049 19.10287,6.88756 22.03639,11.63411 l 0.99611,1.61328 -2.44267,5.42058 c -1.34352,2.98194 -3.56128,8.88203 -4.92841,13.11067 -1.36713,4.22865 -3.00336,10.015 -3.63545,12.85808 l -1.1497,5.16927 -2.87107,-3.4336 c -9.32806,-11.15106 -17.4744,-27.21428 -21.67192,-42.73437 -0.53357,-1.9729 -0.97,-3.8146 -0.97,-4.09245 0,-0.43837 2.44266,-0.58187 5.49344,-0.48697 z m 278.88805,0 c 3.05068,-0.0943 5.49215,0.0486 5.49215,0.48697 0,0.27797 -0.43505,2.11955 -0.96871,4.09245 -4.19752,15.52009 -12.34386,31.58338 -21.67192,42.73437 l -2.87236,3.4336 -1.1498,-5.16927 c -0.632,-2.84308 -2.26693,-8.62943 -3.63406,-12.85808 -1.36704,-4.22864 -3.5849,-10.1288 -4.92841,-13.11067 l -2.44267,-5.42187 0.99611,-1.61199 c 2.93352,-4.74655 11.94562,-9.50356 22.03639,-11.63411 2.434,-0.51367 6.09251,-0.84676 9.14328,-0.9414 z m -197.63413,40.15755 c -6.46934,-0.01 -12.94551,2.99081 -15.18357,9.0026 -2.14138,5.752 -3.01175,11.25 -3.01175,11.25 a 5.5901775,4.8491424 0 0 0 4.75784,5.476559 5.5901775,4.8491424 0 0 0 6.31381,-4.127608 c 0,0 0.81041,-4.870398 2.57809,-9.618481 0.9248,-2.48412 8.11664,-2.48268 9.02732,0.004 1.81528,4.955911 2.61333,10.145833 2.61333,10.145833 a 5.5901775,4.8491424 0 0 0 6.2604,4.188805 5.5901775,4.8491424 0 0 0 4.82814,-5.432297 c 0,0 -0.8439,-5.824021 -3.0469,-11.838541 -2.20605,-6.02284 -8.66746,-9.04122 -15.13671,-9.05077 z m 116.13021,0 c -6.46934,-0.01 -12.9468,2.99081 -15.18486,9.0026 -2.14148,5.752 -3.01046,11.25 -3.01046,11.25 a 5.5901775,4.8491424 0 0 0 4.75784,5.476559 5.5901775,4.8491424 0 0 0 6.31381,-4.127608 c 0,0 0.81041,-4.870398 2.57809,-9.618481 0.9248,-2.48412 8.11526,-2.48268 9.02603,0.004 1.81528,4.955911 2.61333,10.145833 2.61333,10.145833 a 5.5901775,4.8491424 0 0 0 6.26169,4.188805 5.5901775,4.8491424 0 0 0 4.82814,-5.432297 c 0,0 -0.8439,-5.824021 -3.0469,-11.838541 -2.20605,-6.02284 -8.66746,-9.04122 -15.13671,-9.05077 z m -255.95048,8.93198 c 0.23644,0 -0.31862,1.61714 -1.2318,3.59505 -8.98978,19.471273 -17.56074,63.646435 -19.6107,101.0664005 -0.30645,5.5927276 -0.71005,12.8987625 -0.89583,16.2356745 l -0.33727,6.066409 -1.23955,-1.834643 C 416.3265,15.117386 407.50351,6.4184063 402.6738,2.8149866 390.73094,-6.095382 376.9574,-10.792398 362.74669,-10.800903 c -3.61479,-0.0018 -6.57285,-0.183161 -6.57285,-0.402345 0,-0.649102 3.22928,-9.957784 4.89059,-14.097652 12.38962,-30.874211 39.54843,-61.452542 67.09764,-75.54427 4.7132,-2.4109 12.68546,-5.69271 13.82686,-5.69271 z m 396.02074,0 c 1.1414,0 9.11238,3.28187 13.82558,5.69271 27.5492,14.091728 54.70931,44.670059 67.09893,75.54427 1.66131,4.139868 4.89059,13.44724 4.89059,14.096351 0,0.219175 -2.95807,0.399974 -6.57285,0.403646 -14.21071,0.0065 -27.98416,4.705521 -39.92711,13.6158896 -4.8298,3.6034197 -13.6527,12.3023994 -15.99998,15.7760244 l -1.23965,1.834643 -0.33846,-6.06771 C 859.56093,11.021033 859.15863,3.7162981 858.85218,-1.8764295 856.80213,-39.296395 848.22996,-83.471557 839.24019,-102.94283 c -0.9129,-1.97727 -1.4664,-3.594 -1.23052,-3.59505 z m -382.3007,5.34766 1.37239,3.898433 c 6.15782,17.492016 18.75916,38.655099 33.77733,56.725259 6.01529,7.237642 17.70889,18.942663 24.04429,24.067706 6.83502,5.529177 15.94878,11.44188 20.64316,13.3932273 1.87764,0.7804282 3.50445,1.4858947 3.6146,1.5664098 0.11033,0.08081 -0.49077,1.65499679 -1.33596,3.4999992 -4.52187,9.8727487 -8.98885,28.1476297 -9.02335,36.9140617 l -0.009,2.309892 -3.10031,1.462242 c -3.89882,1.839726 -8.21876,5.094434 -11.94009,8.996087 -1.58798,1.665005 -2.92614,3.017517 -2.97522,3.005211 -0.0489,-0.01227 -1.4282,-1.259829 -3.06516,-2.772135 -6.24878,-5.773157 -14.53525,-10.372739 -23.4622,-13.024738 -7.18908,-2.135698 -12.36952,-2.709073 -21.67709,-2.397132 -8.74744,0.29326 -14.02972,1.380694 -21.0807,4.335934 -5.55118,2.326654 -5.27028,2.318379 -5.62895,0.154951 -2.44322,-14.735325 -1.19712,-47.110578 2.93749,-76.303381 3.84689,-27.16132 10.51733,-53.886282 16.01695,-64.166671 z m 368.58066,0 0.89067,1.666666 c 5.49953,10.28038 12.17007,37.004041 16.01686,64.165361 4.13461,29.192803 5.38209,61.568121 2.93887,76.303381 -0.35866,2.163234 -0.0775,2.171518 -5.62895,-0.154951 -7.05107,-2.95524 -12.33326,-4.042794 -21.08069,-4.335934 -9.30758,-0.312245 -14.48931,0.261194 -21.67838,2.397132 -8.92696,2.651999 -17.21213,7.251581 -23.461,13.024738 -1.63687,1.512306 -3.01618,2.759829 -3.06507,2.772135 -0.0489,0.01227 -1.38725,-1.340206 -2.97523,-3.005211 -3.72133,-3.901653 -8.04136,-7.156287 -11.94009,-8.996087 l -3.10031,-1.462242 -0.009,-2.309892 c -0.0341,-8.766432 -4.50149,-27.041313 -9.02345,-36.9140617 -0.84509,-1.84500241 -1.44619,-3.4194287 -1.33595,-3.4999992 0.11014,-0.08081 1.73705,-0.785917 3.6146,-1.5664098 4.69438,-1.9513473 13.80823,-7.8640503 20.64325,-13.3932273 6.3354,-5.125098 18.029,-16.83 24.04429,-24.067706 15.01817,-18.07016 27.6195,-39.233243 33.77732,-56.725259 z m -165.44008,19.910145 a 5.5901697,4.8491355 0 0 0 -4.99871,2.170577 c 0,0 -2.82679,3.685642 -6.46353,7.015626 -1.02526,0.938755 -4.16671,2.051631 -7.51434,2.050782 -3.34754,-6.18e-4 -6.47746,-1.116326 -7.49082,-2.048181 -3.64034,-3.347336 -6.52995,-7.050782 -6.52995,-7.050782 a 5.5901697,4.8491355 0 0 0 -7.7565,-1.322908 5.5901697,4.8491355 0 0 0 -1.52608,6.729173 c 0,0 3.25086,4.228343 7.67836,8.299466 4.16072,3.825833 9.99705,5.091178 15.62241,5.092451 5.62535,9.23e-4 11.46316,-1.261397 15.63282,-5.079425 4.46809,-4.091233 7.67966,-8.345047 7.67966,-8.345047 a 5.5901697,4.8491355 0 0 0 -1.58724,-6.718758 5.5901697,4.8491355 0 0 0 -2.74608,-0.792974 z m -104.57812,82.4518266 4.00131,3.5963535 c 17.91885,16.1063779 36.5245,25.1009059 60.79554,29.3893129 4.2431,0.7497 7.64414,0.913479 18.35289,0.886727 1.28494,-0.0037 1.5127,-0.04207 2.57818,-0.04825 1.06548,0.0065 1.29177,0.04207 2.5768,0.04825 10.70865,0.02445 14.1097,-0.136963 18.35279,-0.886727 24.27113,-4.288407 42.87807,-13.282935 60.79693,-29.3893129 l 4.00131,-3.5963535 2.51563,5.0481714 c 3.86644,7.757752 6.59305,16.913448 8.14837,27.369793 0.86272,5.799181 0.86392,20.03743 0.009,26.040362 -4.14393,28.879037 -20.69758,53.994702 -45.43614,68.937492 -11.35053,6.85598 -26.39942,11.78335 -39.45314,12.91797 -2.90023,0.25225 -7.24489,0.26109 -11.50781,0.13803 -4.26293,0.12306 -8.60759,0.11422 -11.50781,-0.13803 -13.05373,-1.13462 -28.10271,-6.06192 -39.45314,-12.91797 -24.73865,-14.94279 -41.29093,-40.0584 -45.43485,-68.937492 -0.85894,-6.002932 -0.85903,-20.241245 0,-26.040362 1.55532,-10.456281 4.28193,-19.612041 8.14837,-27.369793 z"
       transform="translate(0,318.18166)" /></g></svg>
