<svg viewBox="0 0 16 16" xmlns="http://www.w3.org/2000/svg">
<path d="M13 0C12.4477 0 12 0.447715 12 1V2H11C10.4477 2 10 2.44772 10 3C10 3.55228 10.4477 4 11 4H12V5C12 5.55228 12.4477 6 13 6C13.5523 6 14 5.55228 14 5V4H15C15.5523 4 16 3.55228 16 3C16 2.44772 15.5523 2 15 2H14V1C14 0.447715 13.5523 0 13 0Z" fill="#111418"/>
<path d="M8.76465 1C8.28931 1.53069 8 2.23141 8 3C8 3.76869 8.28912 4.46953 8.76465 5H2V13H14V7.82715C14.8942 7.51047 15.5937 6.78301 15.8701 5.87012L15.8711 5.87109L16 6.2959V14C16 14.55 15.55 15 15 15H1C0.45 15 0 14.55 0 14V2C0 1.45 0.45 1 1 1H8.76465Z" fill="#111418"/>
<path d="M8.5 10C8.78 10 9 10.22 9 10.5C9 10.78 8.78 11 8.5 11H3.5C3.22 11 3 10.78 3 10.5C3 10.22 3.22 10 3.5 10H8.5Z" fill="#111418"/>
<path d="M7.5 8C7.78 8 8 8.22 8 8.5C8 8.78 7.78 9 7.5 9H3.5C3.22 9 3 8.78 3 8.5C3 8.22 3.22 8 3.5 8H7.5Z" fill="#111418"/>
<path d="M10.1738 6C10.2978 6.35032 10.4841 6.67041 10.7207 6.94727C10.6542 6.97955 10.5801 7 10.5 7H3.5C3.22 7 3 6.78 3 6.5C3 6.22 3.22 6 3.5 6H10.1738Z" fill="#111418"/>
</svg>
