<svg xmlns="http://www.w3.org/2000/svg" viewBox="0 0 16 16">
  <path d="M7 4.99971C6.63703 4.98298 2.84029 4.99149 0.995407 4.99668C0.444453 4.99823 0 5.44536 0 5.99631V8.99971C0 9.55199 0.447715 9.99971 1 9.99971H3V15.0568C3 15.5863 3.41334 16.0033 3.94281 16.0025C3.97019 16.0025 3.99763 16.0024 4.02505 16.0024C4.57757 16.0015 5.02373 15.5516 5.02137 14.9991L5 9.99971H7L10.2278 13.9227C10.824 14.6474 12 14.2258 12 13.2874V1.76176C12 0.826461 10.8305 0.40306 10.2318 1.12158L7 4.99971ZM15 7.99971C15 9.01843 14.3842 10.0463 13.5429 10.6703C13.3062 10.8458 13 10.6583 13 10.3637V5.76947C13 5.47349 13.3092 5.28475 13.5497 5.45722C14.3839 6.05536 15 6.99073 15 7.99971Z"/>
</svg>
