<svg viewBox="0 0 16 16" xmlns="http://www.w3.org/2000/svg">
<path d="M4 0C4.55228 0 5 0.447715 5 1C5 1.51284 4.61396 1.93551 4.11662 1.99327L4 2H2V14H4C4.51284 14 4.93551 14.386 4.99327 14.8834L5 15C5 15.5128 4.61396 15.9355 4.11662 15.9933L4 16H1C0.487164 16 0.0644928 15.614 0.00672773 15.1166L0 15V1C0 0.487164 0.38604 0.0644928 0.883379 0.00672773L1 0H4Z"/>
<path d="M15 0C15.5128 0 15.9355 0.38604 15.9933 0.883379L16 1V15C16 15.5128 15.614 15.9355 15.1166 15.9933L15 16H12C11.4477 16 11 15.5523 11 15C11 14.4872 11.386 14.0645 11.8834 14.0067L12 14H14V2H12C11.4872 2 11.0645 1.61396 11.0067 1.11662L11 1C11 0.487164 11.386 0.0644928 11.8834 0.00672773L12 0H15Z"/>
<path d="M6.5 3C5.85376 3 5.34853 3.20474 5.08412 3.72516C4.96694 3.95579 4.92395 4.20217 4.90755 4.41676C4.89125 4.63006 4.89905 4.85058 4.90677 5.03912C4.92399 5.46023 4.93451 6.84749 4.86735 7.06306C4.83958 7.15221 4.80029 7.21986 4.74067 7.27719C4.67831 7.33715 4.57067 7.40772 4.37873 7.46103C4.15615 7.52286 4 7.74507 4 8C4 8.25493 4.15615 8.47714 4.37873 8.53897C4.57067 8.59229 4.67831 8.66285 4.74067 8.72281C4.80029 8.78014 4.83958 8.84779 4.86735 8.93694C4.93451 9.15251 4.92399 10.5398 4.90677 10.9609C4.89905 11.1494 4.89125 11.3699 4.90755 11.5832C4.92395 11.7978 4.96694 12.0442 5.08412 12.2748C5.34853 12.7953 5.85376 13 6.5 13C6.77614 13 7 12.7513 7 12.4444C7 12.1376 6.77614 11.8889 6.5 11.8889C6.03343 11.8889 5.96716 11.7536 5.95573 11.7302L5.95494 11.7286C5.9354 11.6902 5.91394 11.6197 5.90397 11.4892C5.8939 11.3575 5.89782 11.2047 5.90573 11.0113C5.90679 10.9856 5.90797 10.9588 5.90919 10.9311C5.9242 10.5904 5.94531 9.00031 5.81234 8.57348C5.74925 8.37099 5.65127 8.17435 5.50481 8C5.65127 7.82566 5.74925 7.62901 5.81234 7.42652C5.94531 6.99969 5.9242 5.40961 5.90919 5.06887C5.90797 5.0412 5.90679 5.01441 5.90573 4.98866C5.89782 4.79526 5.8939 4.64251 5.90397 4.51076C5.91394 4.3803 5.9354 4.30983 5.95494 4.27137L5.95573 4.26978C5.96716 4.24644 6.03343 4.11111 6.5 4.11111C6.77614 4.11111 7 3.86238 7 3.55556C7 3.24873 6.77614 3 6.5 3Z"/>
<path d="M9.5 3C10.1462 3 10.6515 3.20474 10.9159 3.72516C11.0331 3.95579 11.076 4.20217 11.0924 4.41676C11.1087 4.63006 11.1009 4.85058 11.0932 5.03912C11.076 5.46023 11.0655 6.84749 11.1326 7.06306C11.1604 7.15221 11.1997 7.21986 11.2593 7.27719C11.3217 7.33715 11.4293 7.40772 11.6213 7.46103C11.8439 7.52286 12 7.74507 12 8C12 8.25493 11.8439 8.47714 11.6213 8.53897C11.4293 8.59229 11.3217 8.66285 11.2593 8.72281C11.1997 8.78014 11.1604 8.84779 11.1326 8.93694C11.0655 9.15251 11.076 10.5398 11.0932 10.9609C11.1009 11.1494 11.1087 11.3699 11.0924 11.5832C11.076 11.7978 11.0331 12.0442 10.9159 12.2748C10.6515 12.7953 10.1462 13 9.5 13C9.22386 13 9 12.7513 9 12.4444C9 12.1376 9.22386 11.8889 9.5 11.8889C9.96657 11.8889 10.0328 11.7536 10.0443 11.7302L10.0451 11.7286C10.0646 11.6902 10.0861 11.6197 10.096 11.4892C10.1061 11.3575 10.1022 11.2047 10.0943 11.0113C10.0932 10.9856 10.092 10.9588 10.0908 10.9311C10.0758 10.5904 10.0547 9.00031 10.1877 8.57348C10.2507 8.37099 10.3487 8.17435 10.4952 8C10.3487 7.82566 10.2507 7.62901 10.1877 7.42652C10.0547 6.99969 10.0758 5.40961 10.0908 5.06887C10.092 5.0412 10.0932 5.01441 10.0943 4.98866C10.1022 4.79526 10.1061 4.64251 10.096 4.51076C10.0861 4.3803 10.0646 4.30983 10.0451 4.27137L10.0443 4.26978C10.0328 4.24644 9.96657 4.11111 9.5 4.11111C9.22386 4.11111 9 3.86238 9 3.55556C9 3.24873 9.22386 3 9.5 3Z"/>
</svg>
