<svg viewBox="0 0 16 16" xmlns="http://www.w3.org/2000/svg">
<path d="M11 1C9.34 1 8 2.34 8 4C8 5.25 8.76 6.32 9.85 6.77C9.54 7.49 8.83 8 8 8H6C5.27 8 4.59 8.2 4 8.55V5.82C5.16 5.4 6 4.3 6 3C6 1.34 4.66 0 3 0C1.34 0 0 1.34 0 3C0 4.3 0.84 5.4 2 5.82V10.19C0.84 10.59 0 11.7 0 13C0 14.66 1.34 16 3 16C4.66 16 6 14.66 6 13C6 11.96 5.47 11.05 4.68 10.51C5.03 10.2 5.49 10 6 10H8C9.92 10 11.52 8.65 11.91 6.85C13.12 6.46 14 5.34 14 4C14 2.34 12.66 1 11 1ZM3 2C3.55 2 4 2.45 4 3C4 3.55 3.55 4 3 4C2.45 4 2 3.55 2 3C2 2.45 2.45 2 3 2ZM3 14C2.45 14 2 13.55 2 13C2 12.45 2.45 12 3 12C3.55 12 4 12.45 4 13C4 13.55 3.55 14 3 14ZM11 5C10.45 5 10 4.55 10 4C10 3.45 10.45 3 11 3C11.55 3 12 3.45 12 4C12 4.55 11.55 5 11 5Z" fill="#5F6B7C"/>
<path d="M13.5 13C13.7761 13 14 13.2239 14 13.5V15.5C14 15.7761 13.7761 16 13.5 16H8.5C8.22386 16 8 15.7761 8 15.5V13.5C8 13.2239 8.22386 13 8.5 13H12V12C12 11.3643 12.2435 10.8505 12.6367 10.501C13.0207 10.1598 13.5186 10 14 10C14.4814 10 14.9793 10.1598 15.3633 10.501C15.7565 10.8505 16 11.3643 16 12C16 12.2761 15.7761 12.5 15.5 12.5C15.2239 12.5 15 12.2761 15 12C15 11.6359 14.8684 11.3995 14.6992 11.249C14.5207 11.0904 14.2685 11 14 11C13.7315 11 13.4793 11.0904 13.3008 11.249C13.1316 11.3995 13 11.6359 13 12V13H13.5Z" fill="#5F6B7C"/>
</svg>
