<svg viewBox="0 0 16 16" xmlns="http://www.w3.org/2000/svg">
<path d="M11 1C9.34 1 8 2.34 8 4C8 5.25 8.76 6.32 9.85 6.77C9.54 7.49 8.83 8 8 8H6C5.27 8 4.59 8.2 4 8.55V5.82C5.16 5.4 6 4.3 6 3C6 1.34 4.66 0 3 0C1.34 0 0 1.34 0 3C0 4.3 0.84 5.4 2 5.82V10.19C0.84 10.59 0 11.7 0 13C0 14.66 1.34 16 3 16C4.66 16 6 14.66 6 13C6 11.96 5.47 11.05 4.68 10.51C5.03 10.2 5.49 10 6 10H8C9.92 10 11.52 8.65 11.91 6.85C13.12 6.46 14 5.34 14 4C14 2.34 12.66 1 11 1ZM3 2C3.55 2 4 2.45 4 3C4 3.55 3.55 4 3 4C2.45 4 2 3.55 2 3C2 2.45 2.45 2 3 2ZM3 14C2.45 14 2 13.55 2 13C2 12.45 2.45 12 3 12C3.55 12 4 12.45 4 13C4 13.55 3.55 14 3 14ZM11 5C10.45 5 10 4.55 10 4C10 3.45 10.45 3 11 3C11.55 3 12 3.45 12 4C12 4.55 11.55 5 11 5Z" fill="#5F6B7C"/>
<path d="M13.5 13.0002C13.7761 13.0002 14 13.224 14 13.5002V15.5002C13.9999 15.7762 13.7761 16.0002 13.5 16.0002H8.5C8.22392 16.0002 8.0001 15.7762 8 15.5002V13.5002C8 13.224 8.22386 13.0002 8.5 13.0002H9V12.0002C9 11.3645 9.24356 10.8507 9.63672 10.5012C10.0207 10.16 10.5186 10.0002 11 10.0002C11.4814 10.0002 11.9793 10.16 12.3633 10.5012C12.7564 10.8507 13 11.3645 13 12.0002V13.0002H13.5ZM12 13.0002V12.0002C12 11.6361 11.8683 11.3997 11.6992 11.2492C11.5207 11.0905 11.2685 11.0002 11 11.0002C10.7315 11.0002 10.4793 11.0905 10.3008 11.2492C10.1317 11.3997 10 11.6361 10 12.0002V13.0002H12Z" fill="#5F6B7C"/>
</svg>
