<svg xmlns="http://www.w3.org/2000/svg" viewBox="0 0 16 16">
  <path d="M5.00004 0C5.55232 0 6.00004 0.447715 6.00004 1V3H10V1C10 0.447715 10.4478 0 11 0C11.5523 0 12 0.447715 12 1V3H14C14.0127 3 14.0255 3 14.0384 2.99999C14.254 2.99991 14.4913 2.99982 14.6886 3.02174C14.8902 3.04415 15.2718 3.10757 15.5821 3.41789C15.8925 3.72822 15.9559 4.10979 15.9783 4.31144C16.0002 4.5087 16.0001 4.74597 16 4.96164C16 4.97451 16 4.9873 16 5V9C16 9.0127 16 9.02549 16 9.03836C16.0001 9.25403 16.0002 9.4913 15.9783 9.68856C15.9559 9.89021 15.8925 10.2718 15.5821 10.5821C15.2718 10.8924 14.8902 10.9559 14.6886 10.9783C14.4913 11.0002 14.254 11.0001 14.0384 11C14.0255 11 14.0127 11 14 11H12V15C12 15.5523 11.5523 16 11 16C10.4478 16 10 15.5523 10 15V11H6.00004V15C6.00004 15.5523 5.55232 16 5.00004 16C4.44775 16 4.00004 15.5523 4.00004 15V11H2.00002C1.98732 11 1.97452 11 1.96165 11C1.74599 11.0001 1.50872 11.0002 1.31146 10.9783C1.10981 10.9559 0.728239 10.8924 0.417912 10.5821C0.107586 10.2718 0.0441661 9.89021 0.0217603 9.68856C-0.000156915 9.4913 -6.97728e-05 9.25402 9.62054e-06 9.03836C1.43889e-05 9.02549 1.90381e-05 9.0127 1.90381e-05 9V5C1.90381e-05 4.9873 1.43889e-05 4.97451 9.62054e-06 4.96164C-6.97728e-05 4.74598 -0.000156915 4.5087 0.0217603 4.31144C0.0441661 4.10979 0.107586 3.72822 0.417912 3.41789C0.728239 3.10757 1.10981 3.04415 1.31146 3.02174C1.50872 2.99982 1.746 2.99991 1.96166 2.99999C1.97453 3 1.98732 3 2.00002 3H4.00004V1C4.00004 0.447715 4.44775 0 5.00004 0ZM5.00004 5H4.11804L5.89443 8.55279L6.11804 9H7.88197L6.10558 5.44721L5.88197 5H5.00004ZM8.11804 5L9.89443 8.55279L10.118 9H11H11.882L10.1056 5.44721L9.88197 5H8.11804ZM12.118 5L13.8944 8.55279L14 8.76396V5H12.118ZM3.88197 9L2.10558 5.44721L2.00002 5.23609V9H3.88197Z"/>
</svg>
