<svg xmlns="http://www.w3.org/2000/svg" viewBox="0 0 16 16">
<path d="M15 3a1 1 0 0 1 1 1v11a1 1 0 0 1-1 1H4a1 1 0 0 1-1-1V4a1 1 0 0 1 1-1zm-3.34 5.604c-.489.29-.966.57-1.32.779l-.34.2v4.424l3.098-1.403c.312-.142.517-.486.517-.867v-4.29c-.415.246-1.202.713-1.955 1.157m-6.275 3.189c0 .353.176.676.455.834L9 13.974V9.582L5.385 7.446zM9.83 5.099a.74.74 0 0 0-.674-.033L5.902 6.541l-.043.023L9.5 8.717l.332-.196 1.32-.778c.817-.482 1.662-.983 2.037-1.207l-.029-.018z" />
<path d="M12 0a1 1 0 0 1 1 1v1H3a1 1 0 0 0-1 1v10H1a1 1 0 0 1-1-1V1a1 1 0 0 1 1-1z"/>
</svg>
