<svg viewBox="0 0 16 16" xmlns="http://www.w3.org/2000/svg">
<path d="M15 0C15.5523 0 16 0.447715 16 1V15C16 15.5523 15.5523 16 15 16H1C0.447715 16 0 15.5523 0 15V1C0 0.447715 0.447715 2.81862e-08 1 0H15ZM10.5703 6.73145C9.97595 7.08213 9.39627 7.42409 8.96582 7.67773C8.77918 7.78771 8.61988 7.88056 8.5 7.95117V13.4365L12.3711 11.6826C12.7507 11.5106 13 11.094 13 10.6309V5.30176C13 5.29859 12.999 5.29516 12.999 5.29199C12.5124 5.5821 11.5197 6.17131 10.5703 6.73145ZM3 5.36816V10.6982C3.00014 11.127 3.21415 11.5191 3.55273 11.7109L7.5 13.3926V7.95117L3.00488 5.29492C3.00349 5.31915 3.00003 5.34365 3 5.36816ZM8.40137 2.56348C8.14602 2.41906 7.84803 2.40535 7.58301 2.52539L3.62891 4.31738C3.57352 4.34248 3.52114 4.37331 3.47168 4.4082L8 7.08594C8.11901 7.01583 8.27502 6.92325 8.45801 6.81543C8.88833 6.56186 9.46742 6.22064 10.0615 5.87012C11.0841 5.2668 12.1452 4.63778 12.5781 4.37891C12.5368 4.34574 12.4934 4.31521 12.4473 4.28906L8.40137 2.56348Z"/>
</svg>
