<svg viewBox="0 0 16 16" xmlns="http://www.w3.org/2000/svg">
<path d="M10 0H3C2.45 0 2 0.45 2 1V15C2 15.55 2.45 16 3 16H5.75157L4.87579 15.1242L4.79717 15.0459C4.49473 14.7455 4.13655 14.3898 4 14V2H9V5H12V8.17127C12.3129 8.06037 12.6495 8 13 8C13.3479 8 13.685 8.05902 14 8.16937V4L10 0ZM15.71 13.71L13.71 15.71C13.53 15.89 13.28 16 13 16C12.45 16 12 15.55 12 15C12 14.72 12.11 14.47 12.29 14.29L13.59 13L12.29 11.71C12.11 11.53 12 11.28 12 11C12 10.45 12.45 10 13 10C13.28 10 13.53 10.11 13.71 10.29L15.71 12.29C15.89 12.47 16 12.72 16 13C16 13.28 15.89 13.53 15.71 13.71ZM10 15C10 14.72 9.89 14.47 9.71 14.29L8.41 13L9.71 11.71C9.89 11.53 10 11.28 10 11C10 10.45 9.55 10 9 10C8.72 10 8.47 10.11 8.29 10.29L6.29 12.29C6.11 12.47 6 12.72 6 13C6 13.28 6.11 13.53 6.29 13.71L8.29 15.71C8.47 15.89 8.72 16 9 16C9.55 16 10 15.55 10 15Z"/>
</svg>