<svg viewBox="0 0 16 16" xmlns="http://www.w3.org/2000/svg">
<path d="M12.293 2.29297C12.6835 1.90244 13.3165 1.90244 13.707 2.29297L15.707 4.29297C15.7548 4.34078 15.7976 4.39354 15.835 4.4502C15.8597 4.48768 15.8812 4.52661 15.9004 4.56641C15.9222 4.61159 15.9412 4.65838 15.9561 4.70703C15.9623 4.72732 15.9668 4.74798 15.9717 4.76855C15.9893 4.84291 16 4.92025 16 5C16 5.07491 15.9902 5.14756 15.9746 5.21777C15.969 5.24304 15.9627 5.26811 15.9551 5.29297C15.9409 5.33912 15.9237 5.38372 15.9033 5.42676C15.8822 5.47154 15.8573 5.51476 15.8291 5.55664C15.8171 5.57447 15.8041 5.59141 15.791 5.6084C15.7649 5.6422 15.738 5.67604 15.707 5.70703L13.707 7.70703C13.3165 8.09751 12.6835 8.09751 12.293 7.70703C11.9025 7.31652 11.9025 6.6835 12.293 6.29297L12.5859 6H11.4141L4.70703 12.707C4.65922 12.7548 4.60646 12.7976 4.5498 12.835C4.50512 12.8644 4.45803 12.8886 4.41016 12.9102C4.40138 12.9141 4.39269 12.9182 4.38379 12.9219C4.36669 12.929 4.34942 12.9353 4.33203 12.9414C4.31865 12.9461 4.30563 12.9519 4.29199 12.9561C4.2717 12.9622 4.25105 12.9668 4.23047 12.9717C4.21911 12.9744 4.2078 12.9772 4.19629 12.9795C4.18593 12.9816 4.17544 12.9826 4.16504 12.9844C4.14429 12.9878 4.1237 12.993 4.10254 12.9951L4 13H1C0.44774 13 4.07147e-05 12.5523 0 12C0 11.4477 0.447715 11 1 11H3.58594L8.58594 6H1C0.44774 6 4.08435e-05 5.55225 0 5C0 4.44772 0.447715 4 1 4H12.5859L12.293 3.70703C11.9025 3.31652 11.9025 2.6835 12.293 2.29297Z" fill="#111418"/>
</svg>
