<svg viewBox="0 0 16 16" xmlns="http://www.w3.org/2000/svg">
<path d="M12.5 1C13.0523 1 13.5 1.44772 13.5 2C13.5 2.55228 13.0523 3 12.5 3H10.6689C10.4348 3.00003 10.2081 3.08241 10.0283 3.23242C9.84853 3.3825 9.72741 3.59087 9.68555 3.82129L9.33496 6H11C11.5523 6 12 6.44772 12 7C12 7.55228 11.5523 8 11 8H9.0127L8.28613 12.5166C8.28508 12.5232 8.28341 12.5296 8.28223 12.5361C8.15661 13.2275 7.79239 13.8535 7.25293 14.3037C6.71364 14.7537 6.03344 15 5.33105 15H4C3.44772 15 3 14.5523 3 14C3 13.4477 3.44772 13 4 13H5.33105C5.56516 13 5.79189 12.9176 5.97168 12.7676C6.15151 12.6174 6.27259 12.4091 6.31445 12.1787L6.9873 8H5C4.44772 8 4 7.55228 4 7C4 6.44772 4.44772 6 5 6H7.30859L7.71387 3.4834C7.71492 3.47684 7.71659 3.4704 7.71777 3.46387C7.84339 2.77245 8.20755 2.14654 8.74707 1.69629C9.28639 1.24633 9.96659 1.001 10.6689 1.00098L12.5 1Z"/>
</svg>
