<svg xmlns="http://www.w3.org/2000/svg" viewBox="0 0 16 16">
  <path fill-rule="evenodd" clip-rule="evenodd" d="M6.78825 0.914728C5.28177 -0.59175 2.74213 -0.179623 1.78935 1.72594C1.33758 2.62946 1.35864 3.67411 1.80072 4.5407H1C0.447715 4.5407 0 4.98841 0 5.5407V7.5407C0 8.09298 0.447715 8.5407 1 8.5407H15C15.5523 8.5407 16 8.09298 16 7.5407V5.5407C16 4.98841 15.5523 4.5407 15 4.5407H14.1993C14.6414 3.67411 14.6624 2.62946 14.2107 1.72594C13.2579 -0.179623 10.7182 -0.59175 9.21175 0.914728L8.21253 1.91395C8.13857 1.98791 8.0677 2.06438 8 2.14316C7.9323 2.06438 7.86143 1.98791 7.78747 1.91395L6.78825 0.914728ZM12.2118 3.91473L11.5858 4.5407H9.0212C9.08595 4.08426 9.29697 3.65794 9.62674 3.32817L10.626 2.32894C11.1672 1.78775 12.0795 1.9358 12.4218 2.62037C12.6376 3.05206 12.553 3.57344 12.2118 3.91473ZM6.9788 4.5407C6.91405 4.08426 6.70303 3.65794 6.37326 3.32817L5.37403 2.32894C4.83284 1.78775 3.92048 1.9358 3.5782 2.62037C3.36235 3.05206 3.44696 3.57344 3.78825 3.91473L4.41421 4.5407H6.9788ZM6 9.54077H1V14.5408C1 15.0931 1.44772 15.5408 2 15.5408H6V9.54077ZM15 9.54077H10V15.5408H14C14.5523 15.5408 15 15.0931 15 14.5408V9.54077ZM7 9.54077H9V15.5408H7V9.54077Z"/>
</svg>