<svg xmlns="http://www.w3.org/2000/svg" viewBox="0 0 16 16">
    <path d="M8.98 1.1L8.98691 1.10136L8.97853 1.12854C7.74669 1.5019 6.85 2.64623 6.85 4C6.85 5.35377 7.74669 6.4981 8.97853 6.87146C9.3519 8.10331 10.4962 9 11.85 9C12.2574 9 12.6458 8.91879 13 8.77168V10C13 10.55 13.45 11 14 11C14.55 11 15 11.45 15 12C15 12.55 14.55 13 14 13H2C1.45 13 1 12.55 1 12C1 11.45 1.45 11 2 11C2.55 11 3 10.55 3 10V6C3 3.57 4.73 1.55 7.02 1.1C7.02 1.08 7.015 1.065 7.01 1.05C7.005 1.035 7 1.02 7 1C7 0.45 7.45 0 8 0C8.55 0 9 0.45 9 1C9 1.02 8.995 1.035 8.99 1.05C8.985 1.065 8.98 1.08 8.98 1.1ZM8 16C9.1 16 10 15.1 10 14H6C6 15.1 6.9 16 8 16ZM14 3H13V2C13 1.44772 12.5523 1 12 1C11.4477 1 11 1.44772 11 2V3H10C9.44772 3 9 3.44772 9 4C9 4.55228 9.44772 5 10 5H11V6C11 6.55228 11.4477 7 12 7C12.5523 7 13 6.55228 13 6V5H14C14.5523 5 15 4.55228 15 4C15 3.44772 14.5523 3 14 3Z"/>
</svg>
