<svg viewBox="0 0 16 16" xmlns="http://www.w3.org/2000/svg">
<path d="M6 2L10 2V0H6V2ZM0 10V6H2V10H0ZM1 0H2H4V2L2 2V4H0V2V1C0 0.447715 0.447715 0 1 0ZM0 14V15C0 15.5523 0.447715 16 1 16H2H4V14H2L2 12H0V14ZM10 14V16H6V14H10ZM16 6H14V10H16V6ZM15 16H14H12V14H14V12H16V14V15C16 15.5523 15.5523 16 15 16ZM16 2V1C16 0.447715 15.5523 0 15 0H14H12V2H14V4H16V2ZM7 5C7 4.44772 7.44772 4 8 4C8.55228 4 9 4.44772 9 5V7H11C11.5523 7 12 7.44772 12 8C12 8.55228 11.5523 9 11 9H9V11C9 11.5523 8.55228 12 8 12C7.44772 12 7 11.5523 7 11V9H5C4.44772 9 4 8.55228 4 8C4 7.44771 4.44772 7 5 7H7V5Z"/>
</svg>
