<svg viewBox="0 0 16 16" xmlns="http://www.w3.org/2000/svg">
<path d="M10 2L6 2V0H10V2ZM0 6V10H2V6H0ZM6 16H10V14H6V16ZM14 6H16V10H14V6ZM2 0H1C0.447715 0 0 0.447715 0 1V2V4H2V2L4 2V0H2ZM0 15V14V12H2L2 14H4V16H2H1C0.447715 16 0 15.5523 0 15ZM14 16H15C15.5523 16 16 15.5523 16 15V14V12H14V14H12V16H14ZM8.71908 9.22426L6.77697 7.28358L12.045 2.01932L13.9792 3.96789L8.71908 9.22426ZM8.03503 9.9078L5 11L6.10078 7.9907L8.03503 9.9078ZM13.6568 0.400712C13.9085 0.157142 14.2543 0 14.6318 0C15.3945 0 16.0078 0.62071 15.9999 1.36713C15.9999 1.75213 15.8505 2.08998 15.5989 2.34141L14.4666 3.47284L12.5246 1.53214L13.6568 0.400712Z"/>
</svg>
