<svg viewBox="0 0 16 16" xmlns="http://www.w3.org/2000/svg">
<path d="M5.7002 1.40039C4.99032 1.89031 4.41038 2.47001 3.94043 3.12988C3.23043 4.13988 2.6502 5.38008 2.2002 6.83008C1.75024 8.28995 1.53031 9.64978 1.53027 10.9297C1.53027 11.7396 1.73021 12.6197 2.12012 13.5596L1.99023 13.9805C0.660353 12.2306 0.000117842 10.4803 0 8.73047C0 7.73048 0.219931 6.73999 0.669922 5.75C1.18992 4.6 1.97023 3.5802 2.99023 2.7002C3.78023 2.01021 4.7201 1.44999 5.83008 1L5.7002 1.40039Z"/>
<path d="M10.54 4C10.8199 4.00001 11.0199 4.06985 11.1699 4.21973C11.3198 4.35965 11.3896 4.55977 11.3896 4.80957C11.3896 5.03956 11.3199 5.22989 11.1699 5.37988C11.0299 5.52988 10.8499 5.59961 10.6299 5.59961C10.4799 5.5996 10.2898 5.57952 10.0898 5.51953C9.88012 5.4696 9.74015 5.44047 9.66016 5.44043C9.4602 5.44043 9.26028 5.51022 9.07031 5.66016C8.81031 5.86016 8.50012 6.29043 8.12012 6.94043C8.4184 7.98438 8.67761 8.73518 8.8916 9.20117L7.91602 9.62109C7.66828 9.7252 7.45817 9.89283 7.30078 10.1016L7.2998 10.0996C7.13984 9.77959 6.93964 9.27956 6.71973 8.58984C6.13994 9.31958 5.69032 9.84967 5.36035 10.1797C5.03035 10.5097 4.76004 10.7301 4.54004 10.8301C4.32004 10.9301 4.08984 10.9805 3.83984 10.9805C3.57999 10.9804 3.38043 10.9097 3.23047 10.7598C3.08056 10.6099 3.0001 10.4202 3 10.1904C3 9.95043 3.08023 9.74008 3.24023 9.58008C3.40022 9.42013 3.61039 9.33984 3.86035 9.33984C3.99019 9.33992 4.13985 9.38033 4.30957 9.4502C4.54946 9.57014 4.72983 9.62983 4.83984 9.62988C4.98984 9.62988 5.12047 9.60004 5.23047 9.54004C5.38036 9.46996 5.56029 9.31004 5.79004 9.07031C5.93 8.92036 6.18974 8.60011 6.55957 8.11035C6.07968 6.37076 5.71019 5.33049 5.4502 4.99023C5.2802 4.77023 5.06957 4.66016 4.80957 4.66016C4.67971 4.6602 4.50996 4.67982 4.32031 4.71973L4.37012 4.4502L6.95996 4.00977C7.42989 4.72965 7.75966 5.5298 7.92969 6.38965C8.41966 5.6897 8.78028 5.19014 9.03027 4.91016C9.36011 4.53035 9.63965 4.27999 9.84961 4.16992C10.0696 4.05992 10.3 4 10.54 4Z"/>
<path d="M12.8398 1C14.1698 2.75 14.8301 4.50047 14.8301 6.23047C14.83 7.11538 14.6601 7.99265 14.3223 8.8623L12.6416 8.14062C12.7001 7.95241 12.7575 7.76268 12.8096 7.57031C13.1396 6.32031 13.3096 5.14957 13.3096 4.05957C13.3095 3.2397 13.1097 2.36976 12.7197 1.41992L12.8398 1Z"/>
<path d="M8.27501 11.445L11.775 12.945C11.845 12.98 11.92 13 12 13C12.08 13 12.155 12.98 12.225 12.945L15.725 11.445C15.885 11.365 16 11.195 16 11C16 10.795 15.875 10.615 15.695 10.54L12.2 9.04C12.135 9.015 12.07 9 12 9C11.93 9 11.865 9.015 11.805 9.04L8.31001 10.54C8.12501 10.615 8.00001 10.795 8.00001 11C8.00001 11.195 8.11501 11.365 8.27501 11.445ZM15.5 12.5C15.42 12.5 15.345 12.52 15.275 12.555L12 14L8.725 12.555C8.655 12.52 8.58 12.5 8.5 12.5C8.225 12.5 8 12.725 8 13C8 13.195 8.115 13.365 8.275 13.445L11.775 14.945C11.845 14.98 11.92 15 12 15C12.08 15 12.155 14.98 12.225 14.945L15.725 13.445C15.885 13.365 16 13.195 16 13C16 12.725 15.775 12.5 15.5 12.5Z"/>
</svg>