<svg viewBox="0 0 20 20" xmlns="http://www.w3.org/2000/svg">
<path d="M15 1C15 0.447708 15.4478 0 16 0C16.5522 0 17 0.447708 17 1V3H19C19.5522 3 20 3.44771 20 4C20 4.55229 19.5522 5 19 5H17V7C17 7.55229 16.5522 8 16 8C15.4478 8 15 7.55229 15 7V5H13C12.4478 5 12 4.55229 12 4C12 3.44771 12.4478 3 13 3H15V1Z" fill="#111418"/>
<path d="M13 1C11.3432 1 10 2.34308 10 4C10 4.76949 10.2923 5.46898 10.7686 6H2V17H18V9.23145C18.6124 8.6822 19 7.8874 19 7C19.3511 7 19.6869 6.93604 20 6.8252V18C20 18.55 19.55 19 19 19H1C0.45 19 0 18.55 0 18V2C0 1.45 0.45 1 1 1H13Z" fill="#111418"/>
<path d="M10.5 12C10.78 12 11 12.22 11 12.5C11 12.78 10.78 13 10.5 13H3.5C3.22 13 3 12.78 3 12.5C3 12.22 3.22 12 3.5 12H10.5Z" fill="#111418"/>
<path d="M8.5 10C8.78 10 9 10.22 9 10.5C9 10.78 8.78 11 8.5 11H3.5C3.22 11 3 10.78 3 10.5C3 10.22 3.22 10 3.5 10H8.5Z" fill="#111418"/>
<path d="M12.5 8C12.78 8 13 8.22 13 8.5C13 8.78 12.78 9 12.5 9H3.5C3.22 9 3 8.78 3 8.5C3 8.22 3.22 8 3.5 8H12.5Z" fill="#111418"/>
</svg>
