<svg viewBox="0 0 20 20" xmlns="http://www.w3.org/2000/svg">
<path d="M15 2C13.34 2 12 3.34 12 5C12 6.3 12.84 7.4 14 7.82V9C14 10.1 13.1 11 12 11H8C7.27 11 6.59 11.21 6 11.55V5.82C7.16 5.4 8 4.3 8 3C8 1.34 6.66 0 5 0C3.34 0 2 1.34 2 3C2 4.3 2.84 5.4 4 5.82V14.19C2.84 14.6 2 15.7 2 17C2 18.66 3.34 20 5 20C6.66 20 8 18.66 8 17C8 15.75 7.23 14.7 6.15 14.25C6.45 13.52 7.16 13 8 13H12C14.21 13 16 11.21 16 9V7.82C17.16 7.4 18 6.3 18 5C18 3.34 16.66 2 15 2ZM5 2C5.55 2 6 2.45 6 3C6 3.55 5.55 4 5 4C4.45 4 4 3.55 4 3C4 2.45 4.45 2 5 2ZM5 18C4.45 18 4 17.55 4 17C4 16.45 4.45 16 5 16C5.55 16 6 16.45 6 17C6 17.55 5.55 18 5 18ZM15 6C14.45 6 14 5.55 14 5C14 4.45 14.45 4 15 4C15.55 4 16 4.45 16 5C16 5.55 15.55 6 15 6Z" fill="#5F6B7C"/>
<path d="M17.5 16C17.7761 16 18 16.2239 18 16.5V19.5C18 19.7761 17.7761 20 17.5 20H12.5C12.2239 20 12 19.7761 12 19.5V16.5C12 16.2239 12.2239 16 12.5 16H16V15C16 14.3643 16.2435 13.8505 16.6367 13.501C17.0207 13.1598 17.5186 13 18 13C18.4814 13 18.9793 13.1598 19.3633 13.501C19.7565 13.8505 20 14.3643 20 15C20 15.2761 19.7761 15.5 19.5 15.5C19.2239 15.5 19 15.2761 19 15C19 14.6359 18.8684 14.3995 18.6992 14.249C18.5207 14.0904 18.2685 14 18 14C17.7315 14 17.4793 14.0904 17.3008 14.249C17.1316 14.3995 17 14.6359 17 15V16H17.5Z" fill="#5F6B7C"/>
</svg>
