<svg viewBox="0 0 20 20" xmlns="http://www.w3.org/2000/svg">
<path d="M19.7071 0.292893C19.3166 -0.0976311 18.6834 -0.0976311 18.2929 0.292893L15.5 3.08579L12.7071 0.292893C12.3166 -0.0976311 11.6834 -0.0976311 11.2929 0.292893C10.9024 0.683418 10.9024 1.31658 11.2929 1.70711L14.0858 4.5L11.2929 7.29289C10.9024 7.68342 10.9024 8.31658 11.2929 8.70711C11.6834 9.09763 12.3166 9.09763 12.7071 8.70711L15.5 5.91421L18.2929 8.70711C18.6834 9.09763 19.3166 9.09763 19.7071 8.70711C20.0976 8.31658 20.0976 7.68342 19.7071 7.29289L16.9142 4.5L19.7071 1.70711C20.0976 1.31658 20.0976 0.683418 19.7071 0.292893ZM0 5C0 4.44772 0.447715 4 1 4H5C5.55228 4 6 4.44772 6 5C6 5.55228 5.55228 6 5 6H2V9C2 9.55228 1.55228 10 1 10C0.447715 10 0 9.55228 0 9V5ZM1 20C0.447715 20 0 19.5523 0 19V15C0 14.4477 0.447715 14 1 14C1.55228 14 2 14.4477 2 15V18H5C5.55228 18 6 18.4477 6 19C6 19.5523 5.55228 20 5 20H1ZM11 20L15 20C15.5523 20 16 19.5523 16 19V15C16 14.4477 15.5523 14 15 14C14.4477 14 14 14.4477 14 15V18L11 18C10.4477 18 10 18.4477 10 19C10 19.5523 10.4477 20 11 20ZM11 12C11 13.6569 9.65685 15 8 15C6.34315 15 5 13.6569 5 12C5 10.3431 6.34315 9 8 9C9.65685 9 11 10.3431 11 12Z"/>
</svg>