<svg viewBox="0 0 20 20" xmlns="http://www.w3.org/2000/svg">
<path d="M3 0H11L17 6V10.7585C16.4623 10.2792 15.7567 10 15 10V7H10V2H4V18H6.7585C6.79636 18.0425 6.83547 18.0839 6.87579 18.1242L8.75157 20H3C2.45 20 2 19.55 2 19V1C2 0.45 2.45 0 3 0ZM12 12C12.55 12 13 12.45 13 13C13 13.28 12.89 13.53 12.7 13.71L10.41 16L12.71 18.29C12.89 18.47 13 18.72 13 19C13 19.55 12.55 20 12 20C11.72 20 11.47 19.89 11.29 19.71L8.29 16.71C8.11 16.53 8 16.28 8 16C8 15.72 8.11 15.47 8.29 15.29L11.29 12.29C11.47 12.11 11.72 12 12 12ZM15.71 12.29L18.71 15.29C18.89 15.47 19 15.72 19 16C19 16.28 18.89 16.53 18.71 16.71L15.71 19.71C15.53 19.89 15.28 20 15 20C14.45 20 14 19.55 14 19C14 18.72 14.11 18.47 14.3 18.29L16.59 16L14.29 13.71C14.11 13.53 14 13.28 14 13C14 12.45 14.45 12 15 12C15.28 12 15.53 12.11 15.71 12.29Z"/>
</svg>