<svg viewBox="0 0 20 20" xmlns="http://www.w3.org/2000/svg">
<path d="M3 0H11L17 6V9.5554C16.4132 9.20807 15.73 9.0064 15 9.00015V7H10V2H4V18H9V19.5C9 19.6643 9.01765 19.8324 9.05249 20H3C2.45 20 2 19.55 2 19V1C2 0.45 2.45 0 3 0ZM16.965 15.005L18.43 15.005C18.705 15.005 18.965 15.225 18.965 15.5V19.5C18.965 19.775 18.705 20.005 18.43 20.005H11.465C11.19 20.005 11 19.775 11 19.5V15.5C11 15.225 11.19 15.005 11.465 15.005L12.965 15.005V13C12.965 11.895 13.86 11 14.965 11C16.07 11 16.965 11.895 16.965 13V15.005ZM13.965 13.005V15.01H15.965V13.005C15.965 12.455 15.515 12.005 14.965 12.005C14.415 12.005 13.965 12.455 13.965 13.005Z"/>
</svg>