<svg viewBox="0 0 20 20" xmlns="http://www.w3.org/2000/svg">
<path d="M14.1282 0.142624C14.7064 -0.453781 15.9142 0.946771 16.5784 2.09282C16.7065 2.03317 16.8496 2.00005 17.0002 2.00005C17.5524 2.00023 18.0002 2.44788 18.0002 3.00005C18.0002 3.16544 17.9581 3.32065 17.887 3.45805C19.0003 4.1261 20.4388 5.27307 19.8723 5.85747C19.2939 6.45414 18.0841 5.05165 17.4202 3.90532C17.2923 3.96476 17.1505 3.99999 17.0002 4.00005C16.909 4.00005 16.8205 3.98679 16.7366 3.96391C16.7728 4.17594 16.7327 4.40038 16.6067 4.58989C13.1308 9.81658 13.1306 10.1832 16.6067 15.4102C16.7327 15.5996 16.7727 15.8233 16.7366 16.0352C16.8205 16.0123 16.9091 16 17.0002 16C17.1657 16.0001 17.3218 16.0402 17.4592 16.1114C18.1274 14.9983 19.2735 13.5617 19.8577 14.128C20.4534 14.7064 19.0515 15.9143 17.9055 16.5782C17.9653 16.7064 18.0002 16.8492 18.0002 17C18.0001 17.5521 17.5523 17.9999 17.0002 18C16.8346 18 16.6788 17.958 16.5413 17.8868C15.8733 18.9998 14.7273 20.4377 14.1428 19.8721C13.5463 19.2938 14.9469 18.084 16.093 17.42C16.0337 17.2922 16.0003 17.1501 16.0002 17C16.0002 16.9089 16.0125 16.8203 16.0354 16.7364C15.8235 16.7725 15.5998 16.7324 15.4104 16.6065C10.1834 13.1304 9.81677 13.1306 4.59009 16.6065C4.40059 16.7325 4.17614 16.7726 3.96412 16.7364C3.98699 16.8203 4.00025 16.9088 4.00025 17C4.00019 17.1654 3.95811 17.3207 3.88697 17.4581C5.00027 18.1261 6.43879 19.2731 5.87232 19.8575C5.29389 20.4541 4.08412 19.0517 3.42017 17.9053C3.2923 17.9648 3.15054 18 3.00025 18C2.44807 18 2.00043 17.5522 2.00025 17C2.00025 16.8343 2.04023 16.6777 2.11158 16.5401C0.998478 15.8719 -0.438052 14.7268 0.128178 14.1426C0.706354 13.5462 1.91424 14.9468 2.57837 16.0928C2.70649 16.0332 2.84962 16 3.00025 16C3.09121 16.0001 3.17919 16.0124 3.26294 16.0352C3.22681 15.8233 3.26694 15.5996 3.39283 15.4102C6.86893 10.1832 6.8688 9.8167 3.39283 4.58989C3.26662 4.40011 3.22642 4.17523 3.26294 3.96294C3.1791 3.98578 3.09133 4.00001 3.00025 4.00005C2.83464 4.00005 2.67882 3.95803 2.54126 3.88676C1.87334 4.99983 0.727313 6.43767 0.142827 5.87212C-0.453684 5.29385 0.946867 4.08403 2.09302 3.41997C2.03372 3.29222 2.0003 3.15015 2.00025 3.00005C2.00025 2.44776 2.44796 2.00005 3.00025 2.00005C3.16543 2.0001 3.32098 2.0404 3.45826 2.11137C4.12638 0.998198 5.27343 -0.438349 5.85767 0.127975C6.45336 0.70644 5.05153 1.91428 3.90552 2.57817C3.96532 2.70641 4.00025 2.84922 4.00025 3.00005C4.00022 3.09112 3.98598 3.1789 3.96314 3.26274C4.17543 3.22622 4.40032 3.26642 4.59009 3.39262C9.8169 6.86859 10.1834 6.86873 15.4104 3.39262C15.5998 3.26675 15.8235 3.2266 16.0354 3.26274C16.0126 3.17899 16.0003 3.09101 16.0002 3.00005C16.0002 2.83433 16.0402 2.6777 16.1116 2.54008C14.9985 1.87191 13.5619 0.726763 14.1282 0.142624Z"/>
</svg>
