<svg viewBox="0 0 20 20" xmlns="http://www.w3.org/2000/svg">
<path d="M15.293 1.29297C15.6835 0.902444 16.3165 0.902444 16.707 1.29297L19.707 4.29297C19.7532 4.33913 19.7946 4.3899 19.8311 4.44434C19.8574 4.48364 19.8802 4.52453 19.9004 4.56641C19.9219 4.61096 19.9403 4.65715 19.9551 4.70508C19.9622 4.72831 19.9682 4.75179 19.9736 4.77539C19.9902 4.84762 20 4.92274 20 5C20 5.07491 19.9902 5.14757 19.9746 5.21777C19.969 5.24304 19.9627 5.26811 19.9551 5.29297C19.9423 5.3346 19.927 5.37494 19.9092 5.41406C19.888 5.46066 19.8637 5.50625 19.835 5.5498C19.8333 5.55229 19.8308 5.55417 19.8291 5.55664C19.8171 5.57446 19.8041 5.59142 19.791 5.6084C19.7649 5.6422 19.738 5.67604 19.707 5.70703L16.707 8.70703C16.3165 9.09745 15.6835 9.09745 15.293 8.70703C14.9025 8.31653 14.9025 7.6835 15.293 7.29297L16.5859 6H14.4141L4.70703 15.707C4.65922 15.7548 4.60645 15.7976 4.5498 15.835C4.50512 15.8645 4.45803 15.8886 4.41016 15.9102C4.40139 15.9141 4.39269 15.9182 4.38379 15.9219C4.36669 15.929 4.34942 15.9353 4.33203 15.9414C4.31865 15.9461 4.30563 15.9519 4.29199 15.9561C4.27169 15.9622 4.25105 15.9668 4.23047 15.9717C4.21911 15.9744 4.20779 15.9772 4.19629 15.9795C4.18593 15.9816 4.17544 15.9826 4.16504 15.9844C4.1443 15.9878 4.12369 15.993 4.10254 15.9951L4 16H1C0.447765 16 8.1425e-05 15.5522 0 15C0 14.4477 0.447715 14 1 14H3.58594L11.5859 6H1C0.447766 6 8.16826e-05 5.55222 0 5C0 4.44772 0.447715 4 1 4H16.5859L15.293 2.70703C14.9025 2.31652 14.9025 1.6835 15.293 1.29297Z" fill="#111418"/>
</svg>
