<svg viewBox="0 0 20 20" xmlns="http://www.w3.org/2000/svg">
<path d="M15 2C15.5523 2 16 2.44772 16 3C16 3.55228 15.5523 4 15 4H12.9619C12.6106 3.99994 12.2698 4.12349 12 4.34863C11.7316 4.57271 11.5489 4.88314 11.4854 5.22656L11.4863 5.22754L10.9951 8H14.0791C14.6313 8.00011 15.0791 8.44778 15.0791 9C15.0791 9.55222 14.6313 9.99989 14.0791 10H10.6406L9.7334 15.1211L9.73242 15.126C9.58583 15.9324 9.16065 16.6623 8.53125 17.1875C7.98047 17.6471 7.30359 17.9242 6.59375 17.9863L6.28809 18H4C3.44772 18 3 17.5523 3 17C3 16.4477 3.44772 16 4 16H6.28809C6.63942 16.0001 6.98022 15.8765 7.25 15.6514C7.5195 15.4264 7.70179 15.114 7.76465 14.7686L8.60938 10H5C4.44772 10 4 9.55228 4 9C4 8.44772 4.44772 8 5 8H8.96387L9.5166 4.87891L9.51758 4.87402C9.66413 4.06738 10.0895 3.33764 10.7188 2.8125C11.3481 2.28729 12.1421 1.99986 12.9619 2H15Z"/>
</svg>
