<svg xmlns="http://www.w3.org/2000/svg" viewBox="0 0 20 20">
  <path fill-rule="evenodd" clip-rule="evenodd" d="M8.78825 0.91473C7.28177 -0.591751 4.74213 -0.179623 3.78935 1.72594C3.33758 2.62946 3.35864 3.67412 3.80072 4.5407H1C0.447715 4.5407 0 4.98842 0 5.54071V9.54071C0 10.093 0.447716 10.5407 1 10.5407H19C19.5523 10.5407 20 10.093 20 9.54071V5.54071C20 4.98842 19.5523 4.5407 19 4.5407H16.1993C16.6414 3.67412 16.6624 2.62946 16.2107 1.72594C15.2579 -0.179623 12.7182 -0.591751 11.2118 0.91473L10.2125 1.91396C10.1386 1.98791 10.0677 2.06439 10 2.14317C9.9323 2.06439 9.86143 1.98792 9.78747 1.91396L8.78825 0.91473ZM14.2118 3.91474L13.5858 4.5407H11.0212C11.086 4.08427 11.297 3.65794 11.6267 3.32817L12.626 2.32895C13.1672 1.78775 14.0795 1.9358 14.4218 2.62037C14.6376 3.05207 14.553 3.57345 14.2118 3.91474ZM8.9788 4.5407C8.91405 4.08427 8.70303 3.65794 8.37326 3.32817L7.37403 2.32895C6.83284 1.78775 5.92048 1.9358 5.5782 2.62037C5.36235 3.05207 5.44696 3.57345 5.78825 3.91474L6.41421 4.5407H8.9788ZM7 11.5408H1V18.5408C1 19.0931 1.44772 19.5408 2 19.5408H7V11.5408ZM19 11.5408H13V19.5408H18C18.5523 19.5408 19 19.0931 19 18.5408V11.5408ZM8 11.5408H12V19.5408H8V11.5408Z"/>
</svg>