<svg xmlns="http://www.w3.org/2000/svg" viewBox="0 0 20 20">
  <path fill-rule="evenodd" clip-rule="evenodd" d="M12.0027 2.37096C12.0009 2.41375 12 2.45677 12 2.5C10.3431 2.5 9 3.84315 9 5.5C9 7.15685 10.3431 8.5 12 8.5C12 10.1569 13.3431 11.5 15 11.5C15.3506 11.5 15.6872 11.4398 16 11.3293V14C16 14.55 16.45 15 17 15C17.55 15 18 15.45 18 16C18 16.55 17.55 17 17 17H3C2.45 17 2 16.55 2 16C2 15.45 2.45 15 3 15C3.55 15 4 14.55 4 14V8C4 5.39 5.67 3.19 8 2.37V2C8 0.9 8.9 0 10 0C11.1 0 12 0.9 12 2V2.37L12.0027 2.37096ZM12 18C12 19.1 11.1 20 10 20C8.9 20 8 19.1 8 18H12ZM14 2.5C14 1.94772 14.4477 1.5 15 1.5C15.5523 1.5 16 1.94772 16 2.5V4.5H18C18.5523 4.5 19 4.94772 19 5.5C19 6.05228 18.5523 6.5 18 6.5H16V8.5C16 9.05228 15.5523 9.5 15 9.5C14.4477 9.5 14 9.05228 14 8.5V6.5H12C11.4477 6.5 11 6.05228 11 5.5C11 4.94772 11.4477 4.5 12 4.5H14V2.5Z"/>
</svg>
