<svg viewBox="0 0 20 20" xmlns="http://www.w3.org/2000/svg">
<path d="M2 0H5V2H2L2 5H0V2V1C0 0.447715 0.447715 0 1 0H2ZM18 18V15H20V18V19C20 19.5523 19.5523 20 19 20H18H15V18H18ZM0 15V18V19C0 19.5523 0.447715 20 1 20H2H5V18H2L2 15H0ZM18 0H15V2H18V5H20V2V1C20 0.447715 19.5523 0 19 0H18ZM12 0H8V2H12V0ZM0 8V12H2L2 8H0ZM9 6C9 5.44772 9.44772 5 10 5C10.5523 5 11 5.44772 11 6V9H14C14.5523 9 15 9.44772 15 10C15 10.5523 14.5523 11 14 11H11V14C11 14.5523 10.5523 15 10 15C9.44772 15 9 14.5523 9 14V11H6C5.44772 11 5 10.5523 5 10C5 9.44771 5.44772 9 6 9H9V6ZM20 12H18V8H20V12ZM8 20V18H12V20H8Z"/>
</svg>
