<svg viewBox="0 0 20 20" xmlns="http://www.w3.org/2000/svg">
<path d="M12.25 0C11.5596 0 11 0.559644 11 1.25V11H7.25C6.55964 11 6 11.5596 6 12.25V13.75C6 13.8345 5.99879 13.9178 5.99643 14H6H18.9964H19V13.75V12.25C19 11.5596 18.4404 11 17.75 11H14V1.25C14 0.559644 13.4404 0 12.75 0H12.25ZM4.5 3C4.22386 3 4 2.77614 4 2.5C4 2.22386 4.22386 2 4.5 2L8.5 2C8.77614 2 9 2.22386 9 2.5C9 2.77614 8.77614 3 8.5 3L4.5 3ZM2.5 6C2.22386 6 2 5.77614 2 5.5C2 5.22386 2.22386 5 2.5 5L8.5 5C8.77614 5 9 5.22386 9 5.5C9 5.77614 8.77614 6 8.5 6L2.5 6ZM4.5 9C4.22386 9 4 8.77614 4 8.5C4 8.22386 4.22386 8 4.5 8H8.5C8.77614 8 9 8.22386 9 8.5C9 8.77614 8.77614 9 8.5 9H4.5ZM3 19C3.55026 19 5.45704 17.8373 5.90518 15H18.9374C18.7693 16.8946 18.1804 20 16.25 20H15V18L12 20H10V18L7 20H3V19Z"/>
</svg>
