<svg width="925" height="145" viewBox="0 0 925 145" fill="none" xmlns="http://www.w3.org/2000/svg">
<g clip-path="url(#clip0_37_1097)">
<rect width="925" height="145" fill="#1C2127"/>
<rect width="249.5" height="276.5" transform="translate(676 -13)" fill="#1E2124"/>
<g opacity="0.7">
<path d="M901.05 25.375C901.05 24.008 902.147 22.9 903.5 22.9C904.853 22.9 905.95 24.008 905.95 25.375V32.8C905.95 34.167 904.853 35.275 903.5 35.275C902.147 35.275 901.05 34.167 901.05 32.8V25.375Z" fill="white"/>
<path d="M908.4 35.275C907.047 35.275 905.95 36.383 905.95 37.75C905.95 39.117 907.047 40.225 908.4 40.225H915.75C917.103 40.225 918.2 39.117 918.2 37.75C918.2 36.383 917.103 35.275 915.75 35.275H908.4Z" fill="white"/>
<path d="M888.8 37.75C888.8 36.383 889.897 35.275 891.25 35.275H898.6C899.953 35.275 901.05 36.383 901.05 37.75C901.05 39.117 899.953 40.225 898.6 40.225H891.25C889.897 40.225 888.8 39.117 888.8 37.75Z" fill="white"/>
<path d="M903.5 40.225C902.147 40.225 901.05 41.333 901.05 42.7V50.125C901.05 51.492 902.147 52.6 903.5 52.6C904.853 52.6 905.95 51.492 905.95 50.125V42.7C905.95 41.333 904.853 40.225 903.5 40.225Z" fill="white"/>
<path fill-rule="evenodd" clip-rule="evenodd" d="M903.5 62.5C917.031 62.5 928 51.419 928 37.75C928 24.081 917.031 13 903.5 13C889.969 13 879 24.081 879 37.75C879 51.419 889.969 62.5 903.5 62.5ZM903.5 57.55C914.325 57.55 923.1 48.6852 923.1 37.75C923.1 26.8148 914.325 17.95 903.5 17.95C892.675 17.95 883.9 26.8148 883.9 37.75C883.9 48.6852 892.675 57.55 903.5 57.55Z" fill="white"/>
</g>
<path d="M832.5 93.875C832.5 92.508 833.619 91.4 835 91.4C836.381 91.4 837.5 92.508 837.5 93.875V101.3C837.5 102.667 836.381 103.775 835 103.775C833.619 103.775 832.5 102.667 832.5 101.3V93.875Z" fill="white" fill-opacity="0.2"/>
<path d="M840 103.775C838.619 103.775 837.5 104.883 837.5 106.25C837.5 107.617 838.619 108.725 840 108.725H847.5C848.881 108.725 850 107.617 850 106.25C850 104.883 848.881 103.775 847.5 103.775H840Z" fill="white" fill-opacity="0.2"/>
<path d="M820 106.25C820 104.883 821.119 103.775 822.5 103.775H830C831.381 103.775 832.5 104.883 832.5 106.25C832.5 107.617 831.381 108.725 830 108.725H822.5C821.119 108.725 820 107.617 820 106.25Z" fill="white" fill-opacity="0.2"/>
<path d="M835 108.725C833.619 108.725 832.5 109.833 832.5 111.2V118.625C832.5 119.992 833.619 121.1 835 121.1C836.381 121.1 837.5 119.992 837.5 118.625V111.2C837.5 109.833 836.381 108.725 835 108.725Z" fill="white" fill-opacity="0.2"/>
<path fill-rule="evenodd" clip-rule="evenodd" d="M835 131C848.807 131 860 119.919 860 106.25C860 92.581 848.807 81.5 835 81.5C821.193 81.5 810 92.581 810 106.25C810 119.919 821.193 131 835 131ZM835 126.05C846.046 126.05 855 117.185 855 106.25C855 95.3148 846.046 86.45 835 86.45C823.954 86.45 815 95.3148 815 106.25C815 117.185 823.954 126.05 835 126.05Z" fill="white" fill-opacity="0.2"/>
<path d="M934.25 175.251C934.25 192.373 920.481 206.251 903.5 206.251C886.519 206.251 872.75 192.373 872.75 175.251C872.75 158.128 886.519 144.251 903.5 144.251C920.481 144.251 934.25 158.128 934.25 175.251Z" stroke="white" stroke-width="0.5"/>
<circle cx="903.5" cy="106.501" r="30.75" stroke="white" stroke-width="0.5"/>
<path d="M934.25 37.7507C934.25 54.8735 920.481 68.7507 903.5 68.7507C886.519 68.7507 872.75 54.8735 872.75 37.7507C872.75 20.628 886.519 6.75073 903.5 6.75073C920.481 6.75073 934.25 20.628 934.25 37.7507Z" stroke="white" stroke-width="0.5"/>
<circle cx="834.75" cy="175.251" r="31" stroke="#13C9BA" stroke-width="0.5"/>
<path d="M865.75 106.501C865.75 123.482 851.873 137.251 834.75 137.251C817.627 137.251 803.75 123.482 803.75 106.501C803.75 89.5199 817.627 75.7507 834.75 75.7507C851.873 75.7507 865.75 89.5199 865.75 106.501Z" stroke="white" stroke-width="0.5"/>
<path d="M865.75 -30.9993C865.75 -14.0184 851.873 -0.249268 834.75 -0.249268C817.627 -0.249268 803.75 -14.0184 803.75 -30.9993C803.75 -47.9801 817.627 -61.7493 834.75 -61.7493C851.873 -61.7493 865.75 -47.9801 865.75 -30.9993Z" stroke="white" stroke-width="0.5"/>
<circle cx="766.75" cy="175.251" r="31" stroke="white" stroke-width="0.5"/>
<path d="M728.75 175.251C728.75 192.373 714.981 206.251 698 206.251C681.019 206.251 667.25 192.373 667.25 175.251C667.25 158.128 681.019 144.251 698 144.251C714.981 144.251 728.75 158.128 728.75 175.251Z" stroke="white" stroke-width="0.5"/>
<path d="M797.75 106.501C797.75 123.482 783.873 137.251 766.75 137.251C749.627 137.251 735.75 123.482 735.75 106.501C735.75 89.5199 749.627 75.7507 766.75 75.7507C783.873 75.7507 797.75 89.5199 797.75 106.501Z" stroke="white" stroke-width="0.5"/>
<path d="M695.775 25C695.775 23.6192 696.883 22.5 698.25 22.5C699.617 22.5 700.725 23.6192 700.725 25V32.5C700.725 33.8808 699.617 35 698.25 35C696.883 35 695.775 33.8808 695.775 32.5V25Z" fill="#13C9BA" fill-opacity="0.3"/>
<path d="M703.2 35C701.833 35 700.725 36.1192 700.725 37.5C700.725 38.8808 701.833 40 703.2 40H710.625C711.992 40 713.1 38.8808 713.1 37.5C713.1 36.1192 711.992 35 710.625 35H703.2Z" fill="#13C9BA" fill-opacity="0.3"/>
<path d="M683.4 37.5C683.4 36.1192 684.508 35 685.875 35H693.3C694.667 35 695.775 36.1192 695.775 37.5C695.775 38.8808 694.667 40 693.3 40H685.875C684.508 40 683.4 38.8808 683.4 37.5Z" fill="#13C9BA" fill-opacity="0.3"/>
<path d="M698.25 40C696.883 40 695.775 41.1192 695.775 42.5V50C695.775 51.3808 696.883 52.5 698.25 52.5C699.617 52.5 700.725 51.3808 700.725 50V42.5C700.725 41.1192 699.617 40 698.25 40Z" fill="#13C9BA" fill-opacity="0.3"/>
<path fill-rule="evenodd" clip-rule="evenodd" d="M698.25 62.5C711.919 62.5 723 51.3071 723 37.5C723 23.6929 711.919 12.5 698.25 12.5C684.581 12.5 673.5 23.6929 673.5 37.5C673.5 51.3071 684.581 62.5 698.25 62.5ZM698.25 57.5C709.185 57.5 718.05 48.5457 718.05 37.5C718.05 26.4543 709.185 17.5 698.25 17.5C687.315 17.5 678.45 26.4543 678.45 37.5C678.45 48.5457 687.315 57.5 698.25 57.5Z" fill="#13C9BA" fill-opacity="0.3"/>
<circle cx="766.75" cy="37.7507" r="31" stroke="white" stroke-width="0.5"/>
<circle cx="766.5" cy="37.5007" r="24.75" stroke="white" stroke-width="0.5"/>
<path d="M728.75 37.7507C728.75 54.8735 714.981 68.7507 698 68.7507C681.019 68.7507 667.25 54.8735 667.25 37.7507C667.25 20.628 681.019 6.75073 698 6.75073C714.981 6.75073 728.75 20.628 728.75 37.7507Z" stroke="#13C9BA" stroke-width="0.5"/>
<rect x="696" width="229" height="189" fill="url(#paint0_linear_37_1097)"/>
</g>
<defs>
<linearGradient id="paint0_linear_37_1097" x1="651.352" y1="75" x2="924.927" y2="68.7787" gradientUnits="userSpaceOnUse">
<stop stop-color="#1C2127" stop-opacity="0"/>
<stop offset="1" stop-color="#1C2127"/>
</linearGradient>
<clipPath id="clip0_37_1097">
<rect width="925" height="145" fill="white"/>
</clipPath>
</defs>
</svg>

