<svg xmlns="http://www.w3.org/2000/svg" role="img" aria-label="OIP favicon" viewBox="-21.1 0 159.41 159.41">
  <style>
    .oip-mark {
      fill: #231f20;
    }

    @media (prefers-color-scheme: dark) {
      .oip-mark {
        fill: #f4ede0;
      }
    }
  </style>
  <path
    class="oip-mark"
    d="M7.92,72c0-30.38,24.91-51.41,50.69-51.41s50.69,21.02,50.69,51.41-24.91,51.41-50.69,51.41S7.92,102.38,7.92,72ZM102.24,72c0-26.93-21.46-44.93-43.63-44.93S14.98,45.07,14.98,72s21.46,44.93,43.63,44.93,43.63-18,43.63-44.93Z"
  />
  <g class="oip-mark">
    <path d="M40.63,42.16h4.62v60.9h-4.62v-60.9Z" />
    <path
      d="M56.8,42.16h9.13c15.01,0,24.67,8.29,24.67,21s-9.66,21-24.67,21h-4.51v18.9h-4.62v-60.9ZM85.78,63.16c0-10.39-7.35-16.69-19.84-16.69h-4.51v33.39h4.51c12.39,0,19.84-6.19,19.84-16.69Z"
    />
  </g>
</svg>
