<?xml version="1.0" encoding="UTF-8"?>
<svg role="img" aria-label="OIP lockup" id="Layer_1" xmlns="http://www.w3.org/2000/svg" version="1.1" viewBox="0 0 498.69 150">
  <!-- Generator: Adobe Illustrator 29.8.3, SVG Export Plug-In . SVG Version: 2.1.1 Build 3)  -->
  <defs>
    <style>
      .st0 {
        fill: none;
        stroke: #000;
        stroke-miterlimit: 10;
      }

      .st1 {
        fill: #231f20;
      }

      .st2 {
        isolation: isolate;
      }
    </style>
  </defs>
  <g id="Layer_11" data-name="Layer_1">
    <g class="st2">
      <g class="st2">
        <path class="st1" d="M25.37,72.77c0-30.38,24.91-51.41,50.69-51.41s50.69,21.02,50.69,51.41-24.91,51.41-50.69,51.41-50.69-21.02-50.69-51.41ZM119.69,72.77c0-26.93-21.46-44.93-43.63-44.93s-43.63,18-43.63,44.93,21.46,44.93,43.63,44.93,43.63-18,43.63-44.93Z"/>
      </g>
    </g>
  </g>
  <g id="Layer_2">
    <g class="st2">
      <g class="st2">
        <path class="st1" d="M58.08,42.94h4.62v60.9h-4.62v-60.9Z"/>
        <path class="st1" d="M74.25,42.94h9.13c15.01,0,24.67,8.29,24.67,21s-9.66,21-24.67,21h-4.51v18.9h-4.62v-60.9ZM103.23,63.94c0-10.39-7.35-16.69-19.84-16.69h-4.51v33.39h4.51c12.39,0,19.84-6.19,19.84-16.69Z"/>
      </g>
    </g>
  </g>
  <g id="Layer_3">
    <g class="st2">
      <g class="st2">
        <path class="st1" d="M146.55,72.39c0-12.66,10.38-21.42,21.12-21.42s21.12,8.76,21.12,21.42-10.38,21.42-21.12,21.42-21.12-8.76-21.12-21.42ZM185.85,72.39c0-11.22-8.94-18.72-18.18-18.72s-18.18,7.5-18.18,18.72,8.94,18.72,18.18,18.72,18.18-7.5,18.18-18.72Z"/>
        <path class="st1" d="M195.39,58.59h5.22c8.58,0,14.1,4.74,14.1,12s-5.52,12-14.1,12h-2.58v10.8h-2.64v-34.8ZM211.95,70.59c0-5.94-4.2-9.54-11.34-9.54h-2.58v19.08h2.58c7.08,0,11.34-3.54,11.34-9.54Z"/>
        <path class="st1" d="M219.81,58.59h5.22c8.58,0,14.1,4.74,14.1,12s-5.52,12-14.1,12h-2.58v10.8h-2.64v-34.8ZM236.37,70.59c0-5.94-4.2-9.54-11.34-9.54h-2.58v19.08h2.58c7.08,0,11.34-3.54,11.34-9.54Z"/>
        <path class="st1" d="M243.93,75.99c0-10.62,8.4-17.82,17.76-17.82s17.7,7.2,17.7,17.82-8.34,17.82-17.7,17.82-17.76-7.2-17.76-17.82ZM276.57,75.99c0-9.24-7.08-15.24-14.88-15.24s-14.94,6-14.94,15.24,7.14,15.24,14.94,15.24,14.88-6,14.88-15.24Z"/>
        <path class="st1" d="M285.69,58.59h2.64v32.28h9.6v2.52h-12.24v-34.8Z"/>
        <path class="st1" d="M303.93,58.59h4.86c11.88,0,18.06,7.38,18.06,17.52s-6.18,17.28-18.06,17.28h-4.86v-34.8ZM324.21,76.11c0-9.18-5.22-15-15.6-15h-2.04v29.76h2.04c10.38,0,15.6-5.58,15.6-14.76Z"/>
        <path class="st1" d="M346.95,51.39h2.88v42h-2.88v-42Z"/>
        <path class="st1" d="M357.33,51.39h6.36c10.74,0,16.56,6.18,16.56,14.16s-5.82,14.22-16.56,14.22h-3.48v13.62h-2.88v-42ZM377.37,65.55c0-7.02-4.92-11.64-13.8-11.64h-3.36v23.4h3.36c8.88,0,13.8-4.8,13.8-11.76Z"/>
        <path class="st1" d="M400.05,51.39h2.88v39.42h12.3v2.58h-15.18v-42Z"/>
        <path class="st1" d="M431.19,58.23h.36l12.36,35.16h-2.94l-1.92-5.64h-15.42l-1.92,5.64h-2.88l12.36-35.16ZM438.21,85.29l-6-17.88-.84-2.58-.84,2.58-6.06,17.88h13.74Z"/>
        <path class="st1" d="M458.01,79.77l-4.92,13.98h-.36l-12.36-35.16h2.82l8.88,25.98.84,2.52.78-2.52,2.94-8.64-6.06-17.34h2.82l4.62,13.44,4.56-13.44h2.82l-6.06,17.34,2.94,8.64.78,2.52.78-2.52,8.94-25.98h2.82l-12.36,35.16h-.36l-4.86-13.98Z"/>
      </g>
    </g>
  </g>
  <path class="st0" d="M250.65,72.88"/>
  <path class="st0" d="M-77.77,72.88"/>
</svg>