<svg id="_x30_1" height="512" viewBox="0 0 512 512" width="512" xmlns="http://www.w3.org/2000/svg"><path d="m215.37 92.07c23.18.58 45.43 4.92 66.16 12.43 18.32 6.64 38.8 2.31 52.58-11.47 5.86-5.86 15.36-5.86 21.21 0l63.64 63.64c5.86 5.86 5.86 15.36 0 21.21-13.78 13.78-18.1 34.26-11.47 52.58 7.51 20.73 11.85 42.98 12.43 66.16 2.95 117.48-89.99 214.03-207.5 215.36-118.22 1.34-213.74-94.18-212.41-212.41 1.33-117.51 97.88-210.45 215.36-207.5zm284.91 32.78c15.62-15.62 15.62-40.95 0-56.57l-56.57-56.57c-15.62-15.62-40.95-15.62-56.57 0-15.62 15.62-15.62 40.95 0 56.57l56.57 56.57c15.63 15.62 40.95 15.62 56.57 0zm-169.2 228.37c-103.52-22.58-141.88-82.39-247.76-103.62-7.67-1.54-15.21 3.09-17.39 10.6-3.86 13.29-5.93 27.32-5.93 41.83.02 82.99 69.5 151.3 152.48 149.95 55.06-.9 103-31.61 128.35-76.67 4.95-8.8.12-19.94-9.75-22.09zm-181.08-161.22c0 22.09 17.91 40 40 40s40-17.91 40-40-17.91-40-40-40-40 17.91-40 40z"/></svg>